{"glyphs":{"0":{"ha":688,"x_min":0,"x_max":0,"o":"m 650 440 b 346 892 650 726 525 892 b 38 444 144 892 38 708 b 343 -15 38 199 119 -15 b 650 440 561 -15 650 203 z m 515 432 b 343 35 515 165 453 35 b 171 438 232 35 171 168 b 342 844 171 713 232 844 b 515 432 456 844 515 714 z "},"1":{"ha":688,"x_min":0,"x_max":0,"o":"m 592 0 l 592 39 b 413 132 464 39 413 64 l 413 888 l 372 888 l 103 811 l 103 765 b 244 788 146 779 217 788 b 290 719 279 788 290 768 l 290 132 b 111 39 290 63 242 39 l 111 0 z "},"2":{"ha":688,"x_min":0,"x_max":0,"o":"m 644 222 l 604 222 b 481 110 572 139 554 110 l 288 110 l 190 106 l 190 113 l 374 286 b 600 654 521 435 600 531 b 333 894 600 800 490 894 b 61 682 199 894 104 817 l 94 668 b 297 804 146 772 207 804 b 471 633 404 804 471 738 b 264 258 471 488 401 400 l 53 47 l 53 0 l 600 0 z "},"3":{"ha":688,"x_min":0,"x_max":0,"o":"m 119 692 b 301 804 167 765 218 804 b 443 675 388 804 443 757 b 250 486 443 563 344 486 l 224 486 l 224 433 l 251 433 b 503 228 385 433 503 351 b 331 51 503 92 418 51 b 218 88 297 51 278 57 b 136 119 169 113 158 119 b 82 58 100 119 82 88 b 238 -18 82 22 113 -18 b 617 269 440 -18 617 79 b 413 501 617 393 524 467 l 413 506 b 563 708 500 561 563 613 b 339 894 563 814 481 894 b 88 710 225 894 139 831 z "},"4":{"ha":688,"x_min":0,"x_max":0,"o":"m 668 219 l 668 315 l 526 315 l 526 896 l 442 896 l 18 307 l 18 219 l 403 219 l 403 0 l 526 0 l 526 219 z m 403 315 l 94 315 l 94 321 l 397 744 l 403 744 z "},"5":{"ha":688,"x_min":0,"x_max":0,"o":"m 579 763 l 601 875 l 221 875 l 135 513 l 151 492 b 214 489 171 492 178 492 b 514 249 406 479 514 422 b 328 51 514 104 426 51 b 138 119 239 51 193 119 b 82 60 103 119 82 92 b 242 -18 82 8 135 -18 b 615 304 463 -18 615 90 b 281 600 615 522 444 588 l 215 604 l 253 763 z "},"6":{"ha":688,"x_min":0,"x_max":0,"o":"m 576 897 b 63 357 278 885 63 692 b 360 -17 63 153 153 -17 b 635 282 535 -17 635 93 b 385 574 635 464 536 574 b 204 488 313 574 261 543 l 194 489 b 579 857 229 692 385 828 z m 514 271 b 365 32 514 94 458 32 b 188 328 244 32 188 156 b 343 493 188 449 263 493 b 514 271 458 493 514 396 z "},"7":{"ha":688,"x_min":0,"x_max":0,"o":"m 644 832 l 644 875 l 114 875 l 58 663 l 101 658 b 228 763 139 749 150 763 l 538 763 l 210 -11 l 319 -11 z "},"8":{"ha":688,"x_min":0,"x_max":0,"o":"m 622 208 b 410 485 622 319 572 386 l 410 489 b 589 707 539 560 589 606 b 346 899 589 817 483 899 b 82 693 193 899 82 819 b 254 443 82 599 113 542 l 254 439 b 64 197 125 353 64 308 b 342 -17 64 56 181 -17 b 622 208 507 -17 622 63 z m 486 710 b 367 511 486 621 458 567 b 190 718 243 586 190 636 b 343 853 190 803 249 853 b 486 710 432 853 486 801 z m 296 417 b 506 168 464 308 506 257 b 347 26 506 74 433 26 b 172 208 242 26 172 83 b 296 417 172 304 217 353 z "},"9":{"ha":688,"x_min":0,"x_max":0,"o":"m 118 -18 b 625 519 425 -15 625 161 b 333 897 625 725 540 897 b 54 600 158 897 54 788 b 304 308 54 417 153 308 b 486 394 374 308 424 338 l 494 393 b 115 22 464 168 307 44 z m 175 608 b 328 850 175 786 238 850 b 500 553 450 850 500 726 b 346 390 500 433 426 390 b 175 608 231 390 175 479 z "}," ":{"ha":326,"x_min":0,"x_max":0,"o":""}," ":{"ha":356,"x_min":0,"x_max":0,"o":""},"A":{"ha":997,"x_min":0,"x_max":0,"o":"m 992 0 l 992 42 b 849 165 917 42 889 74 l 519 919 l 463 919 l 168 222 b 4 42 101 64 82 42 l 4 0 l 296 0 l 296 42 b 203 89 231 42 203 50 b 218 157 203 114 210 135 l 281 304 l 636 304 l 690 179 b 714 93 708 138 714 113 b 618 42 714 44 660 42 l 618 0 z m 615 360 l 301 360 l 458 749 l 463 749 z "},"B":{"ha":858,"x_min":0,"x_max":0,"o":"m 568 486 b 765 696 683 517 765 572 b 425 913 765 833 672 913 l 50 913 l 50 871 b 185 744 163 871 185 856 l 185 176 b 50 42 185 61 163 42 l 50 0 l 478 0 b 810 246 685 0 810 88 b 568 481 810 397 686 461 z m 313 503 l 313 854 b 396 858 340 857 369 858 b 628 685 565 858 628 793 b 407 503 628 558 575 503 z m 313 444 l 410 444 b 664 243 539 444 664 401 b 413 51 664 67 532 51 b 313 56 379 51 346 53 z "},"C":{"ha":931,"x_min":0,"x_max":0,"o":"m 844 207 b 546 72 767 122 674 72 b 214 469 350 72 214 192 b 526 869 214 717 326 869 b 799 611 669 869 768 793 l 846 611 l 846 929 l 804 929 b 757 879 788 901 779 879 b 525 929 722 879 671 929 b 69 456 258 929 69 758 b 506 -15 69 185 219 -15 b 878 178 688 -15 803 65 z "},"D":{"ha":1014,"x_min":0,"x_max":0,"o":"m 49 913 l 49 871 b 185 754 153 871 185 856 l 185 172 b 49 42 185 60 171 42 l 49 0 l 446 0 b 944 461 746 0 944 142 b 431 913 944 800 719 913 z m 313 853 b 381 856 339 856 358 856 b 799 449 668 856 799 713 b 394 53 799 136 647 53 b 313 57 367 53 340 54 z "},"E":{"ha":869,"x_min":0,"x_max":0,"o":"m 831 258 l 786 258 b 492 61 732 93 707 60 l 313 61 l 313 443 l 475 443 b 631 314 603 443 631 428 l 675 314 l 675 636 l 631 636 b 475 497 631 524 603 497 l 313 497 l 313 850 l 517 850 b 743 685 688 850 722 824 l 788 685 l 779 913 l 50 913 l 50 871 b 185 743 163 871 185 849 l 185 164 b 50 42 185 56 163 42 l 50 0 l 792 0 z "},"F":{"ha":817,"x_min":0,"x_max":0,"o":"m 797 685 l 789 913 l 50 913 l 50 871 b 185 756 150 871 185 851 l 185 161 b 50 42 185 58 163 42 l 50 0 l 457 0 l 457 42 b 313 153 349 42 313 58 l 313 444 l 476 444 b 624 314 596 444 624 426 l 671 314 l 671 636 l 624 636 b 476 499 624 524 596 499 l 313 499 l 313 850 l 533 850 b 753 685 715 850 728 817 z "},"G":{"ha":1000,"x_min":0,"x_max":0,"o":"m 951 431 l 608 431 l 608 386 b 731 267 714 386 731 367 l 731 117 b 533 47 675 75 619 47 b 214 469 335 47 214 186 b 524 869 214 715 328 869 b 800 611 671 869 768 796 l 847 611 l 847 929 l 807 929 b 757 879 789 899 781 879 b 522 929 722 879 675 929 b 69 453 261 929 69 761 b 514 -15 69 156 219 -15 b 857 79 667 -15 757 21 l 857 281 b 951 386 857 367 874 386 z "},"H":{"ha":1079,"x_min":0,"x_max":0,"o":"m 313 729 b 449 871 313 838 317 871 l 449 913 l 50 913 l 50 871 b 185 729 178 871 185 838 l 185 182 b 50 42 185 58 175 42 l 50 0 l 449 0 l 449 42 b 313 182 324 42 313 60 l 313 442 l 768 442 l 768 182 b 633 42 768 61 757 42 l 633 0 l 1031 0 l 1031 42 b 894 182 904 42 894 61 l 894 729 b 1031 871 894 839 899 871 l 1031 913 l 633 913 l 633 871 b 768 729 761 871 768 838 l 768 496 l 313 496 z "},"I":{"ha":496,"x_min":0,"x_max":0,"o":"m 185 182 b 47 42 185 63 172 42 l 47 0 l 447 0 l 447 42 b 311 182 324 42 311 63 l 311 729 b 447 871 311 838 315 871 l 447 913 l 47 913 l 47 871 b 185 729 179 871 185 838 z "},"J":{"ha":550,"x_min":0,"x_max":0,"o":"m 265 171 b 200 32 265 74 254 32 b 61 161 136 32 143 161 b 0 93 22 161 0 135 b 165 -17 0 18 75 -17 b 393 211 297 -17 393 28 l 393 729 b 521 871 393 838 406 871 l 521 913 l 129 913 l 129 871 b 265 729 261 871 265 838 z "},"K":{"ha":975,"x_min":0,"x_max":0,"o":"m 185 182 b 47 42 185 60 174 42 l 47 0 l 447 0 l 447 42 b 311 182 325 42 311 65 l 311 432 l 324 432 l 446 310 b 647 69 586 172 647 115 b 593 42 647 49 632 42 l 565 42 l 565 0 l 967 0 l 967 42 b 822 101 899 42 868 58 l 424 493 l 725 775 b 907 871 800 844 828 867 l 907 913 l 567 913 l 567 871 l 589 871 b 642 828 628 871 642 857 b 543 688 642 786 607 749 l 318 468 l 311 468 l 311 729 b 447 871 311 838 315 871 l 447 913 l 47 913 l 47 871 b 185 729 179 871 185 838 z "},"L":{"ha":813,"x_min":0,"x_max":0,"o":"m 789 271 l 744 271 b 482 58 690 110 668 58 l 418 58 b 313 132 336 58 313 71 l 313 735 b 449 871 313 843 336 871 l 449 913 l 58 913 l 58 871 b 185 736 169 871 185 843 l 185 171 b 58 42 185 63 169 42 l 58 0 l 747 0 z "},"M":{"ha":1243,"x_min":0,"x_max":0,"o":"m 1181 0 l 1181 42 b 1058 165 1081 42 1058 64 l 1058 744 b 1179 871 1058 847 1081 871 l 1179 913 l 915 913 l 624 214 l 618 214 l 325 913 l 42 913 l 42 871 b 171 743 151 871 171 847 l 171 203 b 39 42 171 60 151 42 l 39 0 l 365 0 l 365 42 b 239 203 260 42 239 60 l 239 763 l 244 763 l 572 0 l 606 0 l 929 764 l 935 764 l 935 165 b 811 42 935 64 918 42 l 811 0 z "},"N":{"ha":1031,"x_min":0,"x_max":0,"o":"m 993 913 l 665 913 l 665 871 b 771 836 724 871 749 863 b 797 692 792 813 797 775 l 797 242 l 790 242 l 276 913 l 40 913 l 40 871 b 171 800 103 871 126 857 l 171 207 b 40 42 171 67 150 42 l 40 0 l 365 0 l 365 42 b 239 207 261 42 239 68 l 239 732 l 246 732 l 821 -11 l 867 -11 l 867 685 b 903 843 867 785 881 824 b 993 871 924 863 943 871 z "},"O":{"ha":1025,"x_min":0,"x_max":0,"o":"m 956 469 b 514 929 956 744 790 929 b 71 457 239 929 71 739 b 514 -17 71 163 238 -17 b 956 469 788 -17 956 179 z m 810 465 b 515 42 810 186 713 42 b 217 465 315 42 217 204 b 510 871 217 719 331 871 b 810 465 690 871 810 715 z "},"P":{"ha":790,"x_min":0,"x_max":0,"o":"m 67 913 l 67 871 b 185 774 156 871 185 856 l 185 176 b 61 42 185 60 169 42 l 61 0 l 453 0 l 453 42 b 313 171 340 42 313 57 l 313 408 b 392 397 328 401 364 397 b 756 682 574 397 756 465 b 413 913 756 867 590 913 z m 313 853 b 396 858 342 856 368 858 b 618 663 546 858 618 788 b 388 454 618 501 538 454 b 313 460 360 454 328 457 z "},"Q":{"ha":1024,"x_min":0,"x_max":0,"o":"m 954 471 b 513 929 954 743 789 929 b 69 457 238 929 69 739 b 478 -15 69 174 225 1 l 511 -72 b 922 -240 585 -199 692 -240 l 992 -240 l 992 -194 b 638 0 825 -194 736 -139 l 638 3 b 954 471 833 50 954 229 z m 808 465 b 514 42 808 186 711 42 b 215 465 314 42 215 204 b 508 871 215 719 329 871 b 808 465 688 871 808 715 z "},"R":{"ha":915,"x_min":0,"x_max":0,"o":"m 760 685 b 401 913 760 861 610 913 l 60 913 l 60 871 b 183 768 171 871 183 844 l 183 172 b 60 42 183 56 164 42 l 60 0 l 450 0 l 450 42 b 313 172 331 42 313 57 l 313 418 l 351 418 b 444 372 401 418 417 414 b 693 0 501 289 542 229 l 922 0 l 922 42 b 779 113 858 42 824 51 b 525 436 626 331 572 408 l 525 442 b 760 685 638 468 760 529 z m 313 854 b 404 858 342 857 374 858 b 619 679 554 858 619 790 b 365 471 619 532 518 478 l 313 472 z "},"S":{"ha":700,"x_min":0,"x_max":0,"o":"m 611 649 l 601 926 l 565 926 b 522 886 558 897 544 886 b 332 929 489 886 458 929 b 68 704 188 928 68 850 b 292 428 68 558 181 492 b 522 192 406 363 522 314 b 353 44 522 86 457 44 b 92 279 211 43 140 88 l 49 279 l 61 -21 l 104 -21 b 142 25 106 7 122 25 b 372 -17 174 25 228 -17 b 654 232 533 -17 654 71 b 393 529 654 397 517 460 b 189 743 289 589 189 639 b 338 874 189 829 243 874 b 569 649 478 875 531 801 z "},"T":{"ha":838,"x_min":0,"x_max":0,"o":"m 815 663 l 804 913 l 36 913 l 21 663 l 64 663 b 265 850 93 814 113 850 l 354 850 l 354 182 b 218 42 354 56 335 42 l 218 0 l 621 0 l 621 42 b 483 182 501 42 483 56 l 483 850 l 571 850 b 772 663 725 850 742 814 z "},"U":{"ha":1044,"x_min":0,"x_max":0,"o":"m 1019 913 l 679 913 l 679 871 b 810 693 796 871 810 839 l 810 343 b 553 71 810 151 735 71 b 292 349 354 71 292 168 l 292 742 b 428 871 292 846 310 871 l 428 913 l 28 913 l 28 871 b 164 749 138 871 164 846 l 164 347 b 518 -17 164 89 272 -17 b 889 363 781 -17 889 110 l 889 697 b 1019 871 889 840 900 871 z "},"V":{"ha":944,"x_min":0,"x_max":0,"o":"m 565 314 l 517 175 l 510 175 l 456 321 l 288 733 b 264 818 271 774 264 800 b 358 871 264 869 322 871 l 358 913 l -14 913 l -14 871 b 132 744 61 871 92 838 l 450 -7 l 506 -7 l 792 690 b 954 871 858 847 876 871 l 954 913 l 663 913 l 663 871 b 756 824 728 871 756 861 b 740 756 756 799 749 776 z "},"W":{"ha":1311,"x_min":0,"x_max":0,"o":"m 1310 913 l 1024 913 l 1024 871 b 1117 813 1088 871 1117 854 b 1092 692 1117 778 1106 736 l 933 231 l 926 231 l 881 368 l 736 743 b 713 824 726 768 713 801 b 818 871 713 854 749 871 l 818 913 l 456 913 l 456 871 b 601 739 535 871 557 860 l 640 632 l 483 226 l 476 226 l 433 343 l 272 749 b 253 825 258 785 253 808 b 344 871 253 854 274 871 l 344 913 l -14 913 l -14 871 b 139 719 58 868 96 836 l 428 -8 l 463 -8 l 672 543 l 678 543 l 886 -8 l 924 -8 l 1192 775 b 1310 871 1217 846 1244 869 z "},"X":{"ha":922,"x_min":0,"x_max":0,"o":"m 917 0 l 917 40 b 774 124 847 42 819 57 l 519 496 l 713 747 b 906 871 789 849 817 868 l 906 913 l 586 913 l 586 871 b 668 839 653 871 668 860 b 631 753 668 817 653 789 l 485 543 l 482 543 l 404 675 b 322 831 371 740 322 797 b 394 871 322 860 343 871 l 410 871 l 410 913 l 24 913 l 24 871 b 200 753 119 871 133 850 l 399 456 l 167 150 b 3 40 100 63 76 43 l 3 0 l 310 0 l 310 40 b 221 79 236 40 221 56 b 267 167 221 106 249 143 l 435 404 l 438 404 l 478 335 l 565 197 b 615 79 601 140 615 108 b 542 40 615 49 596 40 l 528 40 l 528 0 z "},"Y":{"ha":899,"x_min":0,"x_max":0,"o":"m 906 913 l 603 913 l 603 871 b 692 833 674 871 692 858 b 675 779 692 813 685 794 l 492 467 l 483 467 l 422 575 l 297 775 b 274 839 283 796 274 821 b 367 871 274 858 289 871 l 367 913 l -7 913 l -7 871 b 213 668 58 871 97 856 l 389 383 l 389 182 b 250 42 389 58 372 42 l 250 0 l 661 0 l 661 42 b 517 182 544 42 517 60 l 517 390 l 722 733 b 906 871 792 846 824 864 z "},"Z":{"ha":825,"x_min":0,"x_max":0,"o":"m 788 258 l 744 258 b 506 61 699 104 664 61 l 215 61 l 215 69 l 778 874 l 778 913 l 99 913 l 83 669 l 128 669 b 354 850 156 824 211 850 l 606 850 l 606 839 l 39 40 l 39 0 l 747 0 z "},"À":{"ha":997,"x_min":0,"x_max":0,"o":"m 992 0 l 992 42 b 849 165 917 42 889 74 l 519 919 l 463 919 l 168 222 b 4 42 101 64 82 42 l 4 0 l 296 0 l 296 42 b 203 89 231 42 203 50 b 218 157 203 114 210 135 l 281 304 l 636 304 l 690 179 b 714 93 708 138 714 113 b 618 42 714 44 660 42 l 618 0 z m 615 360 l 301 360 l 458 749 l 463 749 z m 481 1147 l 342 1147 l 342 1118 l 561 969 l 626 969 z "},"Á":{"ha":997,"x_min":0,"x_max":0,"o":"m 992 0 l 992 42 b 849 165 917 42 889 74 l 519 919 l 463 919 l 168 222 b 4 42 101 64 82 42 l 4 0 l 296 0 l 296 42 b 203 89 231 42 203 50 b 218 157 203 114 210 135 l 281 304 l 636 304 l 690 179 b 714 93 708 138 714 113 b 618 42 714 44 660 42 l 618 0 z m 615 360 l 301 360 l 458 749 l 463 749 z m 358 969 l 422 969 l 643 1118 l 643 1147 l 504 1147 z "},"Â":{"ha":997,"x_min":0,"x_max":0,"o":"m 992 0 l 992 42 b 849 165 917 42 889 74 l 519 919 l 463 919 l 168 222 b 4 42 101 64 82 42 l 4 0 l 296 0 l 296 42 b 203 89 231 42 203 50 b 218 157 203 114 210 135 l 281 304 l 636 304 l 690 179 b 714 93 708 138 714 113 b 618 42 714 44 660 42 l 618 0 z m 615 360 l 301 360 l 458 749 l 463 749 z m 696 969 l 543 1161 l 443 1161 l 288 969 l 346 969 l 492 1082 l 640 969 z "},"Ầ":{"ha":997,"x_min":0,"x_max":0,"o":"m 992 0 l 992 42 b 849 165 917 42 889 74 l 519 919 l 463 919 l 168 222 b 4 42 101 64 82 42 l 4 0 l 296 0 l 296 42 b 203 89 231 42 203 50 b 218 157 203 114 210 135 l 281 304 l 636 304 l 690 179 b 714 93 708 138 714 113 b 618 42 714 44 660 42 l 618 0 z m 615 360 l 301 360 l 458 749 l 463 749 z m 696 963 l 543 1147 l 443 1147 l 288 963 l 346 963 l 492 1075 l 640 963 z m 679 1224 l 557 1224 l 557 1194 l 757 1060 l 814 1060 z "},"Ấ":{"ha":997,"x_min":0,"x_max":0,"o":"m 992 0 l 992 42 b 849 165 917 42 889 74 l 519 919 l 463 919 l 168 222 b 4 42 101 64 82 42 l 4 0 l 296 0 l 296 42 b 203 89 231 42 203 50 b 218 157 203 114 210 135 l 281 304 l 636 304 l 690 179 b 714 93 708 138 714 113 b 618 42 714 44 660 42 l 618 0 z m 615 360 l 301 360 l 458 749 l 463 749 z m 696 963 l 543 1147 l 443 1147 l 288 963 l 346 963 l 492 1075 l 640 963 z m 629 1060 l 686 1060 l 886 1194 l 886 1224 l 764 1224 z "},"Ẫ":{"ha":997,"x_min":0,"x_max":0,"o":"m 992 0 l 992 42 b 849 165 917 42 889 74 l 519 919 l 463 919 l 168 222 b 4 42 101 64 82 42 l 4 0 l 296 0 l 296 42 b 203 89 231 42 203 50 b 218 157 203 114 210 135 l 281 304 l 636 304 l 690 179 b 714 93 708 138 714 113 b 618 42 714 44 660 42 l 618 0 z m 615 360 l 301 360 l 458 749 l 463 749 z m 696 963 l 543 1133 l 443 1133 l 288 963 l 346 963 l 492 1061 l 640 963 z m 683 1304 b 603 1249 667 1258 640 1249 b 415 1297 540 1249 497 1297 b 278 1164 349 1297 294 1250 l 313 1164 b 390 1217 326 1206 356 1217 b 575 1167 456 1217 497 1167 b 718 1304 649 1167 696 1204 z "},"Ẩ":{"ha":997,"x_min":0,"x_max":0,"o":"m 992 0 l 992 42 b 849 165 917 42 889 74 l 519 919 l 463 919 l 168 222 b 4 42 101 64 82 42 l 4 0 l 296 0 l 296 42 b 203 89 231 42 203 50 b 218 157 203 114 210 135 l 281 304 l 636 304 l 690 179 b 714 93 708 138 714 113 b 618 42 714 44 660 42 l 618 0 z m 615 360 l 301 360 l 458 749 l 463 749 z m 696 963 l 543 1147 l 443 1147 l 288 963 l 346 963 l 492 1075 l 640 963 z m 693 1060 l 693 1111 b 810 1224 736 1118 810 1142 b 683 1329 810 1281 772 1329 b 560 1263 622 1329 560 1307 b 597 1224 560 1240 574 1224 b 685 1289 643 1224 621 1289 b 726 1226 706 1289 726 1282 b 636 1135 726 1169 707 1136 l 636 1060 z "},"Ậ":{"ha":997,"x_min":0,"x_max":0,"o":"m 992 0 l 992 42 b 849 165 917 42 889 74 l 519 919 l 463 919 l 168 222 b 4 42 101 64 82 42 l 4 0 l 296 0 l 296 42 b 203 89 231 42 203 50 b 218 157 203 114 210 135 l 281 304 l 636 304 l 690 179 b 714 93 708 138 714 113 b 618 42 714 44 660 42 l 618 0 z m 615 360 l 301 360 l 458 749 l 463 749 z m 696 969 l 543 1161 l 443 1161 l 288 969 l 346 969 l 492 1082 l 640 969 z m 467 -94 b 388 -172 418 -94 388 -131 b 467 -251 388 -215 419 -251 b 546 -172 515 -251 546 -215 b 467 -94 546 -131 515 -94 z "},"Ã":{"ha":997,"x_min":0,"x_max":0,"o":"m 992 0 l 992 42 b 849 165 917 42 889 74 l 519 919 l 463 919 l 168 222 b 4 42 101 64 82 42 l 4 0 l 296 0 l 296 42 b 203 89 231 42 203 50 b 218 157 203 114 210 135 l 281 304 l 636 304 l 690 179 b 714 93 708 138 714 113 b 618 42 714 44 660 42 l 618 0 z m 615 360 l 301 360 l 458 749 l 463 749 z m 689 1133 b 607 1076 672 1086 644 1076 b 414 1126 542 1076 497 1126 b 272 989 344 1126 289 1078 l 308 989 b 388 1043 322 1032 353 1043 b 578 992 456 1043 497 992 b 725 1133 654 992 703 1031 z "},"Ä":{"ha":997,"x_min":0,"x_max":0,"o":"m 992 0 l 992 42 b 849 165 917 42 889 74 l 519 919 l 463 919 l 168 222 b 4 42 101 64 82 42 l 4 0 l 296 0 l 296 42 b 203 89 231 42 203 50 b 218 157 203 114 210 135 l 281 304 l 636 304 l 690 179 b 714 93 708 138 714 113 b 618 42 714 44 660 42 l 618 0 z m 615 360 l 301 360 l 458 749 l 463 749 z m 338 1133 b 260 1057 290 1133 260 1097 b 338 981 260 1017 292 981 b 417 1057 386 981 417 1017 b 338 1133 417 1097 386 1133 z m 644 1133 b 567 1057 597 1133 567 1097 b 644 981 567 1017 599 981 b 724 1057 693 981 724 1017 b 644 1133 724 1097 693 1133 z "},"Ǟ":{"ha":997,"x_min":0,"x_max":0,"o":"m 992 0 l 992 42 b 849 165 917 42 889 74 l 519 919 l 463 919 l 168 222 b 4 42 101 64 82 42 l 4 0 l 296 0 l 296 42 b 203 89 231 42 203 50 b 218 157 203 114 210 135 l 281 304 l 636 304 l 690 179 b 714 93 708 138 714 113 b 618 42 714 44 660 42 l 618 0 z m 615 360 l 301 360 l 458 749 l 463 749 z m 338 1119 b 260 1043 290 1119 260 1083 b 338 967 260 1003 292 967 b 417 1043 386 967 417 1003 b 338 1119 417 1083 386 1119 z m 644 1119 b 567 1043 597 1119 567 1083 b 644 967 567 1003 599 967 b 724 1043 693 967 724 1003 b 644 1119 724 1083 693 1119 z m 696 1175 l 696 1249 l 288 1249 l 288 1175 z "},"Ā":{"ha":997,"x_min":0,"x_max":0,"o":"m 992 0 l 992 42 b 849 165 917 42 889 74 l 519 919 l 463 919 l 168 222 b 4 42 101 64 82 42 l 4 0 l 296 0 l 296 42 b 203 89 231 42 203 50 b 218 157 203 114 210 135 l 281 304 l 636 304 l 690 179 b 714 93 708 138 714 113 b 618 42 714 44 660 42 l 618 0 z m 615 360 l 301 360 l 458 749 l 463 749 z m 696 1008 l 696 1082 l 288 1082 l 288 1008 z "},"Ă":{"ha":997,"x_min":0,"x_max":0,"o":"m 992 0 l 992 42 b 849 165 917 42 889 74 l 519 919 l 463 919 l 168 222 b 4 42 101 64 82 42 l 4 0 l 296 0 l 296 42 b 203 89 231 42 203 50 b 218 157 203 114 210 135 l 281 304 l 636 304 l 690 179 b 714 93 708 138 714 113 b 618 42 714 44 660 42 l 618 0 z m 615 360 l 301 360 l 458 749 l 463 749 z m 657 1201 b 492 1078 622 1101 585 1078 b 328 1201 400 1078 354 1101 l 286 1201 b 492 989 292 1057 364 989 b 697 1201 621 989 682 1057 z "},"Ằ":{"ha":997,"x_min":0,"x_max":0,"o":"m 992 0 l 992 42 b 849 165 917 42 889 74 l 519 919 l 463 919 l 168 222 b 4 42 101 64 82 42 l 4 0 l 296 0 l 296 42 b 203 89 231 42 203 50 b 218 157 203 114 210 135 l 281 304 l 636 304 l 690 179 b 714 93 708 138 714 113 b 618 42 714 44 660 42 l 618 0 z m 615 360 l 301 360 l 458 749 l 463 749 z m 657 1188 b 492 1064 622 1088 585 1064 b 328 1188 400 1064 354 1088 l 286 1188 b 492 975 292 1043 364 975 b 697 1188 621 975 682 1043 z m 453 1272 l 333 1272 l 333 1243 l 519 1108 l 576 1108 z "},"Ắ":{"ha":997,"x_min":0,"x_max":0,"o":"m 992 0 l 992 42 b 849 165 917 42 889 74 l 519 919 l 463 919 l 168 222 b 4 42 101 64 82 42 l 4 0 l 296 0 l 296 42 b 203 89 231 42 203 50 b 218 157 203 114 210 135 l 281 304 l 636 304 l 690 179 b 714 93 708 138 714 113 b 618 42 714 44 660 42 l 618 0 z m 615 360 l 301 360 l 458 749 l 463 749 z m 657 1188 b 492 1064 622 1088 585 1064 b 328 1188 400 1064 354 1088 l 286 1188 b 492 975 292 1043 364 975 b 697 1188 621 975 682 1043 z m 407 1108 l 464 1108 l 650 1243 l 650 1272 l 531 1272 z "},"Ẵ":{"ha":997,"x_min":0,"x_max":0,"o":"m 992 0 l 992 42 b 849 165 917 42 889 74 l 519 919 l 463 919 l 168 222 b 4 42 101 64 82 42 l 4 0 l 296 0 l 296 42 b 203 89 231 42 203 50 b 218 157 203 114 210 135 l 281 304 l 636 304 l 690 179 b 714 93 708 138 714 113 b 618 42 714 44 660 42 l 618 0 z m 615 360 l 301 360 l 458 749 l 463 749 z m 654 1178 b 492 1064 621 1085 582 1064 b 331 1178 403 1064 357 1085 l 286 1178 b 492 975 294 1040 367 975 b 696 1178 618 975 679 1040 z m 681 1340 b 601 1286 665 1296 639 1286 b 417 1333 540 1286 499 1333 b 282 1203 351 1333 299 1288 l 317 1203 b 393 1254 329 1243 358 1254 b 575 1206 457 1254 499 1206 b 715 1340 647 1206 693 1242 z "},"Ẳ":{"ha":997,"x_min":0,"x_max":0,"o":"m 992 0 l 992 42 b 849 165 917 42 889 74 l 519 919 l 463 919 l 168 222 b 4 42 101 64 82 42 l 4 0 l 296 0 l 296 42 b 203 89 231 42 203 50 b 218 157 203 114 210 135 l 281 304 l 636 304 l 690 179 b 714 93 708 138 714 113 b 618 42 714 44 660 42 l 618 0 z m 615 360 l 301 360 l 458 749 l 463 749 z m 657 1188 b 492 1064 622 1088 585 1064 b 328 1188 400 1064 354 1088 l 286 1188 b 492 975 292 1043 364 975 b 697 1188 621 975 682 1043 z m 510 1094 l 510 1146 b 626 1258 553 1153 626 1176 b 500 1364 626 1315 589 1364 b 376 1297 439 1364 376 1342 b 414 1258 376 1275 390 1258 b 501 1324 460 1258 438 1324 b 543 1261 522 1324 543 1317 b 453 1169 543 1204 524 1171 l 453 1094 z "},"Ặ":{"ha":997,"x_min":0,"x_max":0,"o":"m 992 0 l 992 42 b 849 165 917 42 889 74 l 519 919 l 463 919 l 168 222 b 4 42 101 64 82 42 l 4 0 l 296 0 l 296 42 b 203 89 231 42 203 50 b 218 157 203 114 210 135 l 281 304 l 636 304 l 690 179 b 714 93 708 138 714 113 b 618 42 714 44 660 42 l 618 0 z m 615 360 l 301 360 l 458 749 l 463 749 z m 467 -94 b 388 -172 418 -94 388 -131 b 467 -251 388 -215 419 -251 b 546 -172 515 -251 546 -215 b 467 -94 546 -131 515 -94 z m 657 1201 b 492 1078 622 1101 585 1078 b 328 1201 400 1078 354 1101 l 286 1201 b 492 989 292 1057 364 989 b 697 1201 621 989 682 1057 z "},"Å":{"ha":997,"x_min":0,"x_max":0,"o":"m 992 0 l 992 42 b 849 165 917 42 889 74 l 519 919 l 463 919 l 168 222 b 4 42 101 64 82 42 l 4 0 l 296 0 l 296 42 b 203 89 231 42 203 50 b 218 157 203 114 210 135 l 281 304 l 636 304 l 690 179 b 714 93 708 138 714 113 b 618 42 714 44 660 42 l 618 0 z m 615 360 l 301 360 l 458 749 l 463 749 z m 633 1103 b 490 1235 633 1183 574 1235 b 349 1103 408 1235 349 1183 b 490 971 349 1017 410 971 b 633 1103 574 971 633 1017 z m 572 1103 b 490 1019 572 1054 547 1019 b 408 1103 436 1019 408 1054 b 490 1186 408 1151 436 1186 b 572 1103 544 1186 572 1151 z "},"Ǻ":{"ha":997,"x_min":0,"x_max":0,"o":"m 992 0 l 992 42 b 849 165 917 42 889 74 l 519 919 l 463 919 l 168 222 b 4 42 101 64 82 42 l 4 0 l 296 0 l 296 42 b 203 89 231 42 203 50 b 218 157 203 114 210 135 l 281 304 l 636 304 l 690 179 b 714 93 708 138 714 113 b 618 42 714 44 660 42 l 618 0 z m 615 360 l 301 360 l 458 749 l 463 749 z m 633 1082 b 490 1214 633 1163 574 1214 b 349 1082 408 1214 349 1163 b 490 950 349 996 410 950 b 633 1082 574 950 633 996 z m 572 1082 b 490 999 572 1033 547 999 b 408 1082 436 999 408 1033 b 490 1165 408 1131 436 1165 b 572 1082 544 1165 572 1131 z m 358 1247 l 422 1247 l 643 1396 l 643 1425 l 504 1425 z "},"Ả":{"ha":997,"x_min":0,"x_max":0,"o":"m 992 0 l 992 42 b 849 165 917 42 889 74 l 519 919 l 463 919 l 168 222 b 4 42 101 64 82 42 l 4 0 l 296 0 l 296 42 b 203 89 231 42 203 50 b 218 157 203 114 210 135 l 281 304 l 636 304 l 690 179 b 714 93 708 138 714 113 b 618 42 714 44 660 42 l 618 0 z m 615 360 l 301 360 l 458 749 l 463 749 z m 515 969 l 515 1024 b 635 1140 558 1031 635 1056 b 506 1249 635 1199 594 1249 b 382 1182 444 1249 382 1226 b 419 1143 382 1160 396 1143 b 507 1208 465 1143 443 1208 b 549 1143 528 1208 549 1201 b 458 1047 549 1083 529 1049 l 458 969 z "},"Ḁ":{"ha":997,"x_min":0,"x_max":0,"o":"m 992 0 l 992 42 b 849 165 917 42 889 74 l 519 919 l 463 919 l 168 222 b 4 42 101 64 82 42 l 4 0 l 296 0 l 296 42 b 203 89 231 42 203 50 b 218 157 203 114 210 135 l 281 304 l 636 304 l 690 179 b 714 93 708 138 714 113 b 618 42 714 44 660 42 l 618 0 z m 615 360 l 301 360 l 458 749 l 463 749 z m 608 -215 b 465 -76 608 -131 547 -76 b 324 -214 385 -76 324 -131 b 465 -353 324 -304 386 -353 b 608 -215 547 -353 608 -304 z m 547 -214 b 465 -301 547 -267 521 -301 b 385 -214 411 -301 385 -267 b 465 -126 385 -164 411 -126 b 547 -214 518 -126 547 -164 z "},"Ạ":{"ha":997,"x_min":0,"x_max":0,"o":"m 992 0 l 992 42 b 849 165 917 42 889 74 l 519 919 l 463 919 l 168 222 b 4 42 101 64 82 42 l 4 0 l 296 0 l 296 42 b 203 89 231 42 203 50 b 218 157 203 114 210 135 l 281 304 l 636 304 l 690 179 b 714 93 708 138 714 113 b 618 42 714 44 660 42 l 618 0 z m 615 360 l 301 360 l 458 749 l 463 749 z m 467 -94 b 388 -172 418 -94 388 -131 b 467 -251 388 -215 419 -251 b 546 -172 515 -251 546 -215 b 467 -94 546 -131 515 -94 z "},"Ą":{"ha":999,"x_min":0,"x_max":0,"o":"m 765 -186 b 649 -229 724 -217 700 -229 b 578 -153 604 -229 578 -204 b 733 0 578 -82 638 0 l 993 0 l 993 42 b 850 165 918 42 890 74 l 521 919 l 464 919 l 181 250 b 6 42 104 67 89 42 l 6 0 l 297 0 l 297 42 b 204 89 232 42 204 50 b 219 157 204 114 211 135 l 282 304 l 638 304 l 679 206 b 715 93 708 143 715 115 b 626 21 715 63 678 47 b 485 -175 575 -6 485 -64 b 608 -300 485 -257 535 -300 b 785 -210 692 -300 732 -264 z m 617 360 l 303 360 l 460 749 l 464 749 z "},"Æ":{"ha":1242,"x_min":0,"x_max":0,"o":"m 1201 258 l 1157 258 b 863 61 1103 92 1078 61 l 701 61 l 701 418 l 846 418 b 1000 294 974 418 1000 406 l 1047 294 l 1047 611 l 1000 611 b 846 472 1000 500 974 472 l 701 472 l 701 850 l 889 850 b 1114 685 1057 850 1094 824 l 1158 685 l 1150 913 l 396 913 l 396 871 b 476 828 451 871 476 865 b 458 769 476 807 468 789 l 133 186 b -31 42 76 82 47 42 l -31 0 l 269 0 l 269 42 b 175 94 204 42 175 51 b 197 165 175 114 185 146 l 336 418 l 574 418 l 574 201 b 439 42 574 60 565 42 l 439 0 l 1161 0 z m 574 472 l 360 472 l 564 850 l 574 850 z "},"Ǽ":{"ha":1242,"x_min":0,"x_max":0,"o":"m 1201 258 l 1157 258 b 863 61 1103 92 1078 61 l 701 61 l 701 418 l 846 418 b 1000 294 974 418 1000 406 l 1047 294 l 1047 611 l 1000 611 b 846 472 1000 500 974 472 l 701 472 l 701 850 l 889 850 b 1114 685 1057 850 1094 824 l 1158 685 l 1150 913 l 396 913 l 396 871 b 476 828 451 871 476 865 b 458 769 476 807 468 789 l 133 186 b -31 42 76 82 47 42 l -31 0 l 269 0 l 269 42 b 175 94 204 42 175 51 b 197 165 175 114 185 146 l 336 418 l 574 418 l 574 201 b 439 42 574 60 565 42 l 439 0 l 1161 0 z m 574 472 l 360 472 l 564 850 l 574 850 z m 647 969 l 711 969 l 932 1118 l 932 1147 l 793 1147 z "},"Ḃ":{"ha":858,"x_min":0,"x_max":0,"o":"m 568 486 b 765 696 683 517 765 572 b 425 913 765 833 672 913 l 50 913 l 50 871 b 185 744 163 871 185 856 l 185 176 b 50 42 185 61 163 42 l 50 0 l 478 0 b 810 246 685 0 810 88 b 568 481 810 397 686 461 z m 313 503 l 313 854 b 396 858 340 857 369 858 b 628 685 565 858 628 793 b 407 503 628 558 575 503 z m 313 444 l 410 444 b 664 243 539 444 664 401 b 413 51 664 67 532 51 b 313 56 379 51 346 53 z m 410 1135 b 332 1057 363 1135 332 1099 b 410 979 332 1015 364 979 b 489 1057 458 979 489 1015 b 410 1135 489 1099 458 1135 z "},"Ḇ":{"ha":858,"x_min":0,"x_max":0,"o":"m 568 486 b 765 696 683 517 765 572 b 425 913 765 833 672 913 l 50 913 l 50 871 b 185 744 163 871 185 856 l 185 176 b 50 42 185 61 163 42 l 50 0 l 478 0 b 810 246 685 0 810 88 b 568 481 810 397 686 461 z m 313 503 l 313 854 b 396 858 340 857 369 858 b 628 685 565 858 628 793 b 407 503 628 558 575 503 z m 313 444 l 410 444 b 664 243 539 444 664 401 b 413 51 664 67 532 51 b 313 56 379 51 346 53 z m 611 -196 l 611 -119 l 208 -119 l 208 -196 z "},"Ḅ":{"ha":858,"x_min":0,"x_max":0,"o":"m 568 486 b 765 696 683 517 765 572 b 425 913 765 833 672 913 l 50 913 l 50 871 b 185 744 163 871 185 856 l 185 176 b 50 42 185 61 163 42 l 50 0 l 478 0 b 810 246 685 0 810 88 b 568 481 810 397 686 461 z m 313 503 l 313 854 b 396 858 340 857 369 858 b 628 685 565 858 628 793 b 407 503 628 558 575 503 z m 313 444 l 410 444 b 664 243 539 444 664 401 b 413 51 664 67 532 51 b 313 56 379 51 346 53 z m 410 -94 b 331 -172 361 -94 331 -131 b 410 -251 331 -215 363 -251 b 489 -172 458 -251 489 -215 b 410 -94 489 -131 458 -94 z "},"Ć":{"ha":931,"x_min":0,"x_max":0,"o":"m 844 207 b 546 72 767 122 674 72 b 214 469 350 72 214 192 b 526 869 214 717 326 869 b 799 611 669 869 768 793 l 846 611 l 846 929 l 804 929 b 757 879 788 901 779 879 b 525 929 722 879 671 929 b 69 456 258 929 69 758 b 506 -15 69 185 219 -15 b 878 178 688 -15 803 65 z m 390 969 l 454 969 l 675 1118 l 675 1147 l 536 1147 z "},"Ĉ":{"ha":931,"x_min":0,"x_max":0,"o":"m 844 207 b 546 72 767 122 674 72 b 214 469 350 72 214 192 b 526 869 214 717 326 869 b 799 611 669 869 768 793 l 846 611 l 846 929 l 804 929 b 757 879 788 901 779 879 b 525 929 722 879 671 929 b 69 456 258 929 69 758 b 506 -15 69 185 219 -15 b 878 178 688 -15 803 65 z m 728 969 l 575 1161 l 475 1161 l 319 969 l 378 969 l 524 1082 l 672 969 z "},"Č":{"ha":931,"x_min":0,"x_max":0,"o":"m 844 207 b 546 72 767 122 674 72 b 214 469 350 72 214 192 b 526 869 214 717 326 869 b 799 611 669 869 768 793 l 846 611 l 846 929 l 804 929 b 757 879 788 901 779 879 b 525 929 722 879 671 929 b 69 456 258 929 69 758 b 506 -15 69 185 219 -15 b 878 178 688 -15 803 65 z m 319 1161 l 475 969 l 574 969 l 728 1161 l 672 1161 l 525 1049 l 378 1161 z "},"Ċ":{"ha":931,"x_min":0,"x_max":0,"o":"m 844 207 b 546 72 767 122 674 72 b 214 469 350 72 214 192 b 526 869 214 717 326 869 b 799 611 669 869 768 793 l 846 611 l 846 929 l 804 929 b 757 879 788 901 779 879 b 525 929 722 879 671 929 b 69 456 258 929 69 758 b 506 -15 69 185 219 -15 b 878 178 688 -15 803 65 z m 524 1135 b 446 1057 476 1135 446 1099 b 524 979 446 1015 478 979 b 603 1057 572 979 603 1015 b 524 1135 603 1099 572 1135 z "},"Ç":{"ha":931,"x_min":0,"x_max":0,"o":"m 844 207 b 546 72 767 122 674 72 b 214 469 350 72 214 192 b 526 869 214 717 326 869 b 799 611 669 869 768 793 l 846 611 l 846 929 l 804 929 b 757 879 788 901 779 879 b 525 929 722 879 671 929 b 69 456 258 929 69 758 b 449 -12 69 203 200 13 l 424 -114 l 443 -129 b 486 -125 443 -129 464 -125 b 546 -183 532 -125 546 -151 b 469 -244 546 -228 517 -244 b 381 -218 435 -244 406 -233 l 367 -250 b 482 -299 397 -274 431 -299 b 626 -178 568 -299 626 -253 b 513 -76 626 -112 583 -76 b 474 -79 490 -76 474 -79 l 488 -14 b 506 -15 493 -14 500 -15 b 878 178 688 -15 803 65 z "},"Ḉ":{"ha":931,"x_min":0,"x_max":0,"o":"m 844 207 b 546 72 767 122 674 72 b 214 469 350 72 214 192 b 526 869 214 717 326 869 b 799 611 669 869 768 793 l 846 611 l 846 929 l 804 929 b 757 879 788 901 779 879 b 525 929 722 879 671 929 b 69 456 258 929 69 758 b 449 -12 69 203 200 13 l 424 -114 l 443 -129 b 486 -125 443 -129 464 -125 b 546 -183 532 -125 546 -151 b 469 -244 546 -228 517 -244 b 381 -218 435 -244 406 -233 l 367 -250 b 482 -299 397 -274 431 -299 b 626 -178 568 -299 626 -253 b 513 -76 626 -112 583 -76 b 474 -79 490 -76 474 -79 l 488 -14 b 506 -15 493 -14 500 -15 b 878 178 688 -15 803 65 z m 390 969 l 454 969 l 675 1118 l 675 1147 l 536 1147 z "},"Ď":{"ha":1014,"x_min":0,"x_max":0,"o":"m 49 913 l 49 871 b 185 754 153 871 185 856 l 185 172 b 49 42 185 60 171 42 l 49 0 l 446 0 b 944 461 746 0 944 142 b 431 913 944 800 719 913 z m 313 853 b 381 856 339 856 358 856 b 799 449 668 856 799 713 b 394 53 799 136 647 53 b 313 57 367 53 340 54 z m 272 1161 l 428 969 l 526 969 l 681 1161 l 625 1161 l 478 1049 l 331 1161 z "},"Ḋ":{"ha":1014,"x_min":0,"x_max":0,"o":"m 49 913 l 49 871 b 185 754 153 871 185 856 l 185 172 b 49 42 185 60 171 42 l 49 0 l 446 0 b 944 461 746 0 944 142 b 431 913 944 800 719 913 z m 313 853 b 381 856 339 856 358 856 b 799 449 668 856 799 713 b 394 53 799 136 647 53 b 313 57 367 53 340 54 z m 476 1135 b 399 1057 429 1135 399 1099 b 476 979 399 1015 431 979 b 556 1057 525 979 556 1015 b 476 1135 556 1099 525 1135 z "},"Ḓ":{"ha":1014,"x_min":0,"x_max":0,"o":"m 49 913 l 49 871 b 185 754 153 871 185 856 l 185 172 b 49 42 185 60 171 42 l 49 0 l 446 0 b 944 461 746 0 944 142 b 431 913 944 800 719 913 z m 313 853 b 381 856 339 856 358 856 b 799 449 668 856 799 713 b 394 53 799 136 647 53 b 313 57 367 53 340 54 z m 643 -282 l 493 -69 l 401 -69 l 251 -282 l 306 -282 l 447 -146 l 590 -282 z "},"Ḏ":{"ha":1014,"x_min":0,"x_max":0,"o":"m 49 913 l 49 871 b 185 754 153 871 185 856 l 185 172 b 49 42 185 60 171 42 l 49 0 l 446 0 b 944 461 746 0 944 142 b 431 913 944 800 719 913 z m 313 853 b 381 856 339 856 358 856 b 799 449 668 856 799 713 b 394 53 799 136 647 53 b 313 57 367 53 340 54 z m 649 -196 l 649 -119 l 246 -119 l 246 -196 z "},"Ḍ":{"ha":1014,"x_min":0,"x_max":0,"o":"m 49 913 l 49 871 b 185 754 153 871 185 856 l 185 172 b 49 42 185 60 171 42 l 49 0 l 446 0 b 944 461 746 0 944 142 b 431 913 944 800 719 913 z m 313 853 b 381 856 339 856 358 856 b 799 449 668 856 799 713 b 394 53 799 136 647 53 b 313 57 367 53 340 54 z m 447 -94 b 368 -172 399 -94 368 -131 b 447 -251 368 -215 400 -251 b 526 -172 496 -251 526 -215 b 447 -94 526 -131 496 -94 z "},"Ḑ":{"ha":1014,"x_min":0,"x_max":0,"o":"m 49 913 l 49 871 b 185 754 153 871 185 856 l 185 172 b 49 42 185 60 171 42 l 49 0 l 446 0 b 944 461 746 0 944 142 b 431 913 944 800 719 913 z m 313 853 b 381 856 339 856 358 856 b 799 449 668 856 799 713 b 394 53 799 136 647 53 b 313 57 367 53 340 54 z m 378 -385 b 542 -192 435 -365 542 -326 b 444 -74 542 -119 511 -74 b 360 -153 386 -74 360 -108 b 429 -225 360 -199 389 -225 b 472 -217 443 -225 457 -222 b 364 -350 472 -297 414 -332 z "},"Đ":{"ha":1018,"x_min":0,"x_max":0,"o":"m 49 429 l 185 429 l 185 172 b 49 42 185 60 169 42 l 49 0 l 446 0 b 946 457 746 0 946 138 b 431 913 946 796 719 913 l 49 913 l 49 871 b 185 754 151 871 185 856 l 185 496 l 49 496 z m 313 853 b 381 856 340 856 357 856 b 793 444 668 856 793 714 b 394 53 793 139 647 53 b 313 57 367 53 340 54 l 313 429 l 550 429 l 550 496 l 313 496 z "},"È":{"ha":869,"x_min":0,"x_max":0,"o":"m 831 258 l 786 258 b 492 61 732 93 707 60 l 313 61 l 313 443 l 475 443 b 631 314 603 443 631 428 l 675 314 l 675 636 l 631 636 b 475 497 631 524 603 497 l 313 497 l 313 850 l 517 850 b 743 685 688 850 722 824 l 788 685 l 779 913 l 50 913 l 50 871 b 185 743 163 871 185 849 l 185 164 b 50 42 185 56 163 42 l 50 0 l 792 0 z m 433 1147 l 294 1147 l 294 1118 l 514 969 l 579 969 z "},"É":{"ha":869,"x_min":0,"x_max":0,"o":"m 831 258 l 786 258 b 492 61 732 93 707 60 l 313 61 l 313 443 l 475 443 b 631 314 603 443 631 428 l 675 314 l 675 636 l 631 636 b 475 497 631 524 603 497 l 313 497 l 313 850 l 517 850 b 743 685 688 850 722 824 l 788 685 l 779 913 l 50 913 l 50 871 b 185 743 163 871 185 849 l 185 164 b 50 42 185 56 163 42 l 50 0 l 792 0 z m 311 969 l 375 969 l 596 1118 l 596 1147 l 457 1147 z "},"Ê":{"ha":869,"x_min":0,"x_max":0,"o":"m 831 258 l 786 258 b 492 61 732 93 707 60 l 313 61 l 313 443 l 475 443 b 631 314 603 443 631 428 l 675 314 l 675 636 l 631 636 b 475 497 631 524 603 497 l 313 497 l 313 850 l 517 850 b 743 685 688 850 722 824 l 788 685 l 779 913 l 50 913 l 50 871 b 185 743 163 871 185 849 l 185 164 b 50 42 185 56 163 42 l 50 0 l 792 0 z m 649 969 l 496 1161 l 396 1161 l 240 969 l 299 969 l 444 1082 l 593 969 z "},"Ề":{"ha":869,"x_min":0,"x_max":0,"o":"m 831 258 l 786 258 b 492 61 732 93 707 60 l 313 61 l 313 443 l 475 443 b 631 314 603 443 631 428 l 675 314 l 675 636 l 631 636 b 475 497 631 524 603 497 l 313 497 l 313 850 l 517 850 b 743 685 688 850 722 824 l 788 685 l 779 913 l 50 913 l 50 871 b 185 743 163 871 185 849 l 185 164 b 50 42 185 56 163 42 l 50 0 l 792 0 z m 649 963 l 496 1147 l 396 1147 l 240 963 l 299 963 l 444 1075 l 593 963 z m 632 1224 l 510 1224 l 510 1194 l 710 1060 l 767 1060 z "},"Ế":{"ha":869,"x_min":0,"x_max":0,"o":"m 831 258 l 786 258 b 492 61 732 93 707 60 l 313 61 l 313 443 l 475 443 b 631 314 603 443 631 428 l 675 314 l 675 636 l 631 636 b 475 497 631 524 603 497 l 313 497 l 313 850 l 517 850 b 743 685 688 850 722 824 l 788 685 l 779 913 l 50 913 l 50 871 b 185 743 163 871 185 849 l 185 164 b 50 42 185 56 163 42 l 50 0 l 792 0 z m 649 963 l 496 1147 l 396 1147 l 240 963 l 299 963 l 444 1075 l 593 963 z m 582 1060 l 639 1060 l 839 1194 l 839 1224 l 717 1224 z "},"Ễ":{"ha":869,"x_min":0,"x_max":0,"o":"m 831 258 l 786 258 b 492 61 732 93 707 60 l 313 61 l 313 443 l 475 443 b 631 314 603 443 631 428 l 675 314 l 675 636 l 631 636 b 475 497 631 524 603 497 l 313 497 l 313 850 l 517 850 b 743 685 688 850 722 824 l 788 685 l 779 913 l 50 913 l 50 871 b 185 743 163 871 185 849 l 185 164 b 50 42 185 56 163 42 l 50 0 l 792 0 z m 649 963 l 496 1133 l 396 1133 l 240 963 l 299 963 l 444 1061 l 593 963 z m 636 1304 b 556 1249 619 1258 593 1249 b 368 1297 493 1249 450 1297 b 231 1164 301 1297 247 1250 l 265 1164 b 343 1217 279 1206 308 1217 b 528 1167 408 1217 450 1167 b 671 1304 601 1167 649 1204 z "},"Ể":{"ha":869,"x_min":0,"x_max":0,"o":"m 831 258 l 786 258 b 492 61 732 93 707 60 l 313 61 l 313 443 l 475 443 b 631 314 603 443 631 428 l 675 314 l 675 636 l 631 636 b 475 497 631 524 603 497 l 313 497 l 313 850 l 517 850 b 743 685 688 850 722 824 l 788 685 l 779 913 l 50 913 l 50 871 b 185 743 163 871 185 849 l 185 164 b 50 42 185 56 163 42 l 50 0 l 792 0 z m 649 963 l 496 1147 l 396 1147 l 240 963 l 299 963 l 444 1075 l 593 963 z m 646 1060 l 646 1111 b 763 1224 689 1118 763 1142 b 636 1329 763 1281 725 1329 b 513 1263 575 1329 513 1307 b 550 1224 513 1240 526 1224 b 638 1289 596 1224 574 1289 b 679 1226 658 1289 679 1282 b 589 1135 679 1169 660 1136 l 589 1060 z "},"Ệ":{"ha":869,"x_min":0,"x_max":0,"o":"m 831 258 l 786 258 b 492 61 732 93 707 60 l 313 61 l 313 443 l 475 443 b 631 314 603 443 631 428 l 675 314 l 675 636 l 631 636 b 475 497 631 524 603 497 l 313 497 l 313 850 l 517 850 b 743 685 688 850 722 824 l 788 685 l 779 913 l 50 913 l 50 871 b 185 743 163 871 185 849 l 185 164 b 50 42 185 56 163 42 l 50 0 l 792 0 z m 649 969 l 496 1161 l 396 1161 l 240 969 l 299 969 l 444 1082 l 593 969 z m 444 -94 b 365 -172 396 -94 365 -131 b 444 -251 365 -215 397 -251 b 524 -172 493 -251 524 -215 b 444 -94 524 -131 493 -94 z "},"Ě":{"ha":869,"x_min":0,"x_max":0,"o":"m 831 258 l 786 258 b 492 61 732 93 707 60 l 313 61 l 313 443 l 475 443 b 631 314 603 443 631 428 l 675 314 l 675 636 l 631 636 b 475 497 631 524 603 497 l 313 497 l 313 850 l 517 850 b 743 685 688 850 722 824 l 788 685 l 779 913 l 50 913 l 50 871 b 185 743 163 871 185 849 l 185 164 b 50 42 185 56 163 42 l 50 0 l 792 0 z m 240 1161 l 396 969 l 494 969 l 649 1161 l 593 1161 l 446 1049 l 299 1161 z "},"Ẽ":{"ha":869,"x_min":0,"x_max":0,"o":"m 831 258 l 786 258 b 492 61 732 93 707 60 l 313 61 l 313 443 l 475 443 b 631 314 603 443 631 428 l 675 314 l 675 636 l 631 636 b 475 497 631 524 603 497 l 313 497 l 313 850 l 517 850 b 743 685 688 850 722 824 l 788 685 l 779 913 l 50 913 l 50 871 b 185 743 163 871 185 849 l 185 164 b 50 42 185 56 163 42 l 50 0 l 792 0 z m 642 1133 b 560 1076 625 1086 597 1076 b 367 1126 494 1076 450 1126 b 225 989 297 1126 242 1078 l 261 989 b 340 1043 275 1032 306 1043 b 531 992 408 1043 450 992 b 678 1133 607 992 656 1031 z "},"Ë":{"ha":869,"x_min":0,"x_max":0,"o":"m 831 258 l 786 258 b 492 61 732 93 707 60 l 313 61 l 313 443 l 475 443 b 631 314 603 443 631 428 l 675 314 l 675 636 l 631 636 b 475 497 631 524 603 497 l 313 497 l 313 850 l 517 850 b 743 685 688 850 722 824 l 788 685 l 779 913 l 50 913 l 50 871 b 185 743 163 871 185 849 l 185 164 b 50 42 185 56 163 42 l 50 0 l 792 0 z m 290 1133 b 213 1057 243 1133 213 1097 b 290 981 213 1017 244 981 b 369 1057 339 981 369 1017 b 290 1133 369 1097 339 1133 z m 597 1133 b 519 1057 550 1133 519 1097 b 597 981 519 1017 551 981 b 676 1057 646 981 676 1017 b 597 1133 676 1097 646 1133 z "},"Ē":{"ha":869,"x_min":0,"x_max":0,"o":"m 831 258 l 786 258 b 492 61 732 93 707 60 l 313 61 l 313 443 l 475 443 b 631 314 603 443 631 428 l 675 314 l 675 636 l 631 636 b 475 497 631 524 603 497 l 313 497 l 313 850 l 517 850 b 743 685 688 850 722 824 l 788 685 l 779 913 l 50 913 l 50 871 b 185 743 163 871 185 849 l 185 164 b 50 42 185 56 163 42 l 50 0 l 792 0 z m 649 1008 l 649 1082 l 240 1082 l 240 1008 z "},"Ḕ":{"ha":869,"x_min":0,"x_max":0,"o":"m 831 258 l 786 258 b 492 61 732 93 707 60 l 313 61 l 313 443 l 475 443 b 631 314 603 443 631 428 l 675 314 l 675 636 l 631 636 b 475 497 631 524 603 497 l 313 497 l 313 850 l 517 850 b 743 685 688 850 722 824 l 788 685 l 779 913 l 50 913 l 50 871 b 185 743 163 871 185 849 l 185 164 b 50 42 185 56 163 42 l 50 0 l 792 0 z m 649 994 l 649 1068 l 240 1068 l 240 994 z m 433 1300 l 294 1300 l 294 1271 l 514 1122 l 579 1122 z "},"Ḗ":{"ha":869,"x_min":0,"x_max":0,"o":"m 831 258 l 786 258 b 492 61 732 93 707 60 l 313 61 l 313 443 l 475 443 b 631 314 603 443 631 428 l 675 314 l 675 636 l 631 636 b 475 497 631 524 603 497 l 313 497 l 313 850 l 517 850 b 743 685 688 850 722 824 l 788 685 l 779 913 l 50 913 l 50 871 b 185 743 163 871 185 849 l 185 164 b 50 42 185 56 163 42 l 50 0 l 792 0 z m 649 994 l 649 1068 l 240 1068 l 240 994 z m 311 1122 l 375 1122 l 596 1271 l 596 1300 l 457 1300 z "},"Ĕ":{"ha":869,"x_min":0,"x_max":0,"o":"m 831 258 l 786 258 b 492 61 732 93 707 60 l 313 61 l 313 443 l 475 443 b 631 314 603 443 631 428 l 675 314 l 675 636 l 631 636 b 475 497 631 524 603 497 l 313 497 l 313 850 l 517 850 b 743 685 688 850 722 824 l 788 685 l 779 913 l 50 913 l 50 871 b 185 743 163 871 185 849 l 185 164 b 50 42 185 56 163 42 l 50 0 l 792 0 z m 610 1201 b 444 1078 575 1101 538 1078 b 281 1201 353 1078 307 1101 l 239 1201 b 444 989 244 1057 317 989 b 650 1201 574 989 635 1057 z "},"Ė":{"ha":869,"x_min":0,"x_max":0,"o":"m 831 258 l 786 258 b 492 61 732 93 707 60 l 313 61 l 313 443 l 475 443 b 631 314 603 443 631 428 l 675 314 l 675 636 l 631 636 b 475 497 631 524 603 497 l 313 497 l 313 850 l 517 850 b 743 685 688 850 722 824 l 788 685 l 779 913 l 50 913 l 50 871 b 185 743 163 871 185 849 l 185 164 b 50 42 185 56 163 42 l 50 0 l 792 0 z m 444 1135 b 367 1057 397 1135 367 1099 b 444 979 367 1015 399 979 b 524 1057 493 979 524 1015 b 444 1135 524 1099 493 1135 z "},"Ẻ":{"ha":869,"x_min":0,"x_max":0,"o":"m 831 258 l 786 258 b 492 61 732 93 707 60 l 313 61 l 313 443 l 475 443 b 631 314 603 443 631 428 l 675 314 l 675 636 l 631 636 b 475 497 631 524 603 497 l 313 497 l 313 850 l 517 850 b 743 685 688 850 722 824 l 788 685 l 779 913 l 50 913 l 50 871 b 185 743 163 871 185 849 l 185 164 b 50 42 185 56 163 42 l 50 0 l 792 0 z m 468 969 l 468 1024 b 588 1140 511 1031 588 1056 b 458 1249 588 1199 547 1249 b 335 1182 397 1249 335 1226 b 372 1143 335 1160 349 1143 b 460 1208 418 1143 396 1208 b 501 1143 481 1208 501 1201 b 411 1047 501 1083 482 1049 l 411 969 z "},"Ḙ":{"ha":869,"x_min":0,"x_max":0,"o":"m 831 258 l 786 258 b 492 61 732 93 707 60 l 313 61 l 313 443 l 475 443 b 631 314 603 443 631 428 l 675 314 l 675 636 l 631 636 b 475 497 631 524 603 497 l 313 497 l 313 850 l 517 850 b 743 685 688 850 722 824 l 788 685 l 779 913 l 50 913 l 50 871 b 185 743 163 871 185 849 l 185 164 b 50 42 185 56 163 42 l 50 0 l 792 0 z m 640 -282 l 490 -69 l 399 -69 l 249 -282 l 303 -282 l 444 -146 l 588 -282 z "},"Ḛ":{"ha":869,"x_min":0,"x_max":0,"o":"m 831 258 l 786 258 b 492 61 732 93 707 60 l 313 61 l 313 443 l 475 443 b 631 314 603 443 631 428 l 675 314 l 675 636 l 631 636 b 475 497 631 524 603 497 l 313 497 l 313 850 l 517 850 b 743 685 688 850 722 824 l 788 685 l 779 913 l 50 913 l 50 871 b 185 743 163 871 185 849 l 185 164 b 50 42 185 56 163 42 l 50 0 l 792 0 z m 624 -69 b 543 -135 607 -122 575 -135 b 354 -75 476 -135 435 -75 b 214 -221 285 -75 229 -128 l 251 -221 b 328 -157 264 -171 294 -157 b 513 -217 394 -157 436 -217 b 660 -69 590 -217 639 -176 z "},"Ẹ":{"ha":869,"x_min":0,"x_max":0,"o":"m 831 258 l 786 258 b 492 61 732 93 707 60 l 313 61 l 313 443 l 475 443 b 631 314 603 443 631 428 l 675 314 l 675 636 l 631 636 b 475 497 631 524 603 497 l 313 497 l 313 850 l 517 850 b 743 685 688 850 722 824 l 788 685 l 779 913 l 50 913 l 50 871 b 185 743 163 871 185 849 l 185 164 b 50 42 185 56 163 42 l 50 0 l 792 0 z m 444 -94 b 365 -172 396 -94 365 -131 b 444 -251 365 -215 397 -251 b 524 -172 493 -251 524 -215 b 444 -94 524 -131 493 -94 z "},"Ȩ":{"ha":869,"x_min":0,"x_max":0,"o":"m 831 258 l 786 258 b 492 61 732 93 707 60 l 313 61 l 313 443 l 475 443 b 631 314 603 443 631 428 l 675 314 l 675 636 l 631 636 b 475 497 631 524 603 497 l 313 497 l 313 850 l 517 850 b 743 685 688 850 722 824 l 788 685 l 779 913 l 50 913 l 50 871 b 185 743 163 871 185 849 l 185 164 b 50 42 185 56 163 42 l 50 0 l 408 0 l 381 -114 l 400 -129 b 443 -125 400 -129 421 -125 b 503 -183 489 -125 503 -151 b 426 -244 503 -228 474 -244 b 338 -218 392 -244 363 -233 l 324 -250 b 439 -299 354 -274 388 -299 b 583 -178 525 -299 583 -253 b 469 -76 583 -112 540 -76 b 431 -79 447 -76 431 -79 l 449 0 l 792 0 z "},"Ḝ":{"ha":869,"x_min":0,"x_max":0,"o":"m 831 258 l 786 258 b 492 61 732 93 707 60 l 313 61 l 313 443 l 475 443 b 631 314 603 443 631 428 l 675 314 l 675 636 l 631 636 b 475 497 631 524 603 497 l 313 497 l 313 850 l 517 850 b 743 685 688 850 722 824 l 788 685 l 779 913 l 50 913 l 50 871 b 185 743 163 871 185 849 l 185 164 b 50 42 185 56 163 42 l 50 0 l 408 0 l 381 -114 l 400 -129 b 443 -125 400 -129 421 -125 b 503 -183 489 -125 503 -151 b 426 -244 503 -228 474 -244 b 338 -218 392 -244 363 -233 l 324 -250 b 439 -299 354 -274 388 -299 b 583 -178 525 -299 583 -253 b 469 -76 583 -112 540 -76 b 431 -79 447 -76 431 -79 l 449 0 l 792 0 z m 610 1201 b 444 1078 575 1101 538 1078 b 281 1201 353 1078 307 1101 l 239 1201 b 444 989 244 1057 317 989 b 650 1201 574 989 635 1057 z "},"Ę":{"ha":868,"x_min":0,"x_max":0,"o":"m 807 -186 b 690 -229 767 -217 742 -229 b 619 -153 646 -229 619 -204 b 725 0 619 -82 676 -37 l 790 0 l 829 258 l 786 258 b 490 61 732 93 707 60 l 311 61 l 311 443 l 474 443 b 629 314 601 443 629 428 l 674 314 l 674 636 l 629 636 b 474 497 629 524 601 497 l 311 497 l 311 850 l 517 850 b 742 685 686 850 721 824 l 786 685 l 779 913 l 50 913 l 50 871 b 185 743 161 871 185 849 l 185 164 b 50 42 185 56 163 42 l 50 0 l 661 0 l 661 -3 b 525 -186 608 -43 525 -108 b 650 -300 525 -256 576 -300 b 828 -210 733 -300 774 -264 z "},"Ḟ":{"ha":817,"x_min":0,"x_max":0,"o":"m 797 685 l 789 913 l 50 913 l 50 871 b 185 756 150 871 185 851 l 185 161 b 50 42 185 58 163 42 l 50 0 l 457 0 l 457 42 b 313 153 349 42 313 58 l 313 444 l 476 444 b 624 314 596 444 624 426 l 671 314 l 671 636 l 624 636 b 476 499 624 524 596 499 l 313 499 l 313 850 l 533 850 b 753 685 715 850 728 817 z m 451 1135 b 374 1057 404 1135 374 1099 b 451 979 374 1015 406 979 b 531 1057 500 979 531 1015 b 451 1135 531 1099 500 1135 z "},"Ĝ":{"ha":1000,"x_min":0,"x_max":0,"o":"m 951 431 l 608 431 l 608 386 b 731 267 714 386 731 367 l 731 117 b 533 47 675 75 619 47 b 214 469 335 47 214 186 b 524 869 214 715 328 869 b 800 611 671 869 768 796 l 847 611 l 847 929 l 807 929 b 757 879 789 899 781 879 b 522 929 722 879 675 929 b 69 453 261 929 69 761 b 514 -15 69 156 219 -15 b 857 79 667 -15 757 21 l 857 281 b 951 386 857 367 874 386 z m 726 969 l 574 1161 l 474 1161 l 318 969 l 376 969 l 522 1082 l 671 969 z "},"Ḡ":{"ha":1000,"x_min":0,"x_max":0,"o":"m 951 431 l 608 431 l 608 386 b 731 267 714 386 731 367 l 731 117 b 533 47 675 75 619 47 b 214 469 335 47 214 186 b 524 869 214 715 328 869 b 800 611 671 869 768 796 l 847 611 l 847 929 l 807 929 b 757 879 789 899 781 879 b 522 929 722 879 675 929 b 69 453 261 929 69 761 b 514 -15 69 156 219 -15 b 857 79 667 -15 757 21 l 857 281 b 951 386 857 367 874 386 z m 726 1008 l 726 1082 l 318 1082 l 318 1008 z "},"Ğ":{"ha":1000,"x_min":0,"x_max":0,"o":"m 951 431 l 608 431 l 608 386 b 731 267 714 386 731 367 l 731 117 b 533 47 675 75 619 47 b 214 469 335 47 214 186 b 524 869 214 715 328 869 b 800 611 671 869 768 796 l 847 611 l 847 929 l 807 929 b 757 879 789 899 781 879 b 522 929 722 879 675 929 b 69 453 261 929 69 761 b 514 -15 69 156 219 -15 b 857 79 667 -15 757 21 l 857 281 b 951 386 857 367 874 386 z m 688 1201 b 522 1078 653 1101 615 1078 b 358 1201 431 1078 385 1101 l 317 1201 b 522 989 322 1057 394 989 b 728 1201 651 989 713 1057 z "},"Ġ":{"ha":1000,"x_min":0,"x_max":0,"o":"m 951 431 l 608 431 l 608 386 b 731 267 714 386 731 367 l 731 117 b 533 47 675 75 619 47 b 214 469 335 47 214 186 b 524 869 214 715 328 869 b 800 611 671 869 768 796 l 847 611 l 847 929 l 807 929 b 757 879 789 899 781 879 b 522 929 722 879 675 929 b 69 453 261 929 69 761 b 514 -15 69 156 219 -15 b 857 79 667 -15 757 21 l 857 281 b 951 386 857 367 874 386 z m 522 1135 b 444 1057 475 1135 444 1099 b 522 979 444 1015 476 979 b 601 1057 571 979 601 1015 b 522 1135 601 1099 571 1135 z "},"Ģ":{"ha":1000,"x_min":0,"x_max":0,"o":"m 951 431 l 608 431 l 608 386 b 731 267 714 386 731 367 l 731 117 b 533 47 675 75 619 47 b 214 469 335 47 214 186 b 524 869 214 715 328 869 b 800 611 671 869 768 796 l 847 611 l 847 929 l 807 929 b 757 879 789 899 781 879 b 522 929 722 879 675 929 b 69 453 261 929 69 761 b 514 -15 69 156 219 -15 b 857 79 667 -15 757 21 l 857 281 b 951 386 857 367 874 386 z m 431 -385 b 594 -192 488 -365 594 -326 b 497 -74 594 -119 564 -74 b 413 -153 439 -74 413 -108 b 482 -225 413 -199 442 -225 b 525 -217 496 -225 510 -222 b 417 -350 525 -297 467 -332 z "},"Ĥ":{"ha":1079,"x_min":0,"x_max":0,"o":"m 313 729 b 449 871 313 838 317 871 l 449 913 l 50 913 l 50 871 b 185 729 178 871 185 838 l 185 182 b 50 42 185 58 175 42 l 50 0 l 449 0 l 449 42 b 313 182 324 42 313 60 l 313 442 l 768 442 l 768 182 b 633 42 768 61 757 42 l 633 0 l 1031 0 l 1031 42 b 894 182 904 42 894 61 l 894 729 b 1031 871 894 839 899 871 l 1031 913 l 633 913 l 633 871 b 768 729 761 871 768 838 l 768 496 l 313 496 z m 746 969 l 593 1161 l 493 1161 l 338 969 l 396 969 l 542 1082 l 690 969 z "},"Ḧ":{"ha":1079,"x_min":0,"x_max":0,"o":"m 313 729 b 449 871 313 838 317 871 l 449 913 l 50 913 l 50 871 b 185 729 178 871 185 838 l 185 182 b 50 42 185 58 175 42 l 50 0 l 449 0 l 449 42 b 313 182 324 42 313 60 l 313 442 l 768 442 l 768 182 b 633 42 768 61 757 42 l 633 0 l 1031 0 l 1031 42 b 894 182 904 42 894 61 l 894 729 b 1031 871 894 839 899 871 l 1031 913 l 633 913 l 633 871 b 768 729 761 871 768 838 l 768 496 l 313 496 z m 388 1133 b 310 1057 340 1133 310 1097 b 388 981 310 1017 342 981 b 467 1057 436 981 467 1017 b 388 1133 467 1097 436 1133 z m 694 1133 b 617 1057 647 1133 617 1097 b 694 981 617 1017 649 981 b 774 1057 743 981 774 1017 b 694 1133 774 1097 743 1133 z "},"Ḣ":{"ha":1079,"x_min":0,"x_max":0,"o":"m 313 729 b 449 871 313 838 317 871 l 449 913 l 50 913 l 50 871 b 185 729 178 871 185 838 l 185 182 b 50 42 185 58 175 42 l 50 0 l 449 0 l 449 42 b 313 182 324 42 313 60 l 313 442 l 768 442 l 768 182 b 633 42 768 61 757 42 l 633 0 l 1031 0 l 1031 42 b 894 182 904 42 894 61 l 894 729 b 1031 871 894 839 899 871 l 1031 913 l 633 913 l 633 871 b 768 729 761 871 768 838 l 768 496 l 313 496 z m 542 1135 b 464 1057 494 1135 464 1099 b 542 979 464 1015 496 979 b 621 1057 590 979 621 1015 b 542 1135 621 1099 590 1135 z "},"Ḫ":{"ha":1079,"x_min":0,"x_max":0,"o":"m 313 729 b 449 871 313 838 317 871 l 449 913 l 50 913 l 50 871 b 185 729 178 871 185 838 l 185 182 b 50 42 185 58 175 42 l 50 0 l 449 0 l 449 42 b 313 182 324 42 313 60 l 313 442 l 768 442 l 768 182 b 633 42 768 61 757 42 l 633 0 l 1031 0 l 1031 42 b 894 182 904 42 894 61 l 894 729 b 1031 871 894 839 899 871 l 1031 913 l 633 913 l 633 871 b 768 729 761 871 768 838 l 768 496 l 313 496 z m 703 -69 b 542 -196 668 -176 635 -196 b 379 -69 450 -196 406 -176 l 338 -69 b 542 -283 343 -217 413 -283 b 744 -69 669 -283 729 -217 z "},"Ḥ":{"ha":1079,"x_min":0,"x_max":0,"o":"m 313 729 b 449 871 313 838 317 871 l 449 913 l 50 913 l 50 871 b 185 729 178 871 185 838 l 185 182 b 50 42 185 58 175 42 l 50 0 l 449 0 l 449 42 b 313 182 324 42 313 60 l 313 442 l 768 442 l 768 182 b 633 42 768 61 757 42 l 633 0 l 1031 0 l 1031 42 b 894 182 904 42 894 61 l 894 729 b 1031 871 894 839 899 871 l 1031 913 l 633 913 l 633 871 b 768 729 761 871 768 838 l 768 496 l 313 496 z m 542 -94 b 463 -172 493 -94 463 -131 b 542 -251 463 -215 494 -251 b 621 -172 590 -251 621 -215 b 542 -94 621 -131 590 -94 z "},"Ḩ":{"ha":1079,"x_min":0,"x_max":0,"o":"m 313 729 b 449 871 313 838 317 871 l 449 913 l 50 913 l 50 871 b 185 729 178 871 185 838 l 185 182 b 50 42 185 58 175 42 l 50 0 l 206 0 l 178 -114 l 197 -129 b 240 -125 197 -129 218 -125 b 300 -183 286 -125 300 -151 b 224 -244 300 -228 271 -244 b 135 -218 189 -244 160 -233 l 121 -250 b 236 -299 151 -274 185 -299 b 381 -178 322 -299 381 -253 b 267 -76 381 -112 338 -76 b 228 -79 244 -76 228 -79 l 246 0 l 449 0 l 449 42 b 313 182 324 42 313 60 l 313 442 l 768 442 l 768 182 b 633 42 768 61 757 42 l 633 0 l 1031 0 l 1031 42 b 894 182 904 42 894 61 l 894 729 b 1031 871 894 839 899 871 l 1031 913 l 633 913 l 633 871 b 768 729 761 871 768 838 l 768 496 l 313 496 z "},"Ħ":{"ha":1094,"x_min":0,"x_max":0,"o":"m 319 729 b 456 871 319 838 324 871 l 456 913 l 57 913 l 57 871 b 192 729 185 871 192 838 l 192 688 l 57 688 l 57 633 l 192 633 l 192 182 b 57 42 192 58 182 42 l 57 0 l 456 0 l 456 42 b 319 182 331 42 319 60 l 319 436 l 775 436 l 775 182 b 640 42 775 61 764 42 l 640 0 l 1039 0 l 1039 42 b 903 182 913 42 903 61 l 903 633 l 1038 633 l 1038 688 l 903 688 l 903 729 b 1039 871 903 839 906 871 l 1039 913 l 640 913 l 640 871 b 775 729 768 871 775 838 l 775 688 l 319 688 z m 319 490 l 319 633 l 775 633 l 775 490 z "},"Ì":{"ha":496,"x_min":0,"x_max":0,"o":"m 185 182 b 47 42 185 63 172 42 l 47 0 l 447 0 l 447 42 b 311 182 324 42 311 63 l 311 729 b 447 871 311 838 315 871 l 447 913 l 47 913 l 47 871 b 185 729 179 871 185 838 z m 238 1147 l 99 1147 l 99 1118 l 318 969 l 383 969 z "},"Í":{"ha":496,"x_min":0,"x_max":0,"o":"m 185 182 b 47 42 185 63 172 42 l 47 0 l 447 0 l 447 42 b 311 182 324 42 311 63 l 311 729 b 447 871 311 838 315 871 l 447 913 l 47 913 l 47 871 b 185 729 179 871 185 838 z m 115 969 l 179 969 l 400 1118 l 400 1147 l 261 1147 z "},"Î":{"ha":496,"x_min":0,"x_max":0,"o":"m 185 182 b 47 42 185 63 172 42 l 47 0 l 447 0 l 447 42 b 311 182 324 42 311 63 l 311 729 b 447 871 311 838 315 871 l 447 913 l 47 913 l 47 871 b 185 729 179 871 185 838 z m 453 969 l 300 1161 l 200 1161 l 44 969 l 103 969 l 249 1082 l 397 969 z "},"Ĩ":{"ha":496,"x_min":0,"x_max":0,"o":"m 185 182 b 47 42 185 63 172 42 l 47 0 l 447 0 l 447 42 b 311 182 324 42 311 63 l 311 729 b 447 871 311 838 315 871 l 447 913 l 47 913 l 47 871 b 185 729 179 871 185 838 z m 446 1133 b 364 1076 429 1086 401 1076 b 171 1126 299 1076 254 1126 b 29 989 101 1126 46 1078 l 65 989 b 144 1043 79 1032 110 1043 b 335 992 213 1043 254 992 b 482 1133 411 992 460 1031 z "},"Ï":{"ha":496,"x_min":0,"x_max":0,"o":"m 185 182 b 47 42 185 63 172 42 l 47 0 l 447 0 l 447 42 b 311 182 324 42 311 63 l 311 729 b 447 871 311 838 315 871 l 447 913 l 47 913 l 47 871 b 185 729 179 871 185 838 z m 94 1133 b 17 1057 47 1133 17 1097 b 94 981 17 1017 49 981 b 174 1057 143 981 174 1017 b 94 1133 174 1097 143 1133 z m 401 1133 b 324 1057 354 1133 324 1097 b 401 981 324 1017 356 981 b 481 1057 450 981 481 1017 b 401 1133 481 1097 450 1133 z "},"Ḯ":{"ha":496,"x_min":0,"x_max":0,"o":"m 185 182 b 47 42 185 63 172 42 l 47 0 l 447 0 l 447 42 b 311 182 324 42 311 63 l 311 729 b 447 871 311 838 315 871 l 447 913 l 47 913 l 47 871 b 185 729 179 871 185 838 z m 96 1119 b 18 1043 49 1119 18 1083 b 96 967 18 1003 50 967 b 175 1043 144 967 175 1003 b 96 1119 175 1083 144 1119 z m 403 1119 b 325 1043 356 1119 325 1083 b 403 967 325 1003 357 967 b 482 1043 451 967 482 1003 b 403 1119 482 1083 451 1119 z m 117 1164 l 181 1164 l 401 1313 l 401 1342 l 263 1342 z "},"Ī":{"ha":496,"x_min":0,"x_max":0,"o":"m 185 182 b 47 42 185 63 172 42 l 47 0 l 447 0 l 447 42 b 311 182 324 42 311 63 l 311 729 b 447 871 311 838 315 871 l 447 913 l 47 913 l 47 871 b 185 729 179 871 185 838 z m 453 1008 l 453 1082 l 44 1082 l 44 1008 z "},"Ĭ":{"ha":496,"x_min":0,"x_max":0,"o":"m 185 182 b 47 42 185 63 172 42 l 47 0 l 447 0 l 447 42 b 311 182 324 42 311 63 l 311 729 b 447 871 311 838 315 871 l 447 913 l 47 913 l 47 871 b 185 729 179 871 185 838 z m 414 1201 b 249 1078 379 1101 342 1078 b 85 1201 157 1078 111 1101 l 43 1201 b 249 989 49 1057 121 989 b 454 1201 378 989 439 1057 z "},"İ":{"ha":496,"x_min":0,"x_max":0,"o":"m 185 182 b 47 42 185 63 172 42 l 47 0 l 447 0 l 447 42 b 311 182 324 42 311 63 l 311 729 b 447 871 311 838 315 871 l 447 913 l 47 913 l 47 871 b 185 729 179 871 185 838 z m 249 1135 b 171 1057 201 1135 171 1099 b 249 979 171 1015 203 979 b 328 1057 297 979 328 1015 b 249 1135 328 1099 297 1135 z "},"Ỉ":{"ha":496,"x_min":0,"x_max":0,"o":"m 185 182 b 47 42 185 63 172 42 l 47 0 l 447 0 l 447 42 b 311 182 324 42 311 63 l 311 729 b 447 871 311 838 315 871 l 447 913 l 47 913 l 47 871 b 185 729 179 871 185 838 z m 274 969 l 274 1024 b 393 1140 317 1031 393 1056 b 264 1249 393 1199 353 1249 b 140 1182 203 1249 140 1226 b 178 1143 140 1160 154 1143 b 265 1208 224 1143 201 1208 b 307 1143 286 1208 307 1201 b 217 1047 307 1083 288 1049 l 217 969 z "},"Ḭ":{"ha":496,"x_min":0,"x_max":0,"o":"m 185 182 b 47 42 185 63 172 42 l 47 0 l 447 0 l 447 42 b 311 182 324 42 311 63 l 311 729 b 447 871 311 838 315 871 l 447 913 l 47 913 l 47 871 b 185 729 179 871 185 838 z m 429 -69 b 349 -135 413 -122 381 -135 b 160 -75 282 -135 240 -75 b 19 -221 90 -75 35 -128 l 57 -221 b 133 -157 69 -171 100 -157 b 318 -217 200 -157 242 -217 b 465 -69 396 -217 444 -176 z "},"Ị":{"ha":496,"x_min":0,"x_max":0,"o":"m 185 182 b 47 42 185 63 172 42 l 47 0 l 447 0 l 447 42 b 311 182 324 42 311 63 l 311 729 b 447 871 311 838 315 871 l 447 913 l 47 913 l 47 871 b 185 729 179 871 185 838 z m 250 -94 b 171 -172 201 -94 171 -131 b 250 -251 171 -215 203 -251 b 329 -172 299 -251 329 -215 b 250 -94 329 -131 299 -94 z "},"Į":{"ha":496,"x_min":0,"x_max":0,"o":"m 400 -186 b 283 -229 360 -217 335 -229 b 213 -153 240 -229 213 -204 b 318 0 213 -81 269 -36 l 447 0 l 447 42 b 311 182 325 42 311 65 l 311 729 b 447 871 311 838 315 871 l 447 913 l 47 913 l 47 871 b 185 729 179 871 185 838 l 185 182 b 47 42 185 60 174 42 l 47 0 l 254 0 l 254 -3 b 119 -186 201 -43 119 -106 b 243 -300 119 -256 169 -300 b 419 -210 325 -300 367 -264 z "},"Ĵ":{"ha":550,"x_min":0,"x_max":0,"o":"m 265 171 b 200 32 265 74 254 32 b 61 161 136 32 143 161 b 0 93 22 161 0 135 b 165 -17 0 18 75 -17 b 393 211 297 -17 393 28 l 393 729 b 521 871 393 838 406 871 l 521 913 l 129 913 l 129 871 b 265 729 261 871 265 838 z m 535 969 l 382 1161 l 282 1161 l 126 969 l 185 969 l 331 1082 l 479 969 z "},"Ḱ":{"ha":975,"x_min":0,"x_max":0,"o":"m 185 182 b 47 42 185 60 174 42 l 47 0 l 447 0 l 447 42 b 311 182 325 42 311 65 l 311 432 l 324 432 l 446 310 b 647 69 586 172 647 115 b 593 42 647 49 632 42 l 565 42 l 565 0 l 967 0 l 967 42 b 822 101 899 42 868 58 l 424 493 l 725 775 b 907 871 800 844 828 867 l 907 913 l 567 913 l 567 871 l 589 871 b 642 828 628 871 642 857 b 543 688 642 786 607 749 l 318 468 l 311 468 l 311 729 b 447 871 311 838 315 871 l 447 913 l 47 913 l 47 871 b 185 729 179 871 185 838 z m 357 969 l 421 969 l 642 1118 l 642 1147 l 503 1147 z "},"Ḵ":{"ha":975,"x_min":0,"x_max":0,"o":"m 185 182 b 47 42 185 60 174 42 l 47 0 l 447 0 l 447 42 b 311 182 325 42 311 65 l 311 432 l 324 432 l 446 310 b 647 69 586 172 647 115 b 593 42 647 49 632 42 l 565 42 l 565 0 l 967 0 l 967 42 b 822 101 899 42 868 58 l 424 493 l 725 775 b 907 871 800 844 828 867 l 907 913 l 567 913 l 567 871 l 589 871 b 642 828 628 871 642 857 b 543 688 642 786 607 749 l 318 468 l 311 468 l 311 729 b 447 871 311 838 315 871 l 447 913 l 47 913 l 47 871 b 185 729 179 871 185 838 z m 692 -196 l 692 -119 l 289 -119 l 289 -196 z "},"Ḳ":{"ha":975,"x_min":0,"x_max":0,"o":"m 185 182 b 47 42 185 60 174 42 l 47 0 l 447 0 l 447 42 b 311 182 325 42 311 65 l 311 432 l 324 432 l 446 310 b 647 69 586 172 647 115 b 593 42 647 49 632 42 l 565 42 l 565 0 l 967 0 l 967 42 b 822 101 899 42 868 58 l 424 493 l 725 775 b 907 871 800 844 828 867 l 907 913 l 567 913 l 567 871 l 589 871 b 642 828 628 871 642 857 b 543 688 642 786 607 749 l 318 468 l 311 468 l 311 729 b 447 871 311 838 315 871 l 447 913 l 47 913 l 47 871 b 185 729 179 871 185 838 z m 490 -94 b 411 -172 442 -94 411 -131 b 490 -251 411 -215 443 -251 b 569 -172 539 -251 569 -215 b 490 -94 569 -131 539 -94 z "},"Ķ":{"ha":975,"x_min":0,"x_max":0,"o":"m 185 182 b 47 42 185 60 174 42 l 47 0 l 447 0 l 447 42 b 311 182 325 42 311 65 l 311 432 l 324 432 l 446 310 b 647 69 586 172 647 115 b 593 42 647 49 632 42 l 565 42 l 565 0 l 967 0 l 967 42 b 822 101 899 42 868 58 l 424 493 l 725 775 b 907 871 800 844 828 867 l 907 913 l 567 913 l 567 871 l 589 871 b 642 828 628 871 642 857 b 543 688 642 786 607 749 l 318 468 l 311 468 l 311 729 b 447 871 311 838 315 871 l 447 913 l 47 913 l 47 871 b 185 729 179 871 185 838 z m 421 -385 b 585 -192 478 -365 585 -326 b 488 -74 585 -119 554 -74 b 403 -153 429 -74 403 -108 b 472 -225 403 -199 432 -225 b 515 -217 486 -225 500 -222 b 407 -350 515 -297 457 -332 z "},"Ĺ":{"ha":813,"x_min":0,"x_max":0,"o":"m 789 271 l 744 271 b 482 58 690 110 668 58 l 418 58 b 313 132 336 58 313 71 l 313 735 b 449 871 313 843 336 871 l 449 913 l 58 913 l 58 871 b 185 736 169 871 185 843 l 185 171 b 58 42 185 63 169 42 l 58 0 l 747 0 z m 172 969 l 236 969 l 457 1118 l 457 1147 l 318 1147 z "},"Ľ":{"ha":813,"x_min":0,"x_max":0,"o":"m 789 271 l 744 271 b 482 58 690 110 668 58 l 418 58 b 313 132 336 58 313 71 l 313 735 b 449 871 313 843 336 871 l 449 913 l 58 913 l 58 871 b 185 736 169 871 185 843 l 185 171 b 58 42 185 63 169 42 l 58 0 l 747 0 z m 576 643 l 618 638 b 707 888 663 708 701 810 l 707 913 l 593 913 z "},"Ḹ":{"ha":813,"x_min":0,"x_max":0,"o":"m 789 271 l 744 271 b 482 58 690 110 668 58 l 418 58 b 313 132 336 58 313 71 l 313 735 b 449 871 313 843 336 871 l 449 913 l 58 913 l 58 871 b 185 736 169 871 185 843 l 185 171 b 58 42 185 63 169 42 l 58 0 l 747 0 z m 404 -94 b 325 -172 356 -94 325 -131 b 404 -251 325 -215 357 -251 b 483 -172 453 -251 483 -215 b 404 -94 483 -131 453 -94 z m 457 1008 l 457 1082 l 49 1082 l 49 1008 z "},"Ḽ":{"ha":813,"x_min":0,"x_max":0,"o":"m 789 271 l 744 271 b 482 58 690 110 668 58 l 418 58 b 313 132 336 58 313 71 l 313 735 b 449 871 313 843 336 871 l 449 913 l 58 913 l 58 871 b 185 736 169 871 185 843 l 185 171 b 58 42 185 63 169 42 l 58 0 l 747 0 z m 600 -282 l 450 -69 l 358 -69 l 208 -282 l 263 -282 l 404 -146 l 547 -282 z "},"Ḻ":{"ha":813,"x_min":0,"x_max":0,"o":"m 789 271 l 744 271 b 482 58 690 110 668 58 l 418 58 b 313 132 336 58 313 71 l 313 735 b 449 871 313 843 336 871 l 449 913 l 58 913 l 58 871 b 185 736 169 871 185 843 l 185 171 b 58 42 185 63 169 42 l 58 0 l 747 0 z m 606 -196 l 606 -119 l 203 -119 l 203 -196 z "},"Ḷ":{"ha":813,"x_min":0,"x_max":0,"o":"m 789 271 l 744 271 b 482 58 690 110 668 58 l 418 58 b 313 132 336 58 313 71 l 313 735 b 449 871 313 843 336 871 l 449 913 l 58 913 l 58 871 b 185 736 169 871 185 843 l 185 171 b 58 42 185 63 169 42 l 58 0 l 747 0 z m 404 -94 b 325 -172 356 -94 325 -131 b 404 -251 325 -215 357 -251 b 483 -172 453 -251 483 -215 b 404 -94 483 -131 453 -94 z "},"Ļ":{"ha":813,"x_min":0,"x_max":0,"o":"m 789 271 l 744 271 b 482 58 690 110 668 58 l 418 58 b 313 132 336 58 313 71 l 313 735 b 449 871 313 843 336 871 l 449 913 l 58 913 l 58 871 b 185 736 169 871 185 843 l 185 171 b 58 42 185 63 169 42 l 58 0 l 747 0 z m 335 -385 b 499 -192 392 -365 499 -326 b 401 -74 499 -119 468 -74 b 317 -153 343 -74 317 -108 b 386 -225 317 -199 346 -225 b 429 -217 400 -225 414 -222 b 321 -350 429 -297 371 -332 z "},"Ŀ":{"ha":840,"x_min":0,"x_max":0,"o":"m 789 271 l 744 271 b 482 58 690 110 668 58 l 418 58 b 313 132 336 58 313 71 l 313 735 b 449 871 313 843 336 871 l 449 913 l 58 913 l 58 871 b 185 736 169 871 185 843 l 185 171 b 58 42 185 63 169 42 l 58 0 l 747 0 z m 669 576 b 590 499 621 576 590 540 b 669 419 590 456 622 419 b 749 499 718 419 749 456 b 669 576 749 540 718 576 z "},"Ł":{"ha":819,"x_min":0,"x_max":0,"o":"m 565 618 l 540 661 l 319 529 l 319 735 b 457 871 319 843 343 871 l 457 913 l 67 913 l 67 871 b 192 736 176 871 192 843 l 192 453 l 43 364 l 68 318 l 192 392 l 192 171 b 67 42 192 63 176 42 l 67 0 l 754 0 l 796 271 l 751 271 b 490 58 699 110 676 58 l 425 58 b 319 132 343 58 319 71 l 319 469 z "},"Ḿ":{"ha":1243,"x_min":0,"x_max":0,"o":"m 1181 0 l 1181 42 b 1058 165 1081 42 1058 64 l 1058 744 b 1179 871 1058 847 1081 871 l 1179 913 l 915 913 l 624 214 l 618 214 l 325 913 l 42 913 l 42 871 b 171 743 151 871 171 847 l 171 203 b 39 42 171 60 151 42 l 39 0 l 365 0 l 365 42 b 239 203 260 42 239 60 l 239 763 l 244 763 l 572 0 l 606 0 l 929 764 l 935 764 l 935 165 b 811 42 935 64 918 42 l 811 0 z m 472 969 l 536 969 l 757 1118 l 757 1147 l 618 1147 z "},"Ṁ":{"ha":1243,"x_min":0,"x_max":0,"o":"m 1181 0 l 1181 42 b 1058 165 1081 42 1058 64 l 1058 744 b 1179 871 1058 847 1081 871 l 1179 913 l 915 913 l 624 214 l 618 214 l 325 913 l 42 913 l 42 871 b 171 743 151 871 171 847 l 171 203 b 39 42 171 60 151 42 l 39 0 l 365 0 l 365 42 b 239 203 260 42 239 60 l 239 763 l 244 763 l 572 0 l 606 0 l 929 764 l 935 764 l 935 165 b 811 42 935 64 918 42 l 811 0 z m 606 1135 b 528 1057 558 1135 528 1099 b 606 979 528 1015 560 979 b 685 1057 654 979 685 1015 b 606 1135 685 1099 654 1135 z "},"Ṃ":{"ha":1243,"x_min":0,"x_max":0,"o":"m 1181 0 l 1181 42 b 1058 165 1081 42 1058 64 l 1058 744 b 1179 871 1058 847 1081 871 l 1179 913 l 915 913 l 624 214 l 618 214 l 325 913 l 42 913 l 42 871 b 171 743 151 871 171 847 l 171 203 b 39 42 171 60 151 42 l 39 0 l 365 0 l 365 42 b 239 203 260 42 239 60 l 239 763 l 244 763 l 572 0 l 606 0 l 929 764 l 935 764 l 935 165 b 811 42 935 64 918 42 l 811 0 z m 589 -94 b 510 -172 540 -94 510 -131 b 589 -251 510 -215 542 -251 b 668 -172 638 -251 668 -215 b 589 -94 668 -131 638 -94 z "},"Ń":{"ha":1031,"x_min":0,"x_max":0,"o":"m 993 913 l 665 913 l 665 871 b 771 836 724 871 749 863 b 797 692 792 813 797 775 l 797 242 l 790 242 l 276 913 l 40 913 l 40 871 b 171 800 103 871 126 857 l 171 207 b 40 42 171 67 150 42 l 40 0 l 365 0 l 365 42 b 239 207 261 42 239 68 l 239 732 l 246 732 l 821 -11 l 867 -11 l 867 685 b 903 843 867 785 881 824 b 993 871 924 863 943 871 z m 393 969 l 457 969 l 678 1118 l 678 1147 l 539 1147 z "},"Ň":{"ha":1031,"x_min":0,"x_max":0,"o":"m 993 913 l 665 913 l 665 871 b 771 836 724 871 749 863 b 797 692 792 813 797 775 l 797 242 l 790 242 l 276 913 l 40 913 l 40 871 b 171 800 103 871 126 857 l 171 207 b 40 42 171 67 150 42 l 40 0 l 365 0 l 365 42 b 239 207 261 42 239 68 l 239 732 l 246 732 l 821 -11 l 867 -11 l 867 685 b 903 843 867 785 881 824 b 993 871 924 863 943 871 z m 322 1161 l 478 969 l 576 969 l 731 1161 l 675 1161 l 528 1049 l 381 1161 z "},"Ñ":{"ha":1031,"x_min":0,"x_max":0,"o":"m 993 913 l 665 913 l 665 871 b 771 836 724 871 749 863 b 797 692 792 813 797 775 l 797 242 l 790 242 l 276 913 l 40 913 l 40 871 b 171 800 103 871 126 857 l 171 207 b 40 42 171 67 150 42 l 40 0 l 365 0 l 365 42 b 239 207 261 42 239 68 l 239 732 l 246 732 l 821 -11 l 867 -11 l 867 685 b 903 843 867 785 881 824 b 993 871 924 863 943 871 z m 724 1133 b 642 1076 707 1086 679 1076 b 449 1126 576 1076 532 1126 b 307 989 379 1126 324 1078 l 343 989 b 422 1043 357 1032 388 1043 b 613 992 490 1043 532 992 b 760 1133 689 992 738 1031 z "},"Ṅ":{"ha":1031,"x_min":0,"x_max":0,"o":"m 993 913 l 665 913 l 665 871 b 771 836 724 871 749 863 b 797 692 792 813 797 775 l 797 242 l 790 242 l 276 913 l 40 913 l 40 871 b 171 800 103 871 126 857 l 171 207 b 40 42 171 67 150 42 l 40 0 l 365 0 l 365 42 b 239 207 261 42 239 68 l 239 732 l 246 732 l 821 -11 l 867 -11 l 867 685 b 903 843 867 785 881 824 b 993 871 924 863 943 871 z m 522 1135 b 444 1057 475 1135 444 1099 b 522 979 444 1015 476 979 b 601 1057 571 979 601 1015 b 522 1135 601 1099 571 1135 z "},"Ṋ":{"ha":1031,"x_min":0,"x_max":0,"o":"m 993 913 l 665 913 l 665 871 b 771 836 724 871 749 863 b 797 692 792 813 797 775 l 797 242 l 790 242 l 276 913 l 40 913 l 40 871 b 171 800 103 871 126 857 l 171 207 b 40 42 171 67 150 42 l 40 0 l 365 0 l 365 42 b 239 207 261 42 239 68 l 239 732 l 246 732 l 821 -11 l 867 -11 l 867 685 b 903 843 867 785 881 824 b 993 871 924 863 943 871 z m 692 -282 l 542 -69 l 450 -69 l 300 -282 l 354 -282 l 496 -146 l 639 -282 z "},"Ṉ":{"ha":1031,"x_min":0,"x_max":0,"o":"m 993 913 l 665 913 l 665 871 b 771 836 724 871 749 863 b 797 692 792 813 797 775 l 797 242 l 790 242 l 276 913 l 40 913 l 40 871 b 171 800 103 871 126 857 l 171 207 b 40 42 171 67 150 42 l 40 0 l 365 0 l 365 42 b 239 207 261 42 239 68 l 239 732 l 246 732 l 821 -11 l 867 -11 l 867 685 b 903 843 867 785 881 824 b 993 871 924 863 943 871 z m 697 -196 l 697 -119 l 294 -119 l 294 -196 z "},"Ṇ":{"ha":1031,"x_min":0,"x_max":0,"o":"m 993 913 l 665 913 l 665 871 b 771 836 724 871 749 863 b 797 692 792 813 797 775 l 797 242 l 790 242 l 276 913 l 40 913 l 40 871 b 171 800 103 871 126 857 l 171 207 b 40 42 171 67 150 42 l 40 0 l 365 0 l 365 42 b 239 207 261 42 239 68 l 239 732 l 246 732 l 821 -11 l 867 -11 l 867 685 b 903 843 867 785 881 824 b 993 871 924 863 943 871 z m 496 -94 b 417 -172 447 -94 417 -131 b 496 -251 417 -215 449 -251 b 575 -172 544 -251 575 -215 b 496 -94 575 -131 544 -94 z "},"Ņ":{"ha":1031,"x_min":0,"x_max":0,"o":"m 993 913 l 665 913 l 665 871 b 771 836 724 871 749 863 b 797 692 792 813 797 775 l 797 242 l 790 242 l 276 913 l 40 913 l 40 871 b 171 800 103 871 126 857 l 171 207 b 40 42 171 67 150 42 l 40 0 l 365 0 l 365 42 b 239 207 261 42 239 68 l 239 732 l 246 732 l 821 -11 l 867 -11 l 867 685 b 903 843 867 785 881 824 b 993 871 924 863 943 871 z m 431 -385 b 594 -192 488 -365 594 -326 b 497 -74 594 -119 564 -74 b 413 -153 439 -74 413 -108 b 482 -225 413 -199 442 -225 b 525 -217 496 -225 510 -222 b 417 -350 525 -297 467 -332 z "},"Ò":{"ha":1025,"x_min":0,"x_max":0,"o":"m 956 469 b 514 929 956 744 790 929 b 71 457 239 929 71 739 b 514 -17 71 163 238 -17 b 956 469 788 -17 956 179 z m 810 465 b 515 42 810 186 713 42 b 217 465 315 42 217 204 b 510 871 217 719 331 871 b 810 465 690 871 810 715 z m 501 1147 l 363 1147 l 363 1118 l 582 969 l 647 969 z "},"Ó":{"ha":1025,"x_min":0,"x_max":0,"o":"m 956 469 b 514 929 956 744 790 929 b 71 457 239 929 71 739 b 514 -17 71 163 238 -17 b 956 469 788 -17 956 179 z m 810 465 b 515 42 810 186 713 42 b 217 465 315 42 217 204 b 510 871 217 719 331 871 b 810 465 690 871 810 715 z m 379 969 l 443 969 l 664 1118 l 664 1147 l 525 1147 z "},"Ô":{"ha":1025,"x_min":0,"x_max":0,"o":"m 956 469 b 514 929 956 744 790 929 b 71 457 239 929 71 739 b 514 -17 71 163 238 -17 b 956 469 788 -17 956 179 z m 810 465 b 515 42 810 186 713 42 b 217 465 315 42 217 204 b 510 871 217 719 331 871 b 810 465 690 871 810 715 z m 717 969 l 564 1161 l 464 1161 l 308 969 l 367 969 l 513 1082 l 661 969 z "},"Ồ":{"ha":1025,"x_min":0,"x_max":0,"o":"m 956 469 b 514 929 956 744 790 929 b 71 457 239 929 71 739 b 514 -17 71 163 238 -17 b 956 469 788 -17 956 179 z m 810 465 b 515 42 810 186 713 42 b 217 465 315 42 217 204 b 510 871 217 719 331 871 b 810 465 690 871 810 715 z m 717 963 l 564 1147 l 464 1147 l 308 963 l 367 963 l 513 1075 l 661 963 z m 700 1224 l 578 1224 l 578 1194 l 778 1060 l 835 1060 z "},"Ố":{"ha":1025,"x_min":0,"x_max":0,"o":"m 956 469 b 514 929 956 744 790 929 b 71 457 239 929 71 739 b 514 -17 71 163 238 -17 b 956 469 788 -17 956 179 z m 810 465 b 515 42 810 186 713 42 b 217 465 315 42 217 204 b 510 871 217 719 331 871 b 810 465 690 871 810 715 z m 717 963 l 564 1147 l 464 1147 l 308 963 l 367 963 l 513 1075 l 661 963 z m 650 1060 l 707 1060 l 907 1194 l 907 1224 l 785 1224 z "},"Ỗ":{"ha":1025,"x_min":0,"x_max":0,"o":"m 956 469 b 514 929 956 744 790 929 b 71 457 239 929 71 739 b 514 -17 71 163 238 -17 b 956 469 788 -17 956 179 z m 810 465 b 515 42 810 186 713 42 b 217 465 315 42 217 204 b 510 871 217 719 331 871 b 810 465 690 871 810 715 z m 717 963 l 564 1133 l 464 1133 l 308 963 l 367 963 l 513 1061 l 661 963 z m 704 1304 b 624 1249 688 1258 661 1249 b 436 1297 561 1249 518 1297 b 299 1164 369 1297 315 1250 l 333 1164 b 411 1217 347 1206 376 1217 b 596 1167 476 1217 518 1167 b 739 1304 669 1167 717 1204 z "},"Ổ":{"ha":1025,"x_min":0,"x_max":0,"o":"m 956 469 b 514 929 956 744 790 929 b 71 457 239 929 71 739 b 514 -17 71 163 238 -17 b 956 469 788 -17 956 179 z m 810 465 b 515 42 810 186 713 42 b 217 465 315 42 217 204 b 510 871 217 719 331 871 b 810 465 690 871 810 715 z m 717 963 l 564 1147 l 464 1147 l 308 963 l 367 963 l 513 1075 l 661 963 z m 714 1060 l 714 1111 b 831 1224 757 1118 831 1142 b 704 1329 831 1281 793 1329 b 581 1263 643 1329 581 1307 b 618 1224 581 1240 594 1224 b 706 1289 664 1224 642 1289 b 747 1226 726 1289 747 1282 b 657 1135 747 1169 728 1136 l 657 1060 z "},"Ộ":{"ha":1025,"x_min":0,"x_max":0,"o":"m 956 469 b 514 929 956 744 790 929 b 71 457 239 929 71 739 b 514 -17 71 163 238 -17 b 956 469 788 -17 956 179 z m 810 465 b 515 42 810 186 713 42 b 217 465 315 42 217 204 b 510 871 217 719 331 871 b 810 465 690 871 810 715 z m 717 969 l 564 1161 l 464 1161 l 308 969 l 367 969 l 513 1082 l 661 969 z m 513 -94 b 433 -172 464 -94 433 -131 b 513 -251 433 -215 465 -251 b 592 -172 561 -251 592 -215 b 513 -94 592 -131 561 -94 z "},"Õ":{"ha":1025,"x_min":0,"x_max":0,"o":"m 956 469 b 514 929 956 744 790 929 b 71 457 239 929 71 739 b 514 -17 71 163 238 -17 b 956 469 788 -17 956 179 z m 810 465 b 515 42 810 186 713 42 b 217 465 315 42 217 204 b 510 871 217 719 331 871 b 810 465 690 871 810 715 z m 710 1133 b 628 1076 693 1086 665 1076 b 435 1126 563 1076 518 1126 b 293 989 365 1126 310 1078 l 329 989 b 408 1043 343 1032 374 1043 b 599 992 476 1043 518 992 b 746 1133 675 992 724 1031 z "},"Ṍ":{"ha":1025,"x_min":0,"x_max":0,"o":"m 956 469 b 514 929 956 744 790 929 b 71 457 239 929 71 739 b 514 -17 71 163 238 -17 b 956 469 788 -17 956 179 z m 810 465 b 515 42 810 186 713 42 b 217 465 315 42 217 204 b 510 871 217 719 331 871 b 810 465 690 871 810 715 z m 710 1119 b 628 1063 693 1072 665 1063 b 435 1113 563 1063 518 1113 b 293 975 365 1113 310 1064 l 329 975 b 408 1029 343 1018 374 1029 b 599 978 476 1029 518 978 b 746 1119 675 978 724 1017 z m 379 1150 l 443 1150 l 664 1299 l 664 1328 l 525 1328 z "},"Ṏ":{"ha":1025,"x_min":0,"x_max":0,"o":"m 956 469 b 514 929 956 744 790 929 b 71 457 239 929 71 739 b 514 -17 71 163 238 -17 b 956 469 788 -17 956 179 z m 810 465 b 515 42 810 186 713 42 b 217 465 315 42 217 204 b 510 871 217 719 331 871 b 810 465 690 871 810 715 z m 710 1119 b 628 1063 693 1072 665 1063 b 435 1113 563 1063 518 1113 b 293 975 365 1113 310 1064 l 329 975 b 408 1029 343 1018 374 1029 b 599 978 476 1029 518 978 b 746 1119 675 978 724 1017 z m 358 1300 b 281 1224 311 1300 281 1264 b 358 1147 281 1183 313 1147 b 438 1224 407 1147 438 1183 b 358 1300 438 1264 407 1300 z m 665 1300 b 588 1224 618 1300 588 1264 b 665 1147 588 1183 619 1147 b 744 1224 714 1147 744 1183 b 665 1300 744 1264 714 1300 z "},"Ö":{"ha":1025,"x_min":0,"x_max":0,"o":"m 956 469 b 514 929 956 744 790 929 b 71 457 239 929 71 739 b 514 -17 71 163 238 -17 b 956 469 788 -17 956 179 z m 810 465 b 515 42 810 186 713 42 b 217 465 315 42 217 204 b 510 871 217 719 331 871 b 810 465 690 871 810 715 z m 358 1133 b 281 1057 311 1133 281 1097 b 358 981 281 1017 313 981 b 438 1057 407 981 438 1017 b 358 1133 438 1097 407 1133 z m 665 1133 b 588 1057 618 1133 588 1097 b 665 981 588 1017 619 981 b 744 1057 714 981 744 1017 b 665 1133 744 1097 714 1133 z "},"Ō":{"ha":1025,"x_min":0,"x_max":0,"o":"m 956 469 b 514 929 956 744 790 929 b 71 457 239 929 71 739 b 514 -17 71 163 238 -17 b 956 469 788 -17 956 179 z m 810 465 b 515 42 810 186 713 42 b 217 465 315 42 217 204 b 510 871 217 719 331 871 b 810 465 690 871 810 715 z m 717 1008 l 717 1082 l 308 1082 l 308 1008 z "},"Ṑ":{"ha":1025,"x_min":0,"x_max":0,"o":"m 956 469 b 514 929 956 744 790 929 b 71 457 239 929 71 739 b 514 -17 71 163 238 -17 b 956 469 788 -17 956 179 z m 810 465 b 515 42 810 186 713 42 b 217 465 315 42 217 204 b 510 871 217 719 331 871 b 810 465 690 871 810 715 z m 717 994 l 717 1068 l 308 1068 l 308 994 z m 501 1300 l 363 1300 l 363 1271 l 582 1122 l 647 1122 z "},"Ṓ":{"ha":1025,"x_min":0,"x_max":0,"o":"m 956 469 b 514 929 956 744 790 929 b 71 457 239 929 71 739 b 514 -17 71 163 238 -17 b 956 469 788 -17 956 179 z m 810 465 b 515 42 810 186 713 42 b 217 465 315 42 217 204 b 510 871 217 719 331 871 b 810 465 690 871 810 715 z m 717 994 l 717 1068 l 308 1068 l 308 994 z m 379 1122 l 443 1122 l 664 1271 l 664 1300 l 525 1300 z "},"Ŏ":{"ha":1025,"x_min":0,"x_max":0,"o":"m 956 469 b 514 929 956 744 790 929 b 71 457 239 929 71 739 b 514 -17 71 163 238 -17 b 956 469 788 -17 956 179 z m 810 465 b 515 42 810 186 713 42 b 217 465 315 42 217 204 b 510 871 217 719 331 871 b 810 465 690 871 810 715 z m 678 1201 b 513 1078 643 1101 606 1078 b 349 1201 421 1078 375 1101 l 307 1201 b 513 989 313 1057 385 989 b 718 1201 642 989 703 1057 z "},"Ỏ":{"ha":1025,"x_min":0,"x_max":0,"o":"m 956 469 b 514 929 956 744 790 929 b 71 457 239 929 71 739 b 514 -17 71 163 238 -17 b 956 469 788 -17 956 179 z m 810 465 b 515 42 810 186 713 42 b 217 465 315 42 217 204 b 510 871 217 719 331 871 b 810 465 690 871 810 715 z m 536 969 l 536 1024 b 656 1140 579 1031 656 1056 b 526 1249 656 1199 615 1249 b 403 1182 465 1249 403 1226 b 440 1143 403 1160 417 1143 b 528 1208 486 1143 464 1208 b 569 1143 549 1208 569 1201 b 479 1047 569 1083 550 1049 l 479 969 z "},"Ő":{"ha":1025,"x_min":0,"x_max":0,"o":"m 956 469 b 514 929 956 744 790 929 b 71 457 239 929 71 739 b 514 -17 71 163 238 -17 b 956 469 788 -17 956 179 z m 810 465 b 515 42 810 186 713 42 b 217 465 315 42 217 204 b 510 871 217 719 331 871 b 810 465 690 871 810 715 z m 369 969 l 424 969 l 613 1121 l 613 1147 l 485 1147 z m 568 969 l 621 969 l 813 1121 l 813 1147 l 683 1147 z "},"Ọ":{"ha":1025,"x_min":0,"x_max":0,"o":"m 956 469 b 514 929 956 744 790 929 b 71 457 239 929 71 739 b 514 -17 71 163 238 -17 b 956 469 788 -17 956 179 z m 810 465 b 515 42 810 186 713 42 b 217 465 315 42 217 204 b 510 871 217 719 331 871 b 810 465 690 871 810 715 z m 513 -94 b 433 -172 464 -94 433 -131 b 513 -251 433 -215 465 -251 b 592 -172 561 -251 592 -215 b 513 -94 592 -131 561 -94 z "},"Ơ":{"ha":1024,"x_min":0,"x_max":0,"o":"m 818 851 b 989 1008 958 851 989 961 b 908 1108 989 1079 951 1108 b 846 1050 875 1108 846 1089 b 890 943 846 1021 890 978 b 807 893 890 917 863 893 b 513 929 690 893 610 929 b 69 457 238 929 69 739 b 513 -17 69 163 236 -17 b 954 469 786 -17 954 179 b 768 846 954 638 889 765 l 768 854 b 818 851 781 853 804 851 z m 808 465 b 514 42 808 186 711 42 b 215 465 314 42 215 204 b 508 871 215 719 329 871 b 808 465 689 871 808 715 z "},"Ờ":{"ha":1024,"x_min":0,"x_max":0,"o":"m 818 851 b 989 1008 958 851 989 961 b 908 1108 989 1079 951 1108 b 846 1050 875 1108 846 1089 b 890 943 846 1021 890 978 b 807 893 890 917 863 893 b 513 929 690 893 610 929 b 69 457 238 929 69 739 b 513 -17 69 163 236 -17 b 954 469 786 -17 954 179 b 768 846 954 638 889 765 l 768 854 b 818 851 781 853 804 851 z m 808 465 b 514 42 808 186 711 42 b 215 465 314 42 215 204 b 508 871 215 719 329 871 b 808 465 689 871 808 715 z m 500 1147 l 361 1147 l 361 1118 l 581 969 l 646 969 z "},"Ớ":{"ha":1024,"x_min":0,"x_max":0,"o":"m 818 851 b 989 1008 958 851 989 961 b 908 1108 989 1079 951 1108 b 846 1050 875 1108 846 1089 b 890 943 846 1021 890 978 b 807 893 890 917 863 893 b 513 929 690 893 610 929 b 69 457 238 929 69 739 b 513 -17 69 163 236 -17 b 954 469 786 -17 954 179 b 768 846 954 638 889 765 l 768 854 b 818 851 781 853 804 851 z m 808 465 b 514 42 808 186 711 42 b 215 465 314 42 215 204 b 508 871 215 719 329 871 b 808 465 689 871 808 715 z m 378 969 l 442 969 l 663 1118 l 663 1147 l 524 1147 z "},"Ỡ":{"ha":1024,"x_min":0,"x_max":0,"o":"m 818 851 b 989 1008 958 851 989 961 b 908 1108 989 1079 951 1108 b 846 1050 875 1108 846 1089 b 890 943 846 1021 890 978 b 807 893 890 917 863 893 b 513 929 690 893 610 929 b 69 457 238 929 69 739 b 513 -17 69 163 236 -17 b 954 469 786 -17 954 179 b 768 846 954 638 889 765 l 768 854 b 818 851 781 853 804 851 z m 808 465 b 514 42 808 186 711 42 b 215 465 314 42 215 204 b 508 871 215 719 329 871 b 808 465 689 871 808 715 z m 708 1133 b 626 1076 692 1086 664 1076 b 433 1126 561 1076 517 1126 b 292 989 364 1126 308 1078 l 328 989 b 407 1043 342 1032 372 1043 b 597 992 475 1043 517 992 b 744 1133 674 992 722 1031 z "},"Ở":{"ha":1024,"x_min":0,"x_max":0,"o":"m 818 851 b 989 1008 958 851 989 961 b 908 1108 989 1079 951 1108 b 846 1050 875 1108 846 1089 b 890 943 846 1021 890 978 b 807 893 890 917 863 893 b 513 929 690 893 610 929 b 69 457 238 929 69 739 b 513 -17 69 163 236 -17 b 954 469 786 -17 954 179 b 768 846 954 638 889 765 l 768 854 b 818 851 781 853 804 851 z m 808 465 b 514 42 808 186 711 42 b 215 465 314 42 215 204 b 508 871 215 719 329 871 b 808 465 689 871 808 715 z m 535 969 l 535 1024 b 654 1140 578 1031 654 1056 b 525 1249 654 1199 614 1249 b 401 1182 464 1249 401 1226 b 439 1143 401 1160 415 1143 b 526 1208 485 1143 463 1208 b 568 1143 547 1208 568 1201 b 478 1047 568 1083 549 1049 l 478 969 z "},"Ợ":{"ha":1024,"x_min":0,"x_max":0,"o":"m 818 851 b 989 1008 958 851 989 961 b 908 1108 989 1079 951 1108 b 846 1050 875 1108 846 1089 b 890 943 846 1021 890 978 b 807 893 890 917 863 893 b 513 929 690 893 610 929 b 69 457 238 929 69 739 b 513 -17 69 163 236 -17 b 954 469 786 -17 954 179 b 768 846 954 638 889 765 l 768 854 b 818 851 781 853 804 851 z m 808 465 b 514 42 808 186 711 42 b 215 465 314 42 215 204 b 508 871 215 719 329 871 b 808 465 689 871 808 715 z m 511 -94 b 432 -172 463 -94 432 -131 b 511 -251 432 -215 464 -251 b 590 -172 560 -251 590 -215 b 511 -94 590 -131 560 -94 z "},"Ø":{"ha":1024,"x_min":0,"x_max":0,"o":"m 147 -28 l 226 74 b 513 -17 299 15 396 -17 b 954 469 786 -17 954 179 b 814 825 954 619 904 743 l 875 904 l 832 938 l 769 858 b 513 929 701 904 614 929 b 69 457 238 929 69 739 b 186 111 69 310 110 192 l 104 6 z m 808 465 b 514 42 808 186 711 42 b 290 154 414 42 340 82 l 740 735 l 743 735 b 808 465 785 667 808 575 z m 215 465 b 508 871 215 719 329 871 b 710 781 589 871 658 839 l 264 207 l 261 207 b 215 465 231 275 215 363 z "},"Ǿ":{"ha":1024,"x_min":0,"x_max":0,"o":"m 147 -28 l 226 74 b 513 -17 299 15 396 -17 b 954 469 786 -17 954 179 b 814 825 954 619 904 743 l 875 904 l 832 938 l 769 858 b 513 929 701 904 614 929 b 69 457 238 929 69 739 b 186 111 69 310 110 192 l 104 6 z m 808 465 b 514 42 808 186 711 42 b 290 154 414 42 340 82 l 740 735 l 743 735 b 808 465 785 667 808 575 z m 215 465 b 508 871 215 719 329 871 b 710 781 589 871 658 839 l 264 207 l 261 207 b 215 465 231 275 215 363 z m 376 969 l 440 969 l 661 1118 l 661 1147 l 522 1147 z "},"Œ":{"ha":1313,"x_min":0,"x_max":0,"o":"m 1274 258 l 1229 258 b 935 61 1175 92 1150 61 l 769 61 l 769 443 l 917 443 b 1072 314 1046 443 1072 428 l 1118 314 l 1118 636 l 1072 636 b 917 497 1072 524 1046 497 l 769 497 l 769 850 l 928 850 b 1188 685 1125 850 1165 832 l 1231 685 l 1222 913 l 679 913 b 510 929 639 921 578 929 b 69 457 240 929 69 739 b 503 -17 69 154 247 -17 b 685 0 560 -17 646 -7 l 1233 0 z m 215 465 b 508 871 215 696 321 871 b 642 775 599 871 642 826 l 642 147 b 513 42 642 76 596 42 b 215 465 278 42 215 265 z "},"Ṕ":{"ha":790,"x_min":0,"x_max":0,"o":"m 67 913 l 67 871 b 185 774 156 871 185 856 l 185 176 b 61 42 185 60 169 42 l 61 0 l 453 0 l 453 42 b 313 171 340 42 313 57 l 313 408 b 392 397 328 401 364 397 b 756 682 574 397 756 465 b 413 913 756 867 590 913 z m 313 853 b 396 858 342 856 368 858 b 618 663 546 858 618 788 b 388 454 618 501 538 454 b 313 460 360 454 328 457 z m 272 969 l 336 969 l 557 1118 l 557 1147 l 418 1147 z "},"Ṗ":{"ha":790,"x_min":0,"x_max":0,"o":"m 67 913 l 67 871 b 185 774 156 871 185 856 l 185 176 b 61 42 185 60 169 42 l 61 0 l 453 0 l 453 42 b 313 171 340 42 313 57 l 313 408 b 392 397 328 401 364 397 b 756 682 574 397 756 465 b 413 913 756 867 590 913 z m 313 853 b 396 858 342 856 368 858 b 618 663 546 858 618 788 b 388 454 618 501 538 454 b 313 460 360 454 328 457 z m 406 1135 b 328 1057 358 1135 328 1099 b 406 979 328 1015 360 979 b 485 1057 454 979 485 1015 b 406 1135 485 1099 454 1135 z "},"Ŕ":{"ha":915,"x_min":0,"x_max":0,"o":"m 760 685 b 401 913 760 861 610 913 l 60 913 l 60 871 b 183 768 171 871 183 844 l 183 172 b 60 42 183 56 164 42 l 60 0 l 450 0 l 450 42 b 313 172 331 42 313 57 l 313 418 l 351 418 b 444 372 401 418 417 414 b 693 0 501 289 542 229 l 922 0 l 922 42 b 779 113 858 42 824 51 b 525 436 626 331 572 408 l 525 442 b 760 685 638 468 760 529 z m 313 854 b 404 858 342 857 374 858 b 619 679 554 858 619 790 b 365 471 619 532 518 478 l 313 472 z m 300 969 l 364 969 l 585 1118 l 585 1147 l 446 1147 z "},"Ř":{"ha":915,"x_min":0,"x_max":0,"o":"m 760 685 b 401 913 760 861 610 913 l 60 913 l 60 871 b 183 768 171 871 183 844 l 183 172 b 60 42 183 56 164 42 l 60 0 l 450 0 l 450 42 b 313 172 331 42 313 57 l 313 418 l 351 418 b 444 372 401 418 417 414 b 693 0 501 289 542 229 l 922 0 l 922 42 b 779 113 858 42 824 51 b 525 436 626 331 572 408 l 525 442 b 760 685 638 468 760 529 z m 313 854 b 404 858 342 857 374 858 b 619 679 554 858 619 790 b 365 471 619 532 518 478 l 313 472 z m 229 1161 l 385 969 l 483 969 l 638 1161 l 582 1161 l 435 1049 l 288 1161 z "},"Ṝ":{"ha":915,"x_min":0,"x_max":0,"o":"m 760 685 b 401 913 760 861 610 913 l 60 913 l 60 871 b 183 768 171 871 183 844 l 183 172 b 60 42 183 56 164 42 l 60 0 l 450 0 l 450 42 b 313 172 331 42 313 57 l 313 418 l 351 418 b 444 372 401 418 417 414 b 693 0 501 289 542 229 l 922 0 l 922 42 b 779 113 858 42 824 51 b 525 436 626 331 572 408 l 525 442 b 760 685 638 468 760 529 z m 313 854 b 404 858 342 857 374 858 b 619 679 554 858 619 790 b 365 471 619 532 518 478 l 313 472 z m 461 -94 b 382 -172 413 -94 382 -131 b 461 -251 382 -215 414 -251 b 540 -172 510 -251 540 -215 b 461 -94 540 -131 510 -94 z m 638 1008 l 638 1082 l 229 1082 l 229 1008 z "},"Ṙ":{"ha":915,"x_min":0,"x_max":0,"o":"m 760 685 b 401 913 760 861 610 913 l 60 913 l 60 871 b 183 768 171 871 183 844 l 183 172 b 60 42 183 56 164 42 l 60 0 l 450 0 l 450 42 b 313 172 331 42 313 57 l 313 418 l 351 418 b 444 372 401 418 417 414 b 693 0 501 289 542 229 l 922 0 l 922 42 b 779 113 858 42 824 51 b 525 436 626 331 572 408 l 525 442 b 760 685 638 468 760 529 z m 313 854 b 404 858 342 857 374 858 b 619 679 554 858 619 790 b 365 471 619 532 518 478 l 313 472 z m 433 1135 b 356 1057 386 1135 356 1099 b 433 979 356 1015 388 979 b 513 1057 482 979 513 1015 b 433 1135 513 1099 482 1135 z "},"Ṟ":{"ha":915,"x_min":0,"x_max":0,"o":"m 760 685 b 401 913 760 861 610 913 l 60 913 l 60 871 b 183 768 171 871 183 844 l 183 172 b 60 42 183 56 164 42 l 60 0 l 450 0 l 450 42 b 313 172 331 42 313 57 l 313 418 l 351 418 b 444 372 401 418 417 414 b 693 0 501 289 542 229 l 922 0 l 922 42 b 779 113 858 42 824 51 b 525 436 626 331 572 408 l 525 442 b 760 685 638 468 760 529 z m 313 854 b 404 858 342 857 374 858 b 619 679 554 858 619 790 b 365 471 619 532 518 478 l 313 472 z m 663 -196 l 663 -119 l 260 -119 l 260 -196 z "},"Ṛ":{"ha":915,"x_min":0,"x_max":0,"o":"m 760 685 b 401 913 760 861 610 913 l 60 913 l 60 871 b 183 768 171 871 183 844 l 183 172 b 60 42 183 56 164 42 l 60 0 l 450 0 l 450 42 b 313 172 331 42 313 57 l 313 418 l 351 418 b 444 372 401 418 417 414 b 693 0 501 289 542 229 l 922 0 l 922 42 b 779 113 858 42 824 51 b 525 436 626 331 572 408 l 525 442 b 760 685 638 468 760 529 z m 313 854 b 404 858 342 857 374 858 b 619 679 554 858 619 790 b 365 471 619 532 518 478 l 313 472 z m 461 -94 b 382 -172 413 -94 382 -131 b 461 -251 382 -215 414 -251 b 540 -172 510 -251 540 -215 b 461 -94 540 -131 510 -94 z "},"Ŗ":{"ha":915,"x_min":0,"x_max":0,"o":"m 760 685 b 401 913 760 861 610 913 l 60 913 l 60 871 b 183 768 171 871 183 844 l 183 172 b 60 42 183 56 164 42 l 60 0 l 450 0 l 450 42 b 313 172 331 42 313 57 l 313 418 l 351 418 b 444 372 401 418 417 414 b 693 0 501 289 542 229 l 922 0 l 922 42 b 779 113 858 42 824 51 b 525 436 626 331 572 408 l 525 442 b 760 685 638 468 760 529 z m 313 854 b 404 858 342 857 374 858 b 619 679 554 858 619 790 b 365 471 619 532 518 478 l 313 472 z m 392 -385 b 556 -192 449 -365 556 -326 b 458 -74 556 -119 525 -74 b 374 -153 400 -74 374 -108 b 443 -225 374 -199 403 -225 b 486 -217 457 -225 471 -222 b 378 -350 486 -297 428 -332 z "},"Ś":{"ha":700,"x_min":0,"x_max":0,"o":"m 611 649 l 601 926 l 565 926 b 522 886 558 897 544 886 b 332 929 489 886 458 929 b 68 704 188 928 68 850 b 292 428 68 558 181 492 b 522 192 406 363 522 314 b 353 44 522 86 457 44 b 92 279 211 43 140 88 l 49 279 l 61 -21 l 104 -21 b 142 25 106 7 122 25 b 372 -17 174 25 228 -17 b 654 232 533 -17 654 71 b 393 529 654 397 517 460 b 189 743 289 589 189 639 b 338 874 189 829 243 874 b 569 649 478 875 531 801 z m 214 969 l 278 969 l 499 1118 l 499 1147 l 360 1147 z "},"Ṥ":{"ha":700,"x_min":0,"x_max":0,"o":"m 611 649 l 601 926 l 565 926 b 522 886 558 897 544 886 b 332 929 489 886 458 929 b 68 704 188 928 68 850 b 292 428 68 558 181 492 b 522 192 406 363 522 314 b 353 44 522 86 457 44 b 92 279 211 43 140 88 l 49 279 l 61 -21 l 104 -21 b 142 25 106 7 122 25 b 372 -17 174 25 228 -17 b 654 232 533 -17 654 71 b 393 529 654 397 517 460 b 189 743 289 589 189 639 b 338 874 189 829 243 874 b 569 649 478 875 531 801 z m 288 969 l 351 969 l 572 1118 l 572 1147 l 433 1147 z m 246 1206 b 176 1136 203 1206 176 1174 b 246 1067 176 1099 204 1067 b 317 1136 289 1067 317 1099 b 246 1206 317 1174 289 1206 z "},"Ŝ":{"ha":700,"x_min":0,"x_max":0,"o":"m 611 649 l 601 926 l 565 926 b 522 886 558 897 544 886 b 332 929 489 886 458 929 b 68 704 188 928 68 850 b 292 428 68 558 181 492 b 522 192 406 363 522 314 b 353 44 522 86 457 44 b 92 279 211 43 140 88 l 49 279 l 61 -21 l 104 -21 b 142 25 106 7 122 25 b 372 -17 174 25 228 -17 b 654 232 533 -17 654 71 b 393 529 654 397 517 460 b 189 743 289 589 189 639 b 338 874 189 829 243 874 b 569 649 478 875 531 801 z m 551 969 l 399 1161 l 299 1161 l 143 969 l 201 969 l 347 1082 l 496 969 z "},"Š":{"ha":700,"x_min":0,"x_max":0,"o":"m 611 649 l 601 926 l 565 926 b 522 886 558 897 544 886 b 332 929 489 886 458 929 b 68 704 188 928 68 850 b 292 428 68 558 181 492 b 522 192 406 363 522 314 b 353 44 522 86 457 44 b 92 279 211 43 140 88 l 49 279 l 61 -21 l 104 -21 b 142 25 106 7 122 25 b 372 -17 174 25 228 -17 b 654 232 533 -17 654 71 b 393 529 654 397 517 460 b 189 743 289 589 189 639 b 338 874 189 829 243 874 b 569 649 478 875 531 801 z m 149 1161 l 304 969 l 403 969 l 557 1161 l 501 1161 l 354 1049 l 207 1161 z "},"Ṧ":{"ha":700,"x_min":0,"x_max":0,"o":"m 611 649 l 601 926 l 565 926 b 522 886 558 897 544 886 b 332 929 489 886 458 929 b 68 704 188 928 68 850 b 292 428 68 558 181 492 b 522 192 406 363 522 314 b 353 44 522 86 457 44 b 92 279 211 43 140 88 l 49 279 l 61 -21 l 104 -21 b 142 25 106 7 122 25 b 372 -17 174 25 228 -17 b 654 232 533 -17 654 71 b 393 529 654 397 517 460 b 189 743 289 589 189 639 b 338 874 189 829 243 874 b 569 649 478 875 531 801 z m 149 1161 l 304 969 l 403 969 l 557 1161 l 501 1161 l 354 1049 l 207 1161 z m 354 1288 b 283 1215 311 1288 283 1254 b 354 1143 283 1176 313 1143 b 428 1215 399 1143 428 1176 b 354 1288 428 1254 399 1288 z "},"Ṡ":{"ha":700,"x_min":0,"x_max":0,"o":"m 611 649 l 601 926 l 565 926 b 522 886 558 897 544 886 b 332 929 489 886 458 929 b 68 704 188 928 68 850 b 292 428 68 558 181 492 b 522 192 406 363 522 314 b 353 44 522 86 457 44 b 92 279 211 43 140 88 l 49 279 l 61 -21 l 104 -21 b 142 25 106 7 122 25 b 372 -17 174 25 228 -17 b 654 232 533 -17 654 71 b 393 529 654 397 517 460 b 189 743 289 589 189 639 b 338 874 189 829 243 874 b 569 649 478 875 531 801 z m 353 1135 b 275 1057 306 1135 275 1099 b 353 979 275 1015 307 979 b 432 1057 401 979 432 1015 b 353 1135 432 1099 401 1135 z "},"Ṩ":{"ha":700,"x_min":0,"x_max":0,"o":"m 611 649 l 601 926 l 565 926 b 522 886 558 897 544 886 b 332 929 489 886 458 929 b 68 704 188 928 68 850 b 292 428 68 558 181 492 b 522 192 406 363 522 314 b 353 44 522 86 457 44 b 92 279 211 43 140 88 l 49 279 l 61 -21 l 104 -21 b 142 25 106 7 122 25 b 372 -17 174 25 228 -17 b 654 232 533 -17 654 71 b 393 529 654 397 517 460 b 189 743 289 589 189 639 b 338 874 189 829 243 874 b 569 649 478 875 531 801 z m 353 1135 b 275 1057 306 1135 275 1099 b 353 979 275 1015 307 979 b 432 1057 401 979 432 1015 b 353 1135 432 1099 401 1135 z m 340 -94 b 261 -172 292 -94 261 -131 b 340 -251 261 -215 293 -251 b 419 -172 389 -251 419 -215 b 340 -94 419 -131 389 -94 z "},"Ṣ":{"ha":700,"x_min":0,"x_max":0,"o":"m 611 649 l 601 926 l 565 926 b 522 886 558 897 544 886 b 332 929 489 886 458 929 b 68 704 188 928 68 850 b 292 428 68 558 181 492 b 522 192 406 363 522 314 b 353 44 522 86 457 44 b 92 279 211 43 140 88 l 49 279 l 61 -21 l 104 -21 b 142 25 106 7 122 25 b 372 -17 174 25 228 -17 b 654 232 533 -17 654 71 b 393 529 654 397 517 460 b 189 743 289 589 189 639 b 338 874 189 829 243 874 b 569 649 478 875 531 801 z m 340 -94 b 261 -172 292 -94 261 -131 b 340 -251 261 -215 293 -251 b 419 -172 389 -251 419 -215 b 340 -94 419 -131 389 -94 z "},"Ș":{"ha":700,"x_min":0,"x_max":0,"o":"m 611 649 l 601 926 l 565 926 b 522 886 558 897 544 886 b 332 929 489 886 458 929 b 68 704 188 928 68 850 b 292 428 68 558 181 492 b 522 192 406 363 522 314 b 353 44 522 86 457 44 b 92 279 211 43 140 88 l 49 279 l 61 -21 l 104 -21 b 142 25 106 7 122 25 b 372 -17 174 25 228 -17 b 654 232 533 -17 654 71 b 393 529 654 397 517 460 b 189 743 289 589 189 639 b 338 874 189 829 243 874 b 569 649 478 875 531 801 z m 271 -385 b 435 -192 328 -365 435 -326 b 338 -74 435 -119 404 -74 b 253 -153 279 -74 253 -108 b 322 -225 253 -199 282 -225 b 365 -217 336 -225 350 -222 b 257 -350 365 -297 307 -332 z "},"Ş":{"ha":700,"x_min":0,"x_max":0,"o":"m 611 649 l 601 926 l 565 926 b 522 886 558 897 544 886 b 332 929 489 886 458 929 b 68 704 188 928 68 850 b 292 428 68 558 181 492 b 522 192 406 363 522 314 b 353 44 522 86 457 44 b 92 279 211 43 140 88 l 49 279 l 61 -21 l 104 -21 b 142 25 106 7 122 25 b 300 -12 167 25 208 -3 l 276 -114 l 296 -129 b 339 -125 296 -129 317 -125 b 399 -183 385 -125 399 -151 b 322 -244 399 -228 369 -244 b 233 -218 288 -244 258 -233 l 219 -250 b 335 -299 250 -274 283 -299 b 479 -178 421 -299 479 -253 b 365 -76 479 -112 436 -76 b 326 -79 343 -76 326 -79 l 340 -15 b 372 -17 350 -17 361 -17 b 654 232 533 -17 654 71 b 393 529 654 397 517 460 b 189 743 289 589 189 639 b 338 874 189 829 243 874 b 569 649 478 875 531 801 z "},"ẞ":{"ha":950,"x_min":0,"x_max":0,"o":"m 838 850 l 838 889 b 554 931 747 914 657 931 b 164 565 301 931 164 831 l 164 157 b 28 42 164 60 138 42 l 28 0 l 292 0 l 292 564 b 567 869 292 749 360 869 b 699 854 611 869 658 864 l 485 514 l 485 475 b 760 222 703 460 760 342 b 607 36 760 118 715 36 b 425 167 469 36 508 167 b 363 99 385 167 363 136 b 585 -17 363 17 469 -17 b 893 249 763 -17 893 65 b 629 518 893 399 803 490 z "},"Ť":{"ha":838,"x_min":0,"x_max":0,"o":"m 815 663 l 804 913 l 36 913 l 21 663 l 64 663 b 265 850 93 814 113 850 l 354 850 l 354 182 b 218 42 354 56 335 42 l 218 0 l 621 0 l 621 42 b 483 182 501 42 483 56 l 483 850 l 571 850 b 772 663 725 850 742 814 z m 215 1161 l 371 969 l 469 969 l 624 1161 l 568 1161 l 421 1049 l 274 1161 z "},"Ṫ":{"ha":838,"x_min":0,"x_max":0,"o":"m 815 663 l 804 913 l 36 913 l 21 663 l 64 663 b 265 850 93 814 113 850 l 354 850 l 354 182 b 218 42 354 56 335 42 l 218 0 l 621 0 l 621 42 b 483 182 501 42 483 56 l 483 850 l 571 850 b 772 663 725 850 742 814 z m 419 1135 b 342 1057 372 1135 342 1099 b 419 979 342 1015 374 979 b 499 1057 468 979 499 1015 b 419 1135 499 1099 468 1135 z "},"Ṱ":{"ha":838,"x_min":0,"x_max":0,"o":"m 815 663 l 804 913 l 36 913 l 21 663 l 64 663 b 265 850 93 814 113 850 l 354 850 l 354 182 b 218 42 354 56 335 42 l 218 0 l 621 0 l 621 42 b 483 182 501 42 483 56 l 483 850 l 571 850 b 772 663 725 850 742 814 z m 615 -282 l 465 -69 l 374 -69 l 224 -282 l 278 -282 l 419 -146 l 563 -282 z "},"Ṯ":{"ha":838,"x_min":0,"x_max":0,"o":"m 815 663 l 804 913 l 36 913 l 21 663 l 64 663 b 265 850 93 814 113 850 l 354 850 l 354 182 b 218 42 354 56 335 42 l 218 0 l 621 0 l 621 42 b 483 182 501 42 483 56 l 483 850 l 571 850 b 772 663 725 850 742 814 z m 621 -196 l 621 -119 l 218 -119 l 218 -196 z "},"Ṭ":{"ha":838,"x_min":0,"x_max":0,"o":"m 815 663 l 804 913 l 36 913 l 21 663 l 64 663 b 265 850 93 814 113 850 l 354 850 l 354 182 b 218 42 354 56 335 42 l 218 0 l 621 0 l 621 42 b 483 182 501 42 483 56 l 483 850 l 571 850 b 772 663 725 850 742 814 z m 419 -94 b 340 -172 371 -94 340 -131 b 419 -251 340 -215 372 -251 b 499 -172 468 -251 499 -215 b 419 -94 499 -131 468 -94 z "},"Ț":{"ha":838,"x_min":0,"x_max":0,"o":"m 815 663 l 804 913 l 36 913 l 21 663 l 64 663 b 265 850 93 814 113 850 l 354 850 l 354 182 b 218 42 354 56 335 42 l 218 0 l 621 0 l 621 42 b 483 182 501 42 483 56 l 483 850 l 571 850 b 772 663 725 850 742 814 z m 350 -385 b 514 -192 407 -365 514 -326 b 417 -74 514 -119 483 -74 b 332 -153 358 -74 332 -108 b 401 -225 332 -199 361 -225 b 444 -217 415 -225 429 -222 b 336 -350 444 -297 386 -332 z "},"Ţ":{"ha":838,"x_min":0,"x_max":0,"o":"m 815 663 l 804 913 l 36 913 l 21 663 l 64 663 b 265 850 93 814 113 850 l 354 850 l 354 182 b 218 42 354 56 335 42 l 218 0 l 383 0 l 356 -114 l 375 -129 b 418 -125 375 -129 396 -125 b 478 -183 464 -125 478 -151 b 401 -244 478 -228 449 -244 b 313 -218 367 -244 338 -233 l 299 -250 b 414 -299 329 -274 363 -299 b 558 -178 500 -299 558 -253 b 444 -76 558 -112 515 -76 b 406 -79 422 -76 406 -79 l 424 0 l 621 0 l 621 42 b 483 182 501 42 483 56 l 483 850 l 571 850 b 772 663 725 850 742 814 z "},"Ŧ":{"ha":838,"x_min":0,"x_max":0,"o":"m 815 663 l 804 913 l 36 913 l 21 663 l 64 663 b 265 850 93 814 113 850 l 354 850 l 354 508 l 176 508 l 176 454 l 354 454 l 354 182 b 218 42 354 56 335 42 l 218 0 l 621 0 l 621 42 b 483 182 503 42 483 56 l 483 454 l 661 454 l 661 508 l 483 508 l 483 850 l 571 850 b 772 663 725 850 742 814 z "},"Ù":{"ha":1044,"x_min":0,"x_max":0,"o":"m 1019 913 l 679 913 l 679 871 b 810 693 796 871 810 839 l 810 343 b 553 71 810 151 735 71 b 292 349 354 71 292 168 l 292 742 b 428 871 292 846 310 871 l 428 913 l 28 913 l 28 871 b 164 749 138 871 164 846 l 164 347 b 518 -17 164 89 272 -17 b 889 363 781 -17 889 110 l 889 697 b 1019 871 889 840 900 871 z m 543 1147 l 404 1147 l 404 1118 l 624 969 l 689 969 z "},"Ú":{"ha":1044,"x_min":0,"x_max":0,"o":"m 1019 913 l 679 913 l 679 871 b 810 693 796 871 810 839 l 810 343 b 553 71 810 151 735 71 b 292 349 354 71 292 168 l 292 742 b 428 871 292 846 310 871 l 428 913 l 28 913 l 28 871 b 164 749 138 871 164 846 l 164 347 b 518 -17 164 89 272 -17 b 889 363 781 -17 889 110 l 889 697 b 1019 871 889 840 900 871 z m 421 969 l 485 969 l 706 1118 l 706 1147 l 567 1147 z "},"Û":{"ha":1044,"x_min":0,"x_max":0,"o":"m 1019 913 l 679 913 l 679 871 b 810 693 796 871 810 839 l 810 343 b 553 71 810 151 735 71 b 292 349 354 71 292 168 l 292 742 b 428 871 292 846 310 871 l 428 913 l 28 913 l 28 871 b 164 749 138 871 164 846 l 164 347 b 518 -17 164 89 272 -17 b 889 363 781 -17 889 110 l 889 697 b 1019 871 889 840 900 871 z m 758 969 l 606 1161 l 506 1161 l 350 969 l 408 969 l 554 1082 l 703 969 z "},"Ũ":{"ha":1044,"x_min":0,"x_max":0,"o":"m 1019 913 l 679 913 l 679 871 b 810 693 796 871 810 839 l 810 343 b 553 71 810 151 735 71 b 292 349 354 71 292 168 l 292 742 b 428 871 292 846 310 871 l 428 913 l 28 913 l 28 871 b 164 749 138 871 164 846 l 164 347 b 518 -17 164 89 272 -17 b 889 363 781 -17 889 110 l 889 697 b 1019 871 889 840 900 871 z m 751 1133 b 669 1076 735 1086 707 1076 b 476 1126 604 1076 560 1126 b 335 989 407 1126 351 1078 l 371 989 b 450 1043 385 1032 415 1043 b 640 992 518 1043 560 992 b 788 1133 717 992 765 1031 z "},"Ṹ":{"ha":1044,"x_min":0,"x_max":0,"o":"m 1019 913 l 679 913 l 679 871 b 810 693 796 871 810 839 l 810 343 b 553 71 810 151 735 71 b 292 349 354 71 292 168 l 292 742 b 428 871 292 846 310 871 l 428 913 l 28 913 l 28 871 b 164 749 138 871 164 846 l 164 347 b 518 -17 164 89 272 -17 b 889 363 781 -17 889 110 l 889 697 b 1019 871 889 840 900 871 z m 751 1119 b 669 1063 735 1072 707 1063 b 476 1113 604 1063 560 1113 b 335 975 407 1113 351 1064 l 371 975 b 450 1029 385 1018 415 1029 b 640 978 518 1029 560 978 b 788 1119 717 978 765 1017 z m 421 1150 l 485 1150 l 706 1299 l 706 1328 l 567 1328 z "},"Ü":{"ha":1044,"x_min":0,"x_max":0,"o":"m 1019 913 l 679 913 l 679 871 b 810 693 796 871 810 839 l 810 343 b 553 71 810 151 735 71 b 292 349 354 71 292 168 l 292 742 b 428 871 292 846 310 871 l 428 913 l 28 913 l 28 871 b 164 749 138 871 164 846 l 164 347 b 518 -17 164 89 272 -17 b 889 363 781 -17 889 110 l 889 697 b 1019 871 889 840 900 871 z m 400 1133 b 322 1057 353 1133 322 1097 b 400 981 322 1017 354 981 b 479 1057 449 981 479 1017 b 400 1133 479 1097 449 1133 z m 707 1133 b 629 1057 660 1133 629 1097 b 707 981 629 1017 661 981 b 786 1057 756 981 786 1017 b 707 1133 786 1097 756 1133 z "},"Ū":{"ha":1044,"x_min":0,"x_max":0,"o":"m 1019 913 l 679 913 l 679 871 b 810 693 796 871 810 839 l 810 343 b 553 71 810 151 735 71 b 292 349 354 71 292 168 l 292 742 b 428 871 292 846 310 871 l 428 913 l 28 913 l 28 871 b 164 749 138 871 164 846 l 164 347 b 518 -17 164 89 272 -17 b 889 363 781 -17 889 110 l 889 697 b 1019 871 889 840 900 871 z m 758 1008 l 758 1082 l 350 1082 l 350 1008 z "},"Ṻ":{"ha":1044,"x_min":0,"x_max":0,"o":"m 1019 913 l 679 913 l 679 871 b 810 693 796 871 810 839 l 810 343 b 553 71 810 151 735 71 b 292 349 354 71 292 168 l 292 742 b 428 871 292 846 310 871 l 428 913 l 28 913 l 28 871 b 164 749 138 871 164 846 l 164 347 b 518 -17 164 89 272 -17 b 889 363 781 -17 889 110 l 889 697 b 1019 871 889 840 900 871 z m 758 994 l 758 1068 l 350 1068 l 350 994 z m 400 1272 b 322 1196 353 1272 322 1236 b 400 1119 322 1156 354 1119 b 479 1196 449 1119 479 1156 b 400 1272 479 1236 449 1272 z m 707 1272 b 629 1196 660 1272 629 1236 b 707 1119 629 1156 661 1119 b 786 1196 756 1119 786 1156 b 707 1272 786 1236 756 1272 z "},"Ŭ":{"ha":1044,"x_min":0,"x_max":0,"o":"m 1019 913 l 679 913 l 679 871 b 810 693 796 871 810 839 l 810 343 b 553 71 810 151 735 71 b 292 349 354 71 292 168 l 292 742 b 428 871 292 846 310 871 l 428 913 l 28 913 l 28 871 b 164 749 138 871 164 846 l 164 347 b 518 -17 164 89 272 -17 b 889 363 781 -17 889 110 l 889 697 b 1019 871 889 840 900 871 z m 719 1201 b 554 1078 685 1101 647 1078 b 390 1201 463 1078 417 1101 l 349 1201 b 554 989 354 1057 426 989 b 760 1201 683 989 744 1057 z "},"Ů":{"ha":1044,"x_min":0,"x_max":0,"o":"m 1019 913 l 679 913 l 679 871 b 810 693 796 871 810 839 l 810 343 b 553 71 810 151 735 71 b 292 349 354 71 292 168 l 292 742 b 428 871 292 846 310 871 l 428 913 l 28 913 l 28 871 b 164 749 138 871 164 846 l 164 347 b 518 -17 164 89 272 -17 b 889 363 781 -17 889 110 l 889 697 b 1019 871 889 840 900 871 z m 696 1103 b 553 1235 696 1183 636 1235 b 411 1103 471 1235 411 1183 b 553 971 411 1017 472 971 b 696 1103 636 971 696 1017 z m 635 1103 b 553 1019 635 1054 610 1019 b 471 1103 499 1019 471 1054 b 553 1186 471 1151 499 1186 b 635 1103 607 1186 635 1151 z "},"Ủ":{"ha":1044,"x_min":0,"x_max":0,"o":"m 1019 913 l 679 913 l 679 871 b 810 693 796 871 810 839 l 810 343 b 553 71 810 151 735 71 b 292 349 354 71 292 168 l 292 742 b 428 871 292 846 310 871 l 428 913 l 28 913 l 28 871 b 164 749 138 871 164 846 l 164 347 b 518 -17 164 89 272 -17 b 889 363 781 -17 889 110 l 889 697 b 1019 871 889 840 900 871 z m 578 969 l 578 1024 b 697 1140 621 1031 697 1056 b 568 1249 697 1199 657 1249 b 444 1182 507 1249 444 1226 b 482 1143 444 1160 458 1143 b 569 1208 528 1143 506 1208 b 611 1143 590 1208 611 1201 b 521 1047 611 1083 592 1049 l 521 969 z "},"Ű":{"ha":1044,"x_min":0,"x_max":0,"o":"m 1019 913 l 679 913 l 679 871 b 810 693 796 871 810 839 l 810 343 b 553 71 810 151 735 71 b 292 349 354 71 292 168 l 292 742 b 428 871 292 846 310 871 l 428 913 l 28 913 l 28 871 b 164 749 138 871 164 846 l 164 347 b 518 -17 164 89 272 -17 b 889 363 781 -17 889 110 l 889 697 b 1019 871 889 840 900 871 z m 411 969 l 465 969 l 654 1121 l 654 1147 l 526 1147 z m 610 969 l 663 969 l 854 1121 l 854 1147 l 725 1147 z "},"Ṷ":{"ha":1044,"x_min":0,"x_max":0,"o":"m 1019 913 l 679 913 l 679 871 b 810 693 796 871 810 839 l 810 343 b 553 71 810 151 735 71 b 292 349 354 71 292 168 l 292 742 b 428 871 292 846 310 871 l 428 913 l 28 913 l 28 871 b 164 749 138 871 164 846 l 164 347 b 518 -17 164 89 272 -17 b 889 363 781 -17 889 110 l 889 697 b 1019 871 889 840 900 871 z m 722 -282 l 572 -69 l 481 -69 l 331 -282 l 385 -282 l 526 -146 l 669 -282 z "},"Ṵ":{"ha":1044,"x_min":0,"x_max":0,"o":"m 1019 913 l 679 913 l 679 871 b 810 693 796 871 810 839 l 810 343 b 553 71 810 151 735 71 b 292 349 354 71 292 168 l 292 742 b 428 871 292 846 310 871 l 428 913 l 28 913 l 28 871 b 164 749 138 871 164 846 l 164 347 b 518 -17 164 89 272 -17 b 889 363 781 -17 889 110 l 889 697 b 1019 871 889 840 900 871 z m 706 -69 b 625 -135 689 -122 657 -135 b 436 -75 558 -135 517 -75 b 296 -221 367 -75 311 -128 l 333 -221 b 410 -157 346 -171 376 -157 b 594 -217 476 -157 518 -217 b 742 -69 672 -217 721 -176 z "},"Ṳ":{"ha":1044,"x_min":0,"x_max":0,"o":"m 1019 913 l 679 913 l 679 871 b 810 693 796 871 810 839 l 810 343 b 553 71 810 151 735 71 b 292 349 354 71 292 168 l 292 742 b 428 871 292 846 310 871 l 428 913 l 28 913 l 28 871 b 164 749 138 871 164 846 l 164 347 b 518 -17 164 89 272 -17 b 889 363 781 -17 889 110 l 889 697 b 1019 871 889 840 900 871 z m 374 -94 b 296 -172 326 -94 296 -131 b 374 -250 296 -214 328 -250 b 453 -172 422 -250 453 -214 b 374 -94 453 -131 422 -94 z m 678 -94 b 600 -172 631 -94 600 -131 b 678 -250 600 -214 632 -250 b 757 -172 726 -250 757 -214 b 678 -94 757 -131 726 -94 z "},"Ụ":{"ha":1044,"x_min":0,"x_max":0,"o":"m 1019 913 l 679 913 l 679 871 b 810 693 796 871 810 839 l 810 343 b 553 71 810 151 735 71 b 292 349 354 71 292 168 l 292 742 b 428 871 292 846 310 871 l 428 913 l 28 913 l 28 871 b 164 749 138 871 164 846 l 164 347 b 518 -17 164 89 272 -17 b 889 363 781 -17 889 110 l 889 697 b 1019 871 889 840 900 871 z m 526 -94 b 447 -172 478 -94 447 -131 b 526 -251 447 -215 479 -251 b 606 -172 575 -251 606 -215 b 526 -94 606 -131 575 -94 z "},"Ų":{"ha":1046,"x_min":0,"x_max":0,"o":"m 742 -186 b 625 -229 700 -217 676 -229 b 554 -153 581 -229 554 -204 b 660 -1 554 -82 614 -21 b 889 363 822 44 889 161 l 889 697 b 1019 871 889 840 900 871 l 1019 913 l 679 913 l 679 871 b 810 693 796 871 810 839 l 810 343 b 553 71 810 151 735 71 b 292 349 354 71 292 168 l 292 742 b 428 871 292 846 310 871 l 428 913 l 28 913 l 28 871 b 164 749 138 871 164 846 l 164 347 b 518 -17 164 89 272 -17 b 576 -14 539 -17 558 -15 l 576 -19 b 460 -186 525 -60 460 -117 b 585 -300 460 -256 511 -300 b 761 -210 667 -300 708 -264 z "},"Ư":{"ha":1058,"x_min":0,"x_max":0,"o":"m 679 871 b 810 693 796 871 810 839 l 810 343 b 544 71 810 151 736 71 b 292 349 354 71 292 168 l 292 742 b 428 871 292 846 310 871 l 428 913 l 28 913 l 28 871 b 164 749 138 871 164 846 l 164 347 b 518 -17 164 89 272 -17 b 889 363 781 -17 889 110 l 889 686 b 1008 876 889 839 901 851 b 1144 1050 1115 901 1144 1003 b 1060 1153 1144 1121 1101 1153 b 1000 1097 1022 1153 1000 1125 b 1046 963 1000 1053 1046 997 b 947 913 1046 936 1029 913 l 679 913 z "},"Ừ":{"ha":1058,"x_min":0,"x_max":0,"o":"m 679 871 b 810 693 796 871 810 839 l 810 343 b 544 71 810 151 736 71 b 292 349 354 71 292 168 l 292 742 b 428 871 292 846 310 871 l 428 913 l 28 913 l 28 871 b 164 749 138 871 164 846 l 164 347 b 518 -17 164 89 272 -17 b 889 363 781 -17 889 110 l 889 686 b 1008 876 889 839 901 851 b 1144 1050 1115 901 1144 1003 b 1060 1153 1144 1121 1101 1153 b 1000 1097 1022 1153 1000 1125 b 1046 963 1000 1053 1046 997 b 947 913 1046 936 1029 913 l 679 913 z m 543 1147 l 404 1147 l 404 1118 l 624 969 l 689 969 z "},"Ứ":{"ha":1058,"x_min":0,"x_max":0,"o":"m 679 871 b 810 693 796 871 810 839 l 810 343 b 544 71 810 151 736 71 b 292 349 354 71 292 168 l 292 742 b 428 871 292 846 310 871 l 428 913 l 28 913 l 28 871 b 164 749 138 871 164 846 l 164 347 b 518 -17 164 89 272 -17 b 889 363 781 -17 889 110 l 889 686 b 1008 876 889 839 901 851 b 1144 1050 1115 901 1144 1003 b 1060 1153 1144 1121 1101 1153 b 1000 1097 1022 1153 1000 1125 b 1046 963 1000 1053 1046 997 b 947 913 1046 936 1029 913 l 679 913 z m 421 969 l 485 969 l 706 1118 l 706 1147 l 567 1147 z "},"Ữ":{"ha":1058,"x_min":0,"x_max":0,"o":"m 679 871 b 810 693 796 871 810 839 l 810 343 b 544 71 810 151 736 71 b 292 349 354 71 292 168 l 292 742 b 428 871 292 846 310 871 l 428 913 l 28 913 l 28 871 b 164 749 138 871 164 846 l 164 347 b 518 -17 164 89 272 -17 b 889 363 781 -17 889 110 l 889 686 b 1008 876 889 839 901 851 b 1144 1050 1115 901 1144 1003 b 1060 1153 1144 1121 1101 1153 b 1000 1097 1022 1153 1000 1125 b 1046 963 1000 1053 1046 997 b 947 913 1046 936 1029 913 l 679 913 z m 754 1133 b 672 1076 738 1086 710 1076 b 479 1126 607 1076 563 1126 b 338 989 410 1126 354 1078 l 374 989 b 453 1043 388 1032 418 1043 b 643 992 521 1043 563 992 b 790 1133 719 992 768 1031 z "},"Ử":{"ha":1058,"x_min":0,"x_max":0,"o":"m 679 871 b 810 693 796 871 810 839 l 810 343 b 544 71 810 151 736 71 b 292 349 354 71 292 168 l 292 742 b 428 871 292 846 310 871 l 428 913 l 28 913 l 28 871 b 164 749 138 871 164 846 l 164 347 b 518 -17 164 89 272 -17 b 889 363 781 -17 889 110 l 889 686 b 1008 876 889 839 901 851 b 1144 1050 1115 901 1144 1003 b 1060 1153 1144 1121 1101 1153 b 1000 1097 1022 1153 1000 1125 b 1046 963 1000 1053 1046 997 b 947 913 1046 936 1029 913 l 679 913 z m 578 969 l 578 1024 b 697 1140 621 1031 697 1056 b 568 1249 697 1199 657 1249 b 444 1182 507 1249 444 1226 b 482 1143 444 1160 458 1143 b 569 1208 528 1143 506 1208 b 611 1143 590 1208 611 1201 b 521 1047 611 1083 592 1049 l 521 969 z "},"Ự":{"ha":1058,"x_min":0,"x_max":0,"o":"m 679 871 b 810 693 796 871 810 839 l 810 343 b 544 71 810 151 736 71 b 292 349 354 71 292 168 l 292 742 b 428 871 292 846 310 871 l 428 913 l 28 913 l 28 871 b 164 749 138 871 164 846 l 164 347 b 518 -17 164 89 272 -17 b 889 363 781 -17 889 110 l 889 686 b 1008 876 889 839 901 851 b 1144 1050 1115 901 1144 1003 b 1060 1153 1144 1121 1101 1153 b 1000 1097 1022 1153 1000 1125 b 1046 963 1000 1053 1046 997 b 947 913 1046 936 1029 913 l 679 913 z m 526 -94 b 447 -172 478 -94 447 -131 b 526 -251 447 -215 479 -251 b 606 -172 575 -251 606 -215 b 526 -94 606 -131 575 -94 z "},"Ṽ":{"ha":944,"x_min":0,"x_max":0,"o":"m 565 314 l 517 175 l 510 175 l 456 321 l 288 733 b 264 818 271 774 264 800 b 358 871 264 869 322 871 l 358 913 l -14 913 l -14 871 b 132 744 61 871 92 838 l 450 -7 l 506 -7 l 792 690 b 954 871 858 847 876 871 l 954 913 l 663 913 l 663 871 b 756 824 728 871 756 861 b 740 756 756 799 749 776 z m 672 1133 b 590 1076 656 1086 628 1076 b 397 1126 525 1076 481 1126 b 256 989 328 1126 272 1078 l 292 989 b 371 1043 306 1032 336 1043 b 561 992 439 1043 481 992 b 708 1133 638 992 686 1031 z "},"Ṿ":{"ha":944,"x_min":0,"x_max":0,"o":"m 565 314 l 517 175 l 510 175 l 456 321 l 288 733 b 264 818 271 774 264 800 b 358 871 264 869 322 871 l 358 913 l -14 913 l -14 871 b 132 744 61 871 92 838 l 450 -7 l 506 -7 l 792 690 b 954 871 858 847 876 871 l 954 913 l 663 913 l 663 871 b 756 824 728 871 756 861 b 740 756 756 799 749 776 z m 476 -94 b 397 -172 428 -94 397 -131 b 476 -251 397 -215 429 -251 b 556 -172 525 -251 556 -215 b 476 -94 556 -131 525 -94 z "},"Ẁ":{"ha":1311,"x_min":0,"x_max":0,"o":"m 1310 913 l 1024 913 l 1024 871 b 1117 813 1088 871 1117 854 b 1092 692 1117 778 1106 736 l 933 231 l 926 231 l 881 368 l 736 743 b 713 824 726 768 713 801 b 818 871 713 854 749 871 l 818 913 l 456 913 l 456 871 b 601 739 535 871 557 860 l 640 632 l 483 226 l 476 226 l 433 343 l 272 749 b 253 825 258 785 253 808 b 344 871 253 854 274 871 l 344 913 l -14 913 l -14 871 b 139 719 58 868 96 836 l 428 -8 l 463 -8 l 672 543 l 678 543 l 886 -8 l 924 -8 l 1192 775 b 1310 871 1217 846 1244 869 z m 628 1147 l 489 1147 l 489 1118 l 708 969 l 774 969 z "},"Ẃ":{"ha":1311,"x_min":0,"x_max":0,"o":"m 1310 913 l 1024 913 l 1024 871 b 1117 813 1088 871 1117 854 b 1092 692 1117 778 1106 736 l 933 231 l 926 231 l 881 368 l 736 743 b 713 824 726 768 713 801 b 818 871 713 854 749 871 l 818 913 l 456 913 l 456 871 b 601 739 535 871 557 860 l 640 632 l 483 226 l 476 226 l 433 343 l 272 749 b 253 825 258 785 253 808 b 344 871 253 854 274 871 l 344 913 l -14 913 l -14 871 b 139 719 58 868 96 836 l 428 -8 l 463 -8 l 672 543 l 678 543 l 886 -8 l 924 -8 l 1192 775 b 1310 871 1217 846 1244 869 z m 506 969 l 569 969 l 790 1118 l 790 1147 l 651 1147 z "},"Ŵ":{"ha":1311,"x_min":0,"x_max":0,"o":"m 1310 913 l 1024 913 l 1024 871 b 1117 813 1088 871 1117 854 b 1092 692 1117 778 1106 736 l 933 231 l 926 231 l 881 368 l 736 743 b 713 824 726 768 713 801 b 818 871 713 854 749 871 l 818 913 l 456 913 l 456 871 b 601 739 535 871 557 860 l 640 632 l 483 226 l 476 226 l 433 343 l 272 749 b 253 825 258 785 253 808 b 344 871 253 854 274 871 l 344 913 l -14 913 l -14 871 b 139 719 58 868 96 836 l 428 -8 l 463 -8 l 672 543 l 678 543 l 886 -8 l 924 -8 l 1192 775 b 1310 871 1217 846 1244 869 z m 843 969 l 690 1161 l 590 1161 l 435 969 l 493 969 l 639 1082 l 788 969 z "},"Ẅ":{"ha":1311,"x_min":0,"x_max":0,"o":"m 1310 913 l 1024 913 l 1024 871 b 1117 813 1088 871 1117 854 b 1092 692 1117 778 1106 736 l 933 231 l 926 231 l 881 368 l 736 743 b 713 824 726 768 713 801 b 818 871 713 854 749 871 l 818 913 l 456 913 l 456 871 b 601 739 535 871 557 860 l 640 632 l 483 226 l 476 226 l 433 343 l 272 749 b 253 825 258 785 253 808 b 344 871 253 854 274 871 l 344 913 l -14 913 l -14 871 b 139 719 58 868 96 836 l 428 -8 l 463 -8 l 672 543 l 678 543 l 886 -8 l 924 -8 l 1192 775 b 1310 871 1217 846 1244 869 z m 485 1133 b 407 1057 438 1133 407 1097 b 485 981 407 1017 439 981 b 564 1057 533 981 564 1017 b 485 1133 564 1097 533 1133 z m 792 1133 b 714 1057 744 1133 714 1097 b 792 981 714 1017 746 981 b 871 1057 840 981 871 1017 b 792 1133 871 1097 840 1133 z "},"Ẇ":{"ha":1311,"x_min":0,"x_max":0,"o":"m 1310 913 l 1024 913 l 1024 871 b 1117 813 1088 871 1117 854 b 1092 692 1117 778 1106 736 l 933 231 l 926 231 l 881 368 l 736 743 b 713 824 726 768 713 801 b 818 871 713 854 749 871 l 818 913 l 456 913 l 456 871 b 601 739 535 871 557 860 l 640 632 l 483 226 l 476 226 l 433 343 l 272 749 b 253 825 258 785 253 808 b 344 871 253 854 274 871 l 344 913 l -14 913 l -14 871 b 139 719 58 868 96 836 l 428 -8 l 463 -8 l 672 543 l 678 543 l 886 -8 l 924 -8 l 1192 775 b 1310 871 1217 846 1244 869 z m 639 1135 b 561 1057 592 1135 561 1099 b 639 979 561 1015 593 979 b 718 1057 688 979 718 1015 b 639 1135 718 1099 688 1135 z "},"Ẉ":{"ha":1311,"x_min":0,"x_max":0,"o":"m 1310 913 l 1024 913 l 1024 871 b 1117 813 1088 871 1117 854 b 1092 692 1117 778 1106 736 l 933 231 l 926 231 l 881 368 l 736 743 b 713 824 726 768 713 801 b 818 871 713 854 749 871 l 818 913 l 456 913 l 456 871 b 601 739 535 871 557 860 l 640 632 l 483 226 l 476 226 l 433 343 l 272 749 b 253 825 258 785 253 808 b 344 871 253 854 274 871 l 344 913 l -14 913 l -14 871 b 139 719 58 868 96 836 l 428 -8 l 463 -8 l 672 543 l 678 543 l 886 -8 l 924 -8 l 1192 775 b 1310 871 1217 846 1244 869 z m 667 -94 b 588 -172 618 -94 588 -131 b 667 -251 588 -215 619 -251 b 746 -172 715 -251 746 -215 b 667 -94 746 -131 715 -94 z "},"Ẍ":{"ha":922,"x_min":0,"x_max":0,"o":"m 917 0 l 917 40 b 774 124 847 42 819 57 l 519 496 l 713 747 b 906 871 789 849 817 868 l 906 913 l 586 913 l 586 871 b 668 839 653 871 668 860 b 631 753 668 817 653 789 l 485 543 l 482 543 l 404 675 b 322 831 371 740 322 797 b 394 871 322 860 343 871 l 410 871 l 410 913 l 24 913 l 24 871 b 200 753 119 871 133 850 l 399 456 l 167 150 b 3 40 100 63 76 43 l 3 0 l 310 0 l 310 40 b 221 79 236 40 221 56 b 267 167 221 106 249 143 l 435 404 l 438 404 l 478 335 l 565 197 b 615 79 601 140 615 108 b 542 40 615 49 596 40 l 528 40 l 528 0 z m 321 1133 b 243 1057 274 1133 243 1097 b 321 981 243 1017 275 981 b 400 1057 369 981 400 1017 b 321 1133 400 1097 369 1133 z m 628 1133 b 550 1057 581 1133 550 1097 b 628 981 550 1017 582 981 b 707 1057 676 981 707 1017 b 628 1133 707 1097 676 1133 z "},"Ẋ":{"ha":922,"x_min":0,"x_max":0,"o":"m 917 0 l 917 40 b 774 124 847 42 819 57 l 519 496 l 713 747 b 906 871 789 849 817 868 l 906 913 l 586 913 l 586 871 b 668 839 653 871 668 860 b 631 753 668 817 653 789 l 485 543 l 482 543 l 404 675 b 322 831 371 740 322 797 b 394 871 322 860 343 871 l 410 871 l 410 913 l 24 913 l 24 871 b 200 753 119 871 133 850 l 399 456 l 167 150 b 3 40 100 63 76 43 l 3 0 l 310 0 l 310 40 b 221 79 236 40 221 56 b 267 167 221 106 249 143 l 435 404 l 438 404 l 478 335 l 565 197 b 615 79 601 140 615 108 b 542 40 615 49 596 40 l 528 40 l 528 0 z m 475 1135 b 397 1057 428 1135 397 1099 b 475 979 397 1015 429 979 b 554 1057 524 979 554 1015 b 475 1135 554 1099 524 1135 z "},"Ỳ":{"ha":899,"x_min":0,"x_max":0,"o":"m 906 913 l 603 913 l 603 871 b 692 833 674 871 692 858 b 675 779 692 813 685 794 l 492 467 l 483 467 l 422 575 l 297 775 b 274 839 283 796 274 821 b 367 871 274 858 289 871 l 367 913 l -7 913 l -7 871 b 213 668 58 871 97 856 l 389 383 l 389 182 b 250 42 389 58 372 42 l 250 0 l 661 0 l 661 42 b 517 182 544 42 517 60 l 517 390 l 722 733 b 906 871 792 846 824 864 z m 461 1147 l 322 1147 l 322 1118 l 542 969 l 607 969 z "},"Ý":{"ha":899,"x_min":0,"x_max":0,"o":"m 906 913 l 603 913 l 603 871 b 692 833 674 871 692 858 b 675 779 692 813 685 794 l 492 467 l 483 467 l 422 575 l 297 775 b 274 839 283 796 274 821 b 367 871 274 858 289 871 l 367 913 l -7 913 l -7 871 b 213 668 58 871 97 856 l 389 383 l 389 182 b 250 42 389 58 372 42 l 250 0 l 661 0 l 661 42 b 517 182 544 42 517 60 l 517 390 l 722 733 b 906 871 792 846 824 864 z m 339 969 l 403 969 l 624 1118 l 624 1147 l 485 1147 z "},"Ŷ":{"ha":899,"x_min":0,"x_max":0,"o":"m 906 913 l 603 913 l 603 871 b 692 833 674 871 692 858 b 675 779 692 813 685 794 l 492 467 l 483 467 l 422 575 l 297 775 b 274 839 283 796 274 821 b 367 871 274 858 289 871 l 367 913 l -7 913 l -7 871 b 213 668 58 871 97 856 l 389 383 l 389 182 b 250 42 389 58 372 42 l 250 0 l 661 0 l 661 42 b 517 182 544 42 517 60 l 517 390 l 722 733 b 906 871 792 846 824 864 z m 676 969 l 524 1161 l 424 1161 l 268 969 l 326 969 l 472 1082 l 621 969 z "},"Ỹ":{"ha":899,"x_min":0,"x_max":0,"o":"m 906 913 l 603 913 l 603 871 b 692 833 674 871 692 858 b 675 779 692 813 685 794 l 492 467 l 483 467 l 422 575 l 297 775 b 274 839 283 796 274 821 b 367 871 274 858 289 871 l 367 913 l -7 913 l -7 871 b 213 668 58 871 97 856 l 389 383 l 389 182 b 250 42 389 58 372 42 l 250 0 l 661 0 l 661 42 b 517 182 544 42 517 60 l 517 390 l 722 733 b 906 871 792 846 824 864 z m 669 1133 b 588 1076 653 1086 625 1076 b 394 1126 522 1076 478 1126 b 253 989 325 1126 269 1078 l 289 989 b 368 1043 303 1032 333 1043 b 558 992 436 1043 478 992 b 706 1133 635 992 683 1031 z "},"Ÿ":{"ha":899,"x_min":0,"x_max":0,"o":"m 906 913 l 603 913 l 603 871 b 692 833 674 871 692 858 b 675 779 692 813 685 794 l 492 467 l 483 467 l 422 575 l 297 775 b 274 839 283 796 274 821 b 367 871 274 858 289 871 l 367 913 l -7 913 l -7 871 b 213 668 58 871 97 856 l 389 383 l 389 182 b 250 42 389 58 372 42 l 250 0 l 661 0 l 661 42 b 517 182 544 42 517 60 l 517 390 l 722 733 b 906 871 792 846 824 864 z m 318 1133 b 240 1057 271 1133 240 1097 b 318 981 240 1017 272 981 b 397 1057 367 981 397 1017 b 318 1133 397 1097 367 1133 z m 625 1133 b 547 1057 578 1133 547 1097 b 625 981 547 1017 579 981 b 704 1057 674 981 704 1017 b 625 1133 704 1097 674 1133 z "},"Ẏ":{"ha":899,"x_min":0,"x_max":0,"o":"m 906 913 l 603 913 l 603 871 b 692 833 674 871 692 858 b 675 779 692 813 685 794 l 492 467 l 483 467 l 422 575 l 297 775 b 274 839 283 796 274 821 b 367 871 274 858 289 871 l 367 913 l -7 913 l -7 871 b 213 668 58 871 97 856 l 389 383 l 389 182 b 250 42 389 58 372 42 l 250 0 l 661 0 l 661 42 b 517 182 544 42 517 60 l 517 390 l 722 733 b 906 871 792 846 824 864 z m 472 1135 b 394 1057 425 1135 394 1099 b 472 979 394 1015 426 979 b 551 1057 521 979 551 1015 b 472 1135 551 1099 521 1135 z "},"Ỷ":{"ha":899,"x_min":0,"x_max":0,"o":"m 906 913 l 603 913 l 603 871 b 692 833 674 871 692 858 b 675 779 692 813 685 794 l 492 467 l 483 467 l 422 575 l 297 775 b 274 839 283 796 274 821 b 367 871 274 858 289 871 l 367 913 l -7 913 l -7 871 b 213 668 58 871 97 856 l 389 383 l 389 182 b 250 42 389 58 372 42 l 250 0 l 661 0 l 661 42 b 517 182 544 42 517 60 l 517 390 l 722 733 b 906 871 792 846 824 864 z m 496 969 l 496 1024 b 615 1140 539 1031 615 1056 b 486 1249 615 1199 575 1249 b 363 1182 425 1249 363 1226 b 400 1143 363 1160 376 1143 b 488 1208 446 1143 424 1208 b 529 1143 508 1208 529 1201 b 439 1047 529 1083 510 1049 l 439 969 z "},"Ỵ":{"ha":899,"x_min":0,"x_max":0,"o":"m 906 913 l 603 913 l 603 871 b 692 833 674 871 692 858 b 675 779 692 813 685 794 l 492 467 l 483 467 l 422 575 l 297 775 b 274 839 283 796 274 821 b 367 871 274 858 289 871 l 367 913 l -7 913 l -7 871 b 213 668 58 871 97 856 l 389 383 l 389 182 b 250 42 389 58 372 42 l 250 0 l 661 0 l 661 42 b 517 182 544 42 517 60 l 517 390 l 722 733 b 906 871 792 846 824 864 z m 453 -94 b 374 -172 404 -94 374 -131 b 453 -251 374 -215 406 -251 b 532 -172 501 -251 532 -215 b 453 -94 532 -131 501 -94 z "},"Ź":{"ha":825,"x_min":0,"x_max":0,"o":"m 788 258 l 744 258 b 506 61 699 104 664 61 l 215 61 l 215 69 l 778 874 l 778 913 l 99 913 l 83 669 l 128 669 b 354 850 156 824 211 850 l 606 850 l 606 839 l 39 40 l 39 0 l 747 0 z m 303 969 l 367 969 l 588 1118 l 588 1147 l 449 1147 z "},"Ẑ":{"ha":825,"x_min":0,"x_max":0,"o":"m 788 258 l 744 258 b 506 61 699 104 664 61 l 215 61 l 215 69 l 778 874 l 778 913 l 99 913 l 83 669 l 128 669 b 354 850 156 824 211 850 l 606 850 l 606 839 l 39 40 l 39 0 l 747 0 z m 640 969 l 488 1161 l 388 1161 l 232 969 l 290 969 l 436 1082 l 585 969 z "},"Ž":{"ha":825,"x_min":0,"x_max":0,"o":"m 788 258 l 744 258 b 506 61 699 104 664 61 l 215 61 l 215 69 l 778 874 l 778 913 l 99 913 l 83 669 l 128 669 b 354 850 156 824 211 850 l 606 850 l 606 839 l 39 40 l 39 0 l 747 0 z m 232 1161 l 388 969 l 486 969 l 640 1161 l 585 1161 l 438 1049 l 290 1161 z "},"Ż":{"ha":825,"x_min":0,"x_max":0,"o":"m 788 258 l 744 258 b 506 61 699 104 664 61 l 215 61 l 215 69 l 778 874 l 778 913 l 99 913 l 83 669 l 128 669 b 354 850 156 824 211 850 l 606 850 l 606 839 l 39 40 l 39 0 l 747 0 z m 436 1135 b 358 1057 389 1135 358 1099 b 436 979 358 1015 390 979 b 515 1057 485 979 515 1015 b 436 1135 515 1099 485 1135 z "},"Ẕ":{"ha":825,"x_min":0,"x_max":0,"o":"m 788 258 l 744 258 b 506 61 699 104 664 61 l 215 61 l 215 69 l 778 874 l 778 913 l 99 913 l 83 669 l 128 669 b 354 850 156 824 211 850 l 606 850 l 606 839 l 39 40 l 39 0 l 747 0 z m 603 -196 l 603 -119 l 200 -119 l 200 -196 z "},"Ẓ":{"ha":825,"x_min":0,"x_max":0,"o":"m 788 258 l 744 258 b 506 61 699 104 664 61 l 215 61 l 215 69 l 778 874 l 778 913 l 99 913 l 83 669 l 128 669 b 354 850 156 824 211 850 l 606 850 l 606 839 l 39 40 l 39 0 l 747 0 z m 401 -94 b 322 -172 353 -94 322 -131 b 401 -251 322 -215 354 -251 b 481 -172 450 -251 481 -215 b 401 -94 481 -131 450 -94 z "},"Ƶ":{"ha":825,"x_min":0,"x_max":0,"o":"m 789 258 l 746 258 b 507 61 700 104 665 61 l 217 61 l 217 69 l 485 454 l 678 454 l 678 508 l 522 508 l 779 874 l 779 913 l 100 913 l 85 669 l 129 669 b 356 850 157 824 213 850 l 607 850 l 607 839 l 371 508 l 158 508 l 158 454 l 333 454 l 40 40 l 40 0 l 749 0 z "},"Ɛ":{"ha":719,"x_min":0,"x_max":0,"o":"m 371 868 b 593 703 533 868 488 703 b 660 767 633 703 660 728 b 378 924 660 850 592 924 b 69 711 210 924 69 847 b 271 492 69 572 186 526 l 271 483 b 56 236 176 467 56 386 b 363 -15 56 42 200 -15 b 685 168 521 -15 625 69 l 654 196 b 406 78 589 119 514 78 b 193 253 286 78 193 117 b 428 449 193 385 268 449 l 501 449 l 501 518 l 432 518 b 200 708 304 518 200 561 b 371 868 200 806 261 868 z "},"Ⅎ":{"ha":817,"x_min":0,"x_max":0,"o":"m 19 228 l 28 0 l 767 0 l 767 42 b 632 157 667 42 632 61 l 632 751 b 767 871 632 854 654 871 l 767 913 l 360 913 l 360 871 b 504 760 468 871 504 854 l 504 468 l 340 468 b 193 599 221 468 193 486 l 146 599 l 146 276 l 193 276 b 340 414 193 389 221 414 l 504 414 l 504 63 l 283 63 b 64 228 101 63 89 96 z "},"Ŋ":{"ha":1031,"x_min":0,"x_max":0,"o":"m 993 913 l 665 913 l 665 871 b 797 692 763 871 797 856 l 797 229 l 758 271 l 276 913 l 40 913 l 40 871 b 171 800 103 871 126 857 l 171 207 b 40 42 171 67 150 42 l 40 0 l 365 0 l 365 42 b 239 207 261 42 239 68 l 239 732 l 279 689 l 797 0 l 797 -51 b 676 -260 797 -206 743 -260 b 539 -162 614 -260 615 -162 b 472 -226 500 -162 472 -189 b 626 -326 472 -293 536 -326 b 867 -21 792 -326 867 -249 l 867 685 b 993 871 867 864 914 871 z "},"Ð":{"ha":1024,"x_min":0,"x_max":0,"o":"m 56 429 l 192 429 l 192 172 b 56 42 192 60 176 42 l 56 0 l 453 0 b 953 457 753 0 953 138 b 438 913 953 796 726 913 l 56 913 l 56 871 b 192 754 158 871 192 856 l 192 496 l 56 496 z m 319 853 b 388 856 347 856 364 856 b 800 444 675 856 800 714 b 401 53 800 139 654 53 b 319 57 374 53 347 54 l 319 429 l 557 429 l 557 496 l 319 496 z "},"Þ":{"ha":794,"x_min":0,"x_max":0,"o":"m 185 182 b 47 42 185 60 174 42 l 47 0 l 461 0 l 461 42 b 311 182 338 42 311 65 l 311 238 b 388 228 332 235 364 228 b 753 506 569 228 753 290 b 414 736 753 692 583 736 b 311 729 367 736 335 732 l 311 751 b 461 871 311 835 342 871 l 461 913 l 47 913 l 47 871 b 185 729 179 871 185 838 z m 383 685 b 613 494 536 685 613 621 b 381 286 613 335 533 286 b 311 292 353 286 329 288 l 311 681 b 383 685 340 683 360 685 z "},"Ĳ":{"ha":1046,"x_min":0,"x_max":0,"o":"m 185 182 b 47 42 185 63 172 42 l 47 0 l 447 0 l 447 42 b 311 182 324 42 311 63 l 311 729 b 447 871 311 838 315 871 l 447 913 l 47 913 l 47 871 b 185 729 179 871 185 838 z m 761 171 b 696 32 761 74 750 32 b 557 161 632 32 639 161 b 496 93 518 161 496 135 b 661 -17 496 18 571 -17 b 889 211 793 -17 889 28 l 889 729 b 1017 871 889 838 901 871 l 1017 913 l 625 913 l 625 871 b 761 729 757 871 761 838 z "},"a":{"ha":667,"x_min":0,"x_max":0,"o":"m 428 86 b 511 -7 436 25 450 -7 b 661 89 582 -7 615 22 l 640 111 b 575 76 621 90 601 76 b 533 144 546 76 533 88 l 533 460 b 325 674 533 604 476 674 b 81 521 174 674 81 599 b 139 454 81 475 111 454 b 200 518 178 454 200 475 b 293 631 200 601 214 631 b 418 464 376 631 418 585 l 418 403 b 53 146 299 365 53 329 b 218 -10 53 57 111 -10 b 422 86 307 -10 357 29 z m 418 128 b 275 67 371 89 321 67 b 175 179 215 67 175 110 b 418 357 175 288 292 325 z "},"b":{"ha":725,"x_min":0,"x_max":0,"o":"m 226 981 l 190 981 l 11 932 l 11 893 b 50 896 11 893 28 896 b 111 822 103 896 111 885 l 111 42 b 343 -14 144 24 225 -14 b 676 365 536 -14 676 117 b 444 674 676 546 582 674 b 231 556 351 674 279 614 l 226 556 z m 226 494 b 383 579 251 528 313 579 b 550 321 515 579 550 454 b 368 43 550 167 500 43 b 226 108 294 43 253 76 z "},"c":{"ha":619,"x_min":0,"x_max":0,"o":"m 567 206 b 367 90 504 125 457 90 b 156 379 224 90 156 210 b 336 622 156 539 224 622 b 513 464 456 622 410 464 b 571 526 551 464 571 486 b 360 674 571 607 490 674 b 46 314 160 674 46 532 b 324 -14 46 121 150 -14 b 593 186 472 -14 540 74 z "},"d":{"ha":749,"x_min":0,"x_max":0,"o":"m 714 25 l 714 63 l 685 63 b 615 149 633 63 615 76 l 615 981 l 578 981 l 403 932 l 403 893 b 439 896 403 893 426 896 b 500 822 493 896 500 883 l 500 640 b 365 674 457 664 411 674 b 46 304 190 674 46 533 b 283 -11 46 126 126 -11 b 499 89 375 -11 446 42 l 504 89 l 504 -7 l 536 -7 z m 500 140 b 349 89 451 107 414 89 b 167 358 231 89 167 167 b 363 618 167 533 246 618 b 500 507 449 618 489 564 z "},"e":{"ha":644,"x_min":0,"x_max":0,"o":"m 576 199 b 376 90 532 140 489 90 b 160 369 265 90 160 178 l 599 369 b 340 674 592 564 492 674 b 47 331 178 674 47 563 b 343 -14 47 107 176 -14 b 603 179 486 -14 553 74 z m 158 421 b 319 618 169 550 225 618 b 468 421 418 618 464 524 z "},"f":{"ha":426,"x_min":0,"x_max":0,"o":"m 36 650 l 36 592 l 142 592 l 142 165 b 25 40 142 57 126 40 l 25 0 l 399 0 l 399 40 b 257 165 283 40 257 57 l 257 592 l 426 592 l 426 650 l 257 650 l 257 781 b 324 939 257 897 272 939 b 469 833 393 939 400 833 b 526 893 501 833 526 853 b 371 990 526 956 461 990 b 186 889 274 990 224 953 b 142 650 150 825 142 763 z "},"g":{"ha":672,"x_min":0,"x_max":0,"o":"m 178 256 b 64 97 113 206 64 147 b 142 -3 64 58 94 21 l 142 -8 b 29 -174 67 -81 29 -128 b 265 -326 29 -250 83 -326 b 646 -76 440 -326 646 -262 b 338 89 646 83 513 89 b 174 144 210 89 174 103 b 210 238 174 168 196 218 b 329 217 246 225 285 217 b 575 428 475 217 575 299 b 525 571 575 497 544 543 l 525 578 l 656 574 l 656 649 l 476 639 b 322 674 476 639 414 674 b 71 447 175 674 71 586 b 178 258 71 357 111 297 z m 313 624 b 451 436 401 624 451 549 b 331 265 451 304 400 265 b 193 453 240 265 193 333 b 313 624 193 569 240 624 z m 176 -14 b 333 -17 196 -14 222 -15 b 575 -115 426 -18 575 -15 b 346 -247 575 -175 510 -247 b 138 -126 204 -247 138 -207 b 176 -14 138 -97 147 -65 z "},"h":{"ha":801,"x_min":0,"x_max":0,"o":"m 254 499 b 426 585 322 561 372 585 b 554 375 539 585 554 489 l 554 135 b 453 40 554 68 549 40 l 453 0 l 772 0 l 772 40 b 669 140 685 40 669 67 l 669 417 b 483 674 669 531 643 674 b 258 560 410 674 346 642 l 254 560 l 254 981 l 217 981 l 31 932 l 31 893 b 71 896 31 893 49 896 b 139 840 108 896 139 889 l 139 129 b 42 40 139 51 114 40 l 42 0 l 357 0 l 357 40 b 254 135 261 40 254 63 z "},"i":{"ha":396,"x_min":0,"x_max":0,"o":"m 201 935 b 122 857 153 935 122 899 b 201 778 122 814 154 778 b 281 857 250 778 281 814 b 201 935 281 899 250 935 z m 357 39 b 257 140 264 39 257 60 l 257 669 l 221 669 l 46 631 l 46 590 b 81 593 46 590 61 593 b 142 528 121 593 142 588 l 142 140 b 44 39 142 61 138 39 l 44 0 l 357 0 z "},"j":{"ha":365,"x_min":0,"x_max":0,"o":"m 254 669 l 217 669 l 36 631 l 36 589 b 78 593 36 589 56 593 b 139 518 128 593 139 579 l 139 -44 b 65 -265 139 -193 133 -265 b -71 -168 1 -265 -4 -168 b -132 -226 -108 -168 -132 -192 b 15 -326 -132 -287 -76 -326 b 254 -3 179 -326 254 -222 z m 193 935 b 113 857 143 935 113 899 b 193 778 113 814 146 778 b 275 857 242 778 275 814 b 193 935 275 899 242 935 z "},"k":{"ha":753,"x_min":0,"x_max":0,"o":"m 749 0 l 749 40 b 601 121 690 40 668 44 l 357 396 l 426 453 b 699 615 583 590 608 615 l 699 657 l 399 657 l 399 615 b 467 590 451 615 467 608 b 442 546 467 568 447 551 l 263 368 l 254 368 l 254 981 l 217 981 l 36 932 l 36 894 b 83 897 36 894 64 897 b 139 826 129 897 139 885 l 139 132 b 42 40 139 56 125 40 l 42 0 l 357 0 l 357 40 b 254 126 269 40 254 56 l 254 338 l 263 338 l 481 90 b 496 57 488 83 496 69 b 442 40 496 44 482 40 l 442 0 z "},"l":{"ha":393,"x_min":0,"x_max":0,"o":"m 361 40 b 254 140 261 40 254 60 l 254 981 l 219 981 l 36 932 l 36 894 b 81 897 36 894 57 897 b 139 838 115 897 139 894 l 139 140 b 42 40 139 63 133 40 l 42 0 l 361 0 z "},"m":{"ha":1183,"x_min":0,"x_max":0,"o":"m 257 496 b 431 585 297 533 358 585 b 542 436 494 585 542 554 l 542 161 b 435 40 542 64 533 40 l 435 0 l 764 0 l 764 40 b 657 161 664 40 657 65 l 657 499 b 817 585 703 538 760 585 b 936 428 882 585 936 554 l 936 161 b 838 40 936 76 932 40 l 838 0 l 1151 0 l 1151 40 b 1051 161 1056 40 1051 74 l 1051 444 b 872 674 1051 613 981 674 b 651 558 799 674 728 633 l 646 558 b 492 674 618 625 571 674 b 258 557 397 674 333 622 l 253 557 l 253 669 l 219 669 l 46 629 l 46 589 b 83 592 46 589 63 592 b 142 529 122 592 142 579 l 142 140 b 44 40 142 57 132 40 l 44 0 l 361 0 l 361 40 b 257 135 275 40 257 57 z "},"n":{"ha":800,"x_min":0,"x_max":0,"o":"m 668 426 b 482 674 668 586 608 674 b 258 557 394 674 333 624 l 253 557 l 254 669 l 222 669 l 46 629 l 46 589 b 83 592 46 589 60 592 b 142 531 121 592 142 581 l 142 140 b 44 39 142 63 138 39 l 44 0 l 363 0 l 363 39 b 257 140 263 39 257 63 l 257 497 b 425 585 299 535 350 585 b 553 392 488 585 553 558 l 553 140 b 450 39 553 63 549 39 l 450 0 l 771 0 l 771 39 b 668 140 678 39 668 63 z "},"o":{"ha":714,"x_min":0,"x_max":0,"o":"m 358 674 b 47 336 171 674 47 538 b 358 -14 47 111 164 -14 b 667 342 539 -14 667 108 b 358 674 667 547 549 674 z m 353 621 b 539 335 476 621 539 506 b 364 42 539 108 478 42 b 176 354 244 40 176 133 b 353 621 176 532 247 621 z "},"p":{"ha":746,"x_min":0,"x_max":0,"o":"m 244 669 l 210 669 l 35 631 l 35 590 b 79 593 35 590 61 593 b 132 522 125 593 132 575 l 132 -165 b 31 -267 132 -243 118 -267 l 31 -306 l 382 -306 l 382 -265 b 247 -157 274 -265 247 -247 l 247 25 l 253 25 b 393 -14 293 -3 340 -14 b 697 363 560 -14 697 126 b 464 674 697 544 601 674 b 249 553 382 674 315 631 l 244 553 z m 247 494 b 407 579 274 529 333 579 b 571 324 510 579 571 499 b 400 40 571 131 497 40 b 247 132 322 40 274 103 z "},"q":{"ha":724,"x_min":0,"x_max":0,"o":"m 704 -306 l 704 -267 b 613 -172 626 -267 613 -243 l 613 668 l 561 668 l 524 622 b 360 674 465 661 418 674 b 46 306 183 674 46 528 b 282 -11 46 113 138 -11 b 493 88 372 -11 432 33 l 497 88 l 497 -157 b 368 -267 497 -243 481 -267 l 368 -306 z m 497 143 b 349 90 458 111 417 90 b 165 358 210 90 165 207 b 358 618 165 532 242 618 b 497 508 432 618 479 578 z "},"r":{"ha":528,"x_min":0,"x_max":0,"o":"m 254 669 l 221 669 l 49 628 l 49 589 b 92 592 49 589 64 592 b 142 517 142 592 142 567 l 142 135 b 40 40 142 57 132 40 l 40 0 l 388 0 l 388 40 b 257 142 283 40 257 54 l 257 458 b 367 572 290 514 335 572 b 457 525 383 572 411 525 b 518 600 488 525 518 547 b 438 678 518 647 492 678 b 258 526 371 678 329 629 l 254 526 z "},"s":{"ha":549,"x_min":0,"x_max":0,"o":"m 54 228 l 58 -11 l 88 -11 l 117 21 l 119 21 b 278 -15 156 6 197 -15 b 511 165 403 -15 511 35 b 317 386 511 268 443 319 b 154 535 200 446 154 481 b 267 626 154 597 203 626 b 433 454 351 626 403 586 l 471 454 l 467 667 l 439 667 l 415 638 l 414 638 b 268 674 379 654 338 674 b 56 499 149 674 56 613 b 239 283 56 396 113 347 b 394 128 368 219 394 193 b 275 36 394 63 344 36 b 90 228 172 36 119 85 z "},"t":{"ha":438,"x_min":0,"x_max":0,"o":"m 407 125 b 310 68 372 86 354 68 b 243 200 256 68 243 101 l 243 592 l 400 592 l 400 650 l 243 650 l 244 847 l 208 847 b 51 624 158 729 117 664 l 51 592 l 128 592 l 128 161 b 261 -14 128 36 168 -14 b 433 103 350 -14 379 28 z "},"u":{"ha":792,"x_min":0,"x_max":0,"o":"m 750 63 l 736 63 b 653 154 669 63 653 72 l 653 664 l 619 664 l 425 643 l 425 604 b 538 524 514 604 538 597 l 538 158 b 367 75 482 110 438 75 b 242 258 294 75 242 117 l 242 664 l 211 664 l 32 643 l 32 604 b 126 522 107 603 126 597 l 126 240 b 308 -14 126 51 193 -14 b 536 100 397 -14 463 28 l 543 100 l 543 -7 l 574 -7 l 750 25 z "},"v":{"ha":668,"x_min":0,"x_max":0,"o":"m 692 657 l 449 657 l 449 617 b 528 579 499 617 528 610 b 518 533 528 557 519 540 l 399 219 l 369 135 l 361 135 l 335 218 l 217 528 b 203 582 208 547 203 564 b 275 617 203 604 221 617 l 275 657 l -18 657 l -18 617 b 94 515 42 617 58 601 l 301 -8 l 368 -8 l 588 525 b 692 617 615 597 638 617 z "},"w":{"ha":1040,"x_min":0,"x_max":0,"o":"m 1058 657 l 818 657 l 818 617 b 896 582 869 617 896 608 b 888 532 896 558 889 539 l 778 221 l 750 140 l 742 140 l 717 221 l 604 525 b 592 582 597 546 592 565 b 661 617 592 604 608 617 l 661 657 l 371 657 l 371 617 b 486 515 432 617 453 606 l 501 474 l 401 221 l 372 140 l 363 140 l 338 221 l 217 528 b 201 582 208 549 201 564 b 275 617 201 604 219 617 l 275 657 l -24 657 l -24 617 b 94 515 38 617 58 601 l 303 -8 l 367 -8 l 529 396 l 535 396 l 682 -8 l 749 -8 l 956 525 b 1058 617 983 597 1004 617 z "},"x":{"ha":665,"x_min":0,"x_max":0,"o":"m 669 0 l 669 40 b 558 121 618 40 597 65 l 388 363 l 535 551 b 646 617 567 592 599 617 l 646 657 l 417 657 l 417 618 b 474 585 461 618 474 606 b 424 490 474 563 461 542 l 358 396 l 353 396 l 319 457 b 247 586 272 535 247 564 b 314 618 247 607 269 618 l 314 657 l 15 657 l 15 617 b 138 533 72 617 89 603 l 282 326 l 115 110 b -3 40 69 56 44 40 l -3 0 l 229 0 l 229 40 b 167 61 183 40 167 46 b 200 119 167 72 186 97 l 314 283 l 319 283 l 347 235 l 435 100 b 444 71 442 89 444 81 b 379 40 444 47 428 40 l 379 0 z "},"y":{"ha":671,"x_min":0,"x_max":0,"o":"m 685 657 l 449 657 l 449 617 b 526 582 494 617 526 610 b 519 547 526 572 522 557 l 385 144 l 375 144 l 357 213 l 221 518 b 201 579 213 538 201 561 b 281 615 201 603 218 615 l 281 657 l -17 657 l -17 617 b 67 567 33 617 53 599 l 271 121 b 313 7 288 83 313 25 b 179 -225 313 -33 229 -225 b 72 -194 160 -225 119 -194 b 8 -254 36 -194 8 -212 b 107 -326 8 -307 50 -326 b 372 -31 225 -326 292 -243 l 589 539 b 685 617 608 593 629 617 z "},"z":{"ha":636,"x_min":0,"x_max":0,"o":"m 590 222 l 544 222 b 368 57 517 93 488 57 l 194 57 l 194 61 l 585 617 l 585 657 l 72 657 l 65 453 l 108 453 b 246 599 121 546 143 599 l 433 599 l 433 594 l 43 40 l 43 0 l 576 0 z "},"à":{"ha":667,"x_min":0,"x_max":0,"o":"m 428 86 b 511 -7 436 25 450 -7 b 661 89 582 -7 615 22 l 640 111 b 575 76 621 90 601 76 b 533 144 546 76 533 88 l 533 460 b 325 674 533 604 476 674 b 81 521 174 674 81 599 b 139 454 81 475 111 454 b 200 518 178 454 200 475 b 293 631 200 601 214 631 b 418 464 376 631 418 585 l 418 403 b 53 146 299 365 53 329 b 218 -10 53 57 111 -10 b 422 86 307 -10 357 29 z m 418 128 b 275 67 371 89 321 67 b 175 179 215 67 175 110 b 418 357 175 288 292 325 z m 299 936 l 171 936 l 171 911 l 342 724 l 396 724 z "},"á":{"ha":667,"x_min":0,"x_max":0,"o":"m 428 86 b 511 -7 436 25 450 -7 b 661 89 582 -7 615 22 l 640 111 b 575 76 621 90 601 76 b 533 144 546 76 533 88 l 533 460 b 325 674 533 604 476 674 b 81 521 174 674 81 599 b 139 454 81 475 111 454 b 200 518 178 454 200 475 b 293 631 200 601 214 631 b 418 464 376 631 418 585 l 418 403 b 53 146 299 365 53 329 b 218 -10 53 57 111 -10 b 422 86 307 -10 357 29 z m 418 128 b 275 67 371 89 321 67 b 175 179 215 67 175 110 b 418 357 175 288 292 325 z m 246 724 l 300 724 l 472 911 l 472 936 l 343 936 z "},"â":{"ha":667,"x_min":0,"x_max":0,"o":"m 428 86 b 511 -7 436 25 450 -7 b 661 89 582 -7 615 22 l 640 111 b 575 76 621 90 601 76 b 533 144 546 76 533 88 l 533 460 b 325 674 533 604 476 674 b 81 521 174 674 81 599 b 139 454 81 475 111 454 b 200 518 178 454 200 475 b 293 631 200 601 214 631 b 418 464 376 631 418 585 l 418 403 b 53 146 299 365 53 329 b 218 -10 53 57 111 -10 b 422 86 307 -10 357 29 z m 418 128 b 275 67 371 89 321 67 b 175 179 215 67 175 110 b 418 357 175 288 292 325 z m 517 724 l 367 936 l 275 936 l 125 724 l 179 724 l 321 860 l 464 724 z "},"ầ":{"ha":667,"x_min":0,"x_max":0,"o":"m 428 86 b 511 -7 436 25 450 -7 b 661 89 582 -7 615 22 l 640 111 b 575 76 621 90 601 76 b 533 144 546 76 533 88 l 533 460 b 325 674 533 604 476 674 b 81 521 174 674 81 599 b 139 454 81 475 111 454 b 200 518 178 454 200 475 b 293 631 200 601 214 631 b 418 464 376 631 418 585 l 418 403 b 53 146 299 365 53 329 b 218 -10 53 57 111 -10 b 422 86 307 -10 357 29 z m 418 128 b 275 67 371 89 321 67 b 175 179 215 67 175 110 b 418 357 175 288 292 325 z m 517 724 l 367 922 l 275 922 l 125 724 l 179 724 l 321 846 l 464 724 z m 475 1047 l 360 1047 l 360 1022 l 518 849 l 565 849 z "},"ấ":{"ha":667,"x_min":0,"x_max":0,"o":"m 428 86 b 511 -7 436 25 450 -7 b 661 89 582 -7 615 22 l 640 111 b 575 76 621 90 601 76 b 533 144 546 76 533 88 l 533 460 b 325 674 533 604 476 674 b 81 521 174 674 81 599 b 139 454 81 475 111 454 b 200 518 178 454 200 475 b 293 631 200 601 214 631 b 418 464 376 631 418 585 l 418 403 b 53 146 299 365 53 329 b 218 -10 53 57 111 -10 b 422 86 307 -10 357 29 z m 418 128 b 275 67 371 89 321 67 b 175 179 215 67 175 110 b 418 357 175 288 292 325 z m 517 724 l 367 922 l 275 922 l 125 724 l 179 724 l 321 846 l 464 724 z m 450 849 l 497 849 l 656 1022 l 656 1047 l 540 1047 z "},"ẫ":{"ha":667,"x_min":0,"x_max":0,"o":"m 428 86 b 511 -7 436 25 450 -7 b 661 89 582 -7 615 22 l 640 111 b 575 76 621 90 601 76 b 533 144 546 76 533 88 l 533 460 b 325 674 533 604 476 674 b 81 521 174 674 81 599 b 139 454 81 475 111 454 b 200 518 178 454 200 475 b 293 631 200 601 214 631 b 418 464 376 631 418 585 l 418 403 b 53 146 299 365 53 329 b 218 -10 53 57 111 -10 b 422 86 307 -10 357 29 z m 418 128 b 275 67 371 89 321 67 b 175 179 215 67 175 110 b 418 357 175 288 292 325 z m 517 724 l 367 922 l 275 922 l 125 724 l 179 724 l 321 846 l 464 724 z m 511 1111 b 432 1047 494 1060 463 1047 b 247 1106 367 1047 326 1106 b 110 964 179 1106 125 1054 l 146 964 b 221 1026 158 1013 189 1026 b 401 968 286 1026 328 968 b 546 1111 478 968 525 1008 z "},"ẩ":{"ha":667,"x_min":0,"x_max":0,"o":"m 428 86 b 511 -7 436 25 450 -7 b 661 89 582 -7 615 22 l 640 111 b 575 76 621 90 601 76 b 533 144 546 76 533 88 l 533 460 b 325 674 533 604 476 674 b 81 521 174 674 81 599 b 139 454 81 475 111 454 b 200 518 178 454 200 475 b 293 631 200 601 214 631 b 418 464 376 631 418 585 l 418 403 b 53 146 299 365 53 329 b 218 -10 53 57 111 -10 b 422 86 307 -10 357 29 z m 418 128 b 275 67 371 89 321 67 b 175 179 215 67 175 110 b 418 357 175 288 292 325 z m 517 724 l 367 922 l 275 922 l 125 724 l 179 724 l 321 846 l 464 724 z m 514 849 l 514 900 b 633 1015 557 908 633 932 b 504 1124 633 1075 593 1124 b 381 1054 443 1124 381 1100 b 418 1014 381 1032 394 1014 b 506 1082 464 1014 442 1082 b 547 1018 526 1082 547 1075 b 457 925 547 960 528 928 l 457 849 z "},"ậ":{"ha":667,"x_min":0,"x_max":0,"o":"m 428 86 b 511 -7 436 25 450 -7 b 661 89 582 -7 615 22 l 640 111 b 575 76 621 90 601 76 b 533 144 546 76 533 88 l 533 460 b 325 674 533 604 476 674 b 81 521 174 674 81 599 b 139 454 81 475 111 454 b 200 518 178 454 200 475 b 293 631 200 601 214 631 b 418 464 376 631 418 585 l 418 403 b 53 146 299 365 53 329 b 218 -10 53 57 111 -10 b 422 86 307 -10 357 29 z m 418 128 b 275 67 371 89 321 67 b 175 179 215 67 175 110 b 418 357 175 288 292 325 z m 517 724 l 367 936 l 275 936 l 125 724 l 179 724 l 321 860 l 464 724 z m 321 -94 b 242 -172 272 -94 242 -131 b 321 -251 242 -215 274 -251 b 400 -172 369 -251 400 -215 b 321 -94 400 -131 369 -94 z "},"ã":{"ha":667,"x_min":0,"x_max":0,"o":"m 428 86 b 511 -7 436 25 450 -7 b 661 89 582 -7 615 22 l 640 111 b 575 76 621 90 601 76 b 533 144 546 76 533 88 l 533 460 b 325 674 533 604 476 674 b 81 521 174 674 81 599 b 139 454 81 475 111 454 b 200 518 178 454 200 475 b 293 631 200 601 214 631 b 418 464 376 631 418 585 l 418 403 b 53 146 299 365 53 329 b 218 -10 53 57 111 -10 b 422 86 307 -10 357 29 z m 418 128 b 275 67 371 89 321 67 b 175 179 215 67 175 110 b 418 357 175 288 292 325 z m 514 892 b 433 826 497 839 465 826 b 244 886 367 826 325 886 b 104 740 175 886 119 833 l 142 740 b 218 804 154 790 185 804 b 403 744 285 804 326 744 b 550 892 481 744 529 785 z "},"ä":{"ha":667,"x_min":0,"x_max":0,"o":"m 428 86 b 511 -7 436 25 450 -7 b 661 89 582 -7 615 22 l 640 111 b 575 76 621 90 601 76 b 533 144 546 76 533 88 l 533 460 b 325 674 533 604 476 674 b 81 521 174 674 81 599 b 139 454 81 475 111 454 b 200 518 178 454 200 475 b 293 631 200 601 214 631 b 418 464 376 631 418 585 l 418 403 b 53 146 299 365 53 329 b 218 -10 53 57 111 -10 b 422 86 307 -10 357 29 z m 418 128 b 275 67 371 89 321 67 b 175 179 215 67 175 110 b 418 357 175 288 292 325 z m 168 933 b 90 856 121 933 90 897 b 168 778 90 814 122 778 b 247 856 217 778 247 814 b 168 933 247 897 217 933 z m 472 933 b 394 856 425 933 394 897 b 472 778 394 814 426 778 b 551 856 521 778 551 814 b 472 933 551 897 521 933 z "},"ǟ":{"ha":667,"x_min":0,"x_max":0,"o":"m 428 86 b 511 -7 436 25 450 -7 b 661 89 582 -7 615 22 l 640 111 b 575 76 621 90 601 76 b 533 144 546 76 533 88 l 533 460 b 325 674 533 604 476 674 b 81 521 174 674 81 599 b 139 454 81 475 111 454 b 200 518 178 454 200 475 b 293 631 200 601 214 631 b 418 464 376 631 418 585 l 418 403 b 53 146 299 365 53 329 b 218 -10 53 57 111 -10 b 422 86 307 -10 357 29 z m 418 128 b 275 67 371 89 321 67 b 175 179 215 67 175 110 b 418 357 175 288 292 325 z m 168 926 b 90 849 121 926 90 890 b 168 771 90 807 122 771 b 247 849 217 771 247 807 b 168 926 247 890 217 926 z m 472 926 b 394 849 425 926 394 890 b 472 771 394 807 426 771 b 551 849 521 771 551 807 b 472 926 551 890 521 926 z m 522 993 l 522 1069 l 119 1069 l 119 993 z "},"ā":{"ha":667,"x_min":0,"x_max":0,"o":"m 428 86 b 511 -7 436 25 450 -7 b 661 89 582 -7 615 22 l 640 111 b 575 76 621 90 601 76 b 533 144 546 76 533 88 l 533 460 b 325 674 533 604 476 674 b 81 521 174 674 81 599 b 139 454 81 475 111 454 b 200 518 178 454 200 475 b 293 631 200 601 214 631 b 418 464 376 631 418 585 l 418 403 b 53 146 299 365 53 329 b 218 -10 53 57 111 -10 b 422 86 307 -10 357 29 z m 418 128 b 275 67 371 89 321 67 b 175 179 215 67 175 110 b 418 357 175 288 292 325 z m 522 771 l 522 847 l 119 847 l 119 771 z "},"ă":{"ha":667,"x_min":0,"x_max":0,"o":"m 428 86 b 511 -7 436 25 450 -7 b 661 89 582 -7 615 22 l 640 111 b 575 76 621 90 601 76 b 533 144 546 76 533 88 l 533 460 b 325 674 533 604 476 674 b 81 521 174 674 81 599 b 139 454 81 475 111 454 b 200 518 178 454 200 475 b 293 631 200 601 214 631 b 418 464 376 631 418 585 l 418 403 b 53 146 299 365 53 329 b 218 -10 53 57 111 -10 b 422 86 307 -10 357 29 z m 418 128 b 275 67 371 89 321 67 b 175 179 215 67 175 110 b 418 357 175 288 292 325 z m 482 949 b 321 822 447 842 414 822 b 158 949 229 822 185 842 l 117 949 b 321 735 122 801 192 735 b 524 949 449 735 508 801 z "},"ằ":{"ha":667,"x_min":0,"x_max":0,"o":"m 428 86 b 511 -7 436 25 450 -7 b 661 89 582 -7 615 22 l 640 111 b 575 76 621 90 601 76 b 533 144 546 76 533 88 l 533 460 b 325 674 533 604 476 674 b 81 521 174 674 81 599 b 139 454 81 475 111 454 b 200 518 178 454 200 475 b 293 631 200 601 214 631 b 418 464 376 631 418 585 l 418 403 b 53 146 299 365 53 329 b 218 -10 53 57 111 -10 b 422 86 307 -10 357 29 z m 418 128 b 275 67 371 89 321 67 b 175 179 215 67 175 110 b 418 357 175 288 292 325 z m 482 935 b 321 808 447 828 414 808 b 158 935 229 808 185 828 l 117 935 b 321 721 122 788 192 721 b 524 935 449 721 508 788 z m 292 1061 l 176 1061 l 176 1036 l 335 863 l 382 863 z "},"ắ":{"ha":667,"x_min":0,"x_max":0,"o":"m 428 86 b 511 -7 436 25 450 -7 b 661 89 582 -7 615 22 l 640 111 b 575 76 621 90 601 76 b 533 144 546 76 533 88 l 533 460 b 325 674 533 604 476 674 b 81 521 174 674 81 599 b 139 454 81 475 111 454 b 200 518 178 454 200 475 b 293 631 200 601 214 631 b 418 464 376 631 418 585 l 418 403 b 53 146 299 365 53 329 b 218 -10 53 57 111 -10 b 422 86 307 -10 357 29 z m 418 128 b 275 67 371 89 321 67 b 175 179 215 67 175 110 b 418 357 175 288 292 325 z m 482 935 b 321 808 447 828 414 808 b 158 935 229 808 185 828 l 117 935 b 321 721 122 788 192 721 b 524 935 449 721 508 788 z m 260 863 l 307 863 l 465 1036 l 465 1061 l 350 1061 z "},"ẵ":{"ha":667,"x_min":0,"x_max":0,"o":"m 428 86 b 511 -7 436 25 450 -7 b 661 89 582 -7 615 22 l 640 111 b 575 76 621 90 601 76 b 533 144 546 76 533 88 l 533 460 b 325 674 533 604 476 674 b 81 521 174 674 81 599 b 139 454 81 475 111 454 b 200 518 178 454 200 475 b 293 631 200 601 214 631 b 418 464 376 631 418 585 l 418 403 b 53 146 299 365 53 329 b 218 -10 53 57 111 -10 b 422 86 307 -10 357 29 z m 418 128 b 275 67 371 89 321 67 b 175 179 215 67 175 110 b 418 357 175 288 292 325 z m 482 935 b 321 808 447 828 414 808 b 158 935 229 808 185 828 l 117 935 b 321 721 122 788 192 721 b 524 935 449 721 508 788 z m 511 1122 b 432 1060 494 1072 463 1060 b 247 1117 367 1060 326 1117 b 110 978 179 1117 125 1067 l 146 978 b 221 1039 158 1025 189 1039 b 401 982 286 1039 328 982 b 546 1122 478 982 525 1021 z "},"ẳ":{"ha":667,"x_min":0,"x_max":0,"o":"m 428 86 b 511 -7 436 25 450 -7 b 661 89 582 -7 615 22 l 640 111 b 575 76 621 90 601 76 b 533 144 546 76 533 88 l 533 460 b 325 674 533 604 476 674 b 81 521 174 674 81 599 b 139 454 81 475 111 454 b 200 518 178 454 200 475 b 293 631 200 601 214 631 b 418 464 376 631 418 585 l 418 403 b 53 146 299 365 53 329 b 218 -10 53 57 111 -10 b 422 86 307 -10 357 29 z m 418 128 b 275 67 371 89 321 67 b 175 179 215 67 175 110 b 418 357 175 288 292 325 z m 482 935 b 321 808 447 828 414 808 b 158 935 229 808 185 828 l 117 935 b 321 721 122 788 192 721 b 524 935 449 721 508 788 z m 333 863 l 333 914 b 453 1029 376 922 453 946 b 324 1138 453 1089 413 1138 b 200 1068 263 1138 200 1114 b 238 1028 200 1046 214 1028 b 325 1096 283 1028 261 1096 b 367 1032 346 1096 367 1089 b 276 939 367 974 347 940 l 276 863 z "},"ặ":{"ha":667,"x_min":0,"x_max":0,"o":"m 428 86 b 511 -7 436 25 450 -7 b 661 89 582 -7 615 22 l 640 111 b 575 76 621 90 601 76 b 533 144 546 76 533 88 l 533 460 b 325 674 533 604 476 674 b 81 521 174 674 81 599 b 139 454 81 475 111 454 b 200 518 178 454 200 475 b 293 631 200 601 214 631 b 418 464 376 631 418 585 l 418 403 b 53 146 299 365 53 329 b 218 -10 53 57 111 -10 b 422 86 307 -10 357 29 z m 418 128 b 275 67 371 89 321 67 b 175 179 215 67 175 110 b 418 357 175 288 292 325 z m 482 949 b 321 822 447 842 414 822 b 158 949 229 822 185 842 l 117 949 b 321 735 122 801 192 735 b 524 949 449 735 508 801 z m 321 -94 b 242 -172 272 -94 242 -131 b 321 -251 242 -215 274 -251 b 400 -172 369 -251 400 -215 b 321 -94 400 -131 369 -94 z "},"å":{"ha":667,"x_min":0,"x_max":0,"o":"m 428 86 b 511 -7 436 25 450 -7 b 661 89 582 -7 615 22 l 640 111 b 575 76 621 90 601 76 b 533 144 546 76 533 88 l 533 460 b 325 674 533 604 476 674 b 81 521 174 674 81 599 b 139 454 81 475 111 454 b 200 518 178 454 200 475 b 293 631 200 601 214 631 b 418 464 376 631 418 585 l 418 403 b 53 146 299 365 53 329 b 218 -10 53 57 111 -10 b 422 86 307 -10 357 29 z m 418 128 b 275 67 371 89 321 67 b 175 179 215 67 175 110 b 418 357 175 288 292 325 z m 463 874 b 319 1013 463 958 401 1013 b 178 875 239 1013 178 958 b 319 736 178 785 240 736 b 463 874 401 736 463 785 z m 401 875 b 319 788 401 822 375 788 b 239 875 265 788 239 822 b 319 963 239 925 265 963 b 401 875 372 963 401 925 z "},"ǻ":{"ha":667,"x_min":0,"x_max":0,"o":"m 428 86 b 511 -7 436 25 450 -7 b 661 89 582 -7 615 22 l 640 111 b 575 76 621 90 601 76 b 533 144 546 76 533 88 l 533 460 b 325 674 533 604 476 674 b 81 521 174 674 81 599 b 139 454 81 475 111 454 b 200 518 178 454 200 475 b 293 631 200 601 214 631 b 418 464 376 631 418 585 l 418 403 b 53 146 299 365 53 329 b 218 -10 53 57 111 -10 b 422 86 307 -10 357 29 z m 418 128 b 275 67 371 89 321 67 b 175 179 215 67 175 110 b 418 357 175 288 292 325 z m 463 860 b 319 999 463 944 401 999 b 178 861 239 999 178 944 b 319 722 178 771 240 722 b 463 860 401 722 463 771 z m 401 861 b 319 774 401 808 375 774 b 239 861 265 774 239 808 b 319 949 239 911 265 949 b 401 861 372 949 401 911 z m 188 1025 l 251 1025 l 472 1174 l 472 1203 l 333 1203 z "},"ả":{"ha":667,"x_min":0,"x_max":0,"o":"m 428 86 b 511 -7 436 25 450 -7 b 661 89 582 -7 615 22 l 640 111 b 575 76 621 90 601 76 b 533 144 546 76 533 88 l 533 460 b 325 674 533 604 476 674 b 81 521 174 674 81 599 b 139 454 81 475 111 454 b 200 518 178 454 200 475 b 293 631 200 601 214 631 b 418 464 376 631 418 585 l 418 403 b 53 146 299 365 53 329 b 218 -10 53 57 111 -10 b 422 86 307 -10 357 29 z m 418 128 b 275 67 371 89 321 67 b 175 179 215 67 175 110 b 418 357 175 288 292 325 z m 347 724 l 347 779 b 467 900 390 788 467 813 b 338 1013 467 961 426 1013 b 214 943 276 1013 214 989 b 251 903 214 921 228 903 b 339 971 297 903 275 971 b 381 903 360 971 381 964 b 290 804 381 842 361 807 l 290 724 z "},"ẚ":{"ha":667,"x_min":0,"x_max":0,"o":"m 242 1014 l 242 961 l 279 961 b 365 876 328 961 365 925 b 276 789 365 828 333 789 l 242 789 l 242 736 l 285 736 b 424 876 367 736 424 799 b 285 1014 424 953 368 1014 z m 428 86 b 511 -7 436 25 450 -7 b 661 89 582 -7 615 22 l 640 111 b 575 76 621 90 601 76 b 533 144 546 76 533 88 l 533 460 b 325 674 533 604 476 674 b 81 521 174 674 81 599 b 139 454 81 475 111 454 b 200 518 178 454 200 475 b 293 631 200 601 214 631 b 418 464 376 631 418 585 l 418 403 b 53 146 299 365 53 329 b 218 -10 53 57 111 -10 b 422 86 307 -10 357 29 z m 418 128 b 275 67 371 89 321 67 b 175 179 215 67 175 110 b 418 357 175 288 292 325 z "},"ḁ":{"ha":667,"x_min":0,"x_max":0,"o":"m 428 86 b 511 -7 436 25 450 -7 b 661 89 582 -7 615 22 l 640 111 b 575 76 621 90 601 76 b 533 144 546 76 533 88 l 533 460 b 325 674 533 604 476 674 b 81 521 174 674 81 599 b 139 454 81 475 111 454 b 200 518 178 454 200 475 b 293 631 200 601 214 631 b 418 464 376 631 418 585 l 418 403 b 53 146 299 365 53 329 b 218 -10 53 57 111 -10 b 422 86 307 -10 357 29 z m 418 128 b 275 67 371 89 321 67 b 175 179 215 67 175 110 b 418 357 175 288 292 325 z m 463 -215 b 319 -76 463 -131 401 -76 b 178 -214 239 -76 178 -131 b 319 -353 178 -304 240 -353 b 463 -215 401 -353 463 -304 z m 401 -214 b 319 -301 401 -267 375 -301 b 239 -214 265 -301 239 -267 b 319 -126 239 -164 265 -126 b 401 -214 372 -126 401 -164 z "},"ạ":{"ha":667,"x_min":0,"x_max":0,"o":"m 428 86 b 511 -7 436 25 450 -7 b 661 89 582 -7 615 22 l 640 111 b 575 76 621 90 601 76 b 533 144 546 76 533 88 l 533 460 b 325 674 533 604 476 674 b 81 521 174 674 81 599 b 139 454 81 475 111 454 b 200 518 178 454 200 475 b 293 631 200 601 214 631 b 418 464 376 631 418 585 l 418 403 b 53 146 299 365 53 329 b 218 -10 53 57 111 -10 b 422 86 307 -10 357 29 z m 418 128 b 275 67 371 89 321 67 b 175 179 215 67 175 110 b 418 357 175 288 292 325 z m 321 -94 b 242 -172 272 -94 242 -131 b 321 -251 242 -215 274 -251 b 400 -172 369 -251 400 -215 b 321 -94 400 -131 369 -94 z "},"ą":{"ha":667,"x_min":0,"x_max":0,"o":"m 428 86 b 497 -4 435 29 447 0 l 497 -7 b 369 -186 444 -49 369 -111 b 494 -300 369 -256 421 -300 b 671 -210 576 -300 618 -264 l 651 -186 b 535 -229 610 -217 586 -229 b 464 -153 490 -229 464 -204 b 576 4 464 -79 524 -29 b 661 89 607 18 631 46 l 640 111 b 575 76 621 90 601 76 b 533 144 546 76 533 88 l 533 460 b 325 674 533 604 476 674 b 81 521 174 674 81 599 b 139 454 81 475 111 454 b 200 518 178 454 200 475 b 293 631 200 601 214 631 b 418 464 376 631 418 585 l 418 403 b 53 146 299 365 53 329 b 218 -10 53 57 111 -10 b 422 86 307 -10 357 29 z m 418 128 b 275 67 371 89 321 67 b 175 179 215 67 175 110 b 418 357 175 288 292 325 z "},"æ":{"ha":985,"x_min":0,"x_max":0,"o":"m 915 199 b 717 90 871 140 829 90 b 519 369 590 90 519 172 l 938 369 b 686 674 931 564 831 674 b 492 588 599 674 539 644 l 485 588 b 314 674 454 644 394 674 b 75 521 167 674 75 599 b 133 454 75 475 106 454 b 194 518 174 454 194 475 b 288 631 194 601 208 631 b 404 464 368 631 404 585 l 404 401 b 53 143 283 364 53 324 b 208 -10 53 51 118 -10 b 440 108 325 -10 397 57 l 446 108 b 683 -14 489 42 560 -14 b 943 179 826 -14 893 74 z m 404 356 b 422 150 404 279 408 214 b 271 67 374 97 322 67 b 174 179 214 67 174 110 b 404 356 174 288 282 322 z m 519 421 b 660 618 524 549 569 618 b 807 421 758 618 803 524 z "},"ǽ":{"ha":985,"x_min":0,"x_max":0,"o":"m 915 199 b 717 90 871 140 829 90 b 519 369 590 90 519 172 l 938 369 b 686 674 931 564 831 674 b 492 588 599 674 539 644 l 485 588 b 314 674 454 644 394 674 b 75 521 167 674 75 599 b 133 454 75 475 106 454 b 194 518 174 454 194 475 b 288 631 194 601 208 631 b 404 464 368 631 404 585 l 404 401 b 53 143 283 364 53 324 b 208 -10 53 51 118 -10 b 440 108 325 -10 397 57 l 446 108 b 683 -14 489 42 560 -14 b 943 179 826 -14 893 74 z m 404 356 b 422 150 404 279 408 214 b 271 67 374 97 322 67 b 174 179 214 67 174 110 b 404 356 174 288 282 322 z m 519 421 b 660 618 524 549 569 618 b 807 421 758 618 803 524 z m 372 724 l 426 724 l 599 911 l 599 936 l 469 936 z "},"ḃ":{"ha":725,"x_min":0,"x_max":0,"o":"m 226 981 l 190 981 l 11 932 l 11 893 b 50 896 11 893 28 896 b 111 822 103 896 111 885 l 111 42 b 343 -14 144 24 225 -14 b 676 365 536 -14 676 117 b 444 674 676 546 582 674 b 231 556 351 674 279 614 l 226 556 z m 226 494 b 383 579 251 528 313 579 b 550 321 515 579 550 454 b 368 43 550 167 500 43 b 226 108 294 43 253 76 z m 351 1185 b 274 1107 304 1185 274 1149 b 351 1029 274 1065 306 1029 b 431 1107 400 1029 431 1065 b 351 1185 431 1149 400 1185 z "},"ḇ":{"ha":725,"x_min":0,"x_max":0,"o":"m 226 981 l 190 981 l 11 932 l 11 893 b 50 896 11 893 28 896 b 111 822 103 896 111 885 l 111 42 b 343 -14 144 24 225 -14 b 676 365 536 -14 676 117 b 444 674 676 546 582 674 b 231 556 351 674 279 614 l 226 556 z m 226 494 b 383 579 251 528 313 579 b 550 321 515 579 550 454 b 368 43 550 167 500 43 b 226 108 294 43 253 76 z m 553 -196 l 553 -119 l 150 -119 l 150 -196 z "},"ḅ":{"ha":725,"x_min":0,"x_max":0,"o":"m 226 981 l 190 981 l 11 932 l 11 893 b 50 896 11 893 28 896 b 111 822 103 896 111 885 l 111 42 b 343 -14 144 24 225 -14 b 676 365 536 -14 676 117 b 444 674 676 546 582 674 b 231 556 351 674 279 614 l 226 556 z m 226 494 b 383 579 251 528 313 579 b 550 321 515 579 550 454 b 368 43 550 167 500 43 b 226 108 294 43 253 76 z m 351 -94 b 272 -172 303 -94 272 -131 b 351 -251 272 -215 304 -251 b 431 -172 400 -251 431 -215 b 351 -94 431 -131 400 -94 z "},"ɓ":{"ha":719,"x_min":0,"x_max":0,"o":"m 221 556 l 221 806 b 308 939 221 903 251 939 b 479 833 396 939 407 833 b 539 893 513 833 539 853 b 365 990 539 956 467 990 b 156 888 258 990 197 951 b 106 671 117 825 106 768 l 106 42 b 338 -14 139 24 219 -14 b 671 365 531 -14 671 117 b 439 674 671 546 576 674 b 225 556 346 674 274 614 z m 221 494 b 378 579 246 528 307 579 b 544 321 510 579 544 454 b 363 43 544 167 494 43 b 221 108 289 43 247 76 z "},"ć":{"ha":619,"x_min":0,"x_max":0,"o":"m 567 206 b 367 90 504 125 457 90 b 156 379 224 90 156 210 b 336 622 156 539 224 622 b 513 464 456 622 410 464 b 571 526 551 464 571 486 b 360 674 571 607 490 674 b 46 314 160 674 46 532 b 324 -14 46 121 150 -14 b 593 186 472 -14 540 74 z m 260 724 l 314 724 l 486 911 l 486 936 l 357 936 z "},"ĉ":{"ha":619,"x_min":0,"x_max":0,"o":"m 567 206 b 367 90 504 125 457 90 b 156 379 224 90 156 210 b 336 622 156 539 224 622 b 513 464 456 622 410 464 b 571 526 551 464 571 486 b 360 674 571 607 490 674 b 46 314 160 674 46 532 b 324 -14 46 121 150 -14 b 593 186 472 -14 540 74 z m 531 724 l 381 936 l 289 936 l 139 724 l 193 724 l 335 860 l 478 724 z "},"č":{"ha":619,"x_min":0,"x_max":0,"o":"m 567 206 b 367 90 504 125 457 90 b 156 379 224 90 156 210 b 336 622 156 539 224 622 b 513 464 456 622 410 464 b 571 526 551 464 571 486 b 360 674 571 607 490 674 b 46 314 160 674 46 532 b 324 -14 46 121 150 -14 b 593 186 472 -14 540 74 z m 139 942 l 289 729 l 381 729 l 531 942 l 478 942 l 335 806 l 193 942 z "},"ċ":{"ha":619,"x_min":0,"x_max":0,"o":"m 567 206 b 367 90 504 125 457 90 b 156 379 224 90 156 210 b 336 622 156 539 224 622 b 513 464 456 622 410 464 b 571 526 551 464 571 486 b 360 674 571 607 490 674 b 46 314 160 674 46 532 b 324 -14 46 121 150 -14 b 593 186 472 -14 540 74 z m 335 935 b 256 857 286 935 256 899 b 335 778 256 814 288 778 b 414 857 383 778 414 814 b 335 935 414 899 383 935 z "},"ç":{"ha":619,"x_min":0,"x_max":0,"o":"m 567 206 b 367 90 504 125 457 90 b 156 379 224 90 156 210 b 336 622 156 539 224 622 b 513 464 456 622 410 464 b 571 526 551 464 571 486 b 360 674 571 607 490 674 b 46 314 160 674 46 532 b 300 -12 46 128 140 -1 l 276 -114 l 294 -129 b 338 -125 300 -129 318 -125 b 397 -183 383 -125 397 -151 b 322 -244 397 -228 369 -244 b 232 -218 288 -244 257 -233 l 218 -250 b 333 -299 250 -274 282 -299 b 478 -178 421 -299 478 -253 b 365 -76 478 -112 435 -76 b 325 -79 344 -76 331 -79 l 342 -12 b 593 186 478 -7 542 78 z "},"ḉ":{"ha":619,"x_min":0,"x_max":0,"o":"m 567 206 b 367 90 504 125 457 90 b 156 379 224 90 156 210 b 336 622 156 539 224 622 b 513 464 456 622 410 464 b 571 526 551 464 571 486 b 360 674 571 607 490 674 b 46 314 160 674 46 532 b 300 -12 46 128 140 -1 l 276 -114 l 294 -129 b 338 -125 300 -129 318 -125 b 397 -183 383 -125 397 -151 b 322 -244 397 -228 369 -244 b 232 -218 288 -244 257 -233 l 218 -250 b 333 -299 250 -274 282 -299 b 478 -178 421 -299 478 -253 b 365 -76 478 -112 435 -76 b 325 -79 344 -76 331 -79 l 342 -12 b 593 186 478 -7 542 78 z m 258 724 l 313 724 l 485 911 l 485 936 l 356 936 z "},"ƈ":{"ha":619,"x_min":0,"x_max":0,"o":"m 567 206 b 367 90 504 125 457 90 b 156 379 224 90 156 210 b 336 622 156 539 224 622 b 513 464 456 622 410 464 b 571 526 551 464 571 486 b 511 632 571 567 549 606 l 511 700 b 593 874 511 833 551 874 b 699 781 642 874 636 781 b 743 832 722 781 743 797 b 626 925 743 885 704 925 b 450 660 479 925 453 793 b 360 674 424 669 392 674 b 46 314 160 674 46 532 b 324 -14 46 121 150 -14 b 593 186 472 -14 540 74 z "},"ď":{"ha":869,"x_min":0,"x_max":0,"o":"m 714 25 l 714 63 l 685 63 b 615 149 633 63 615 76 l 615 981 l 578 981 l 403 932 l 403 893 b 439 896 403 893 426 896 b 500 822 493 896 500 883 l 500 640 b 365 674 457 664 411 674 b 46 304 190 674 46 533 b 283 -11 46 126 126 -11 b 499 89 375 -11 446 42 l 504 89 l 504 -7 l 536 -7 z m 500 140 b 349 89 451 107 414 89 b 167 358 231 89 167 167 b 363 618 167 533 246 618 b 500 507 449 618 489 564 z m 711 699 l 753 693 b 842 943 797 764 836 865 l 842 968 l 728 968 z "},"ḋ":{"ha":749,"x_min":0,"x_max":0,"o":"m 714 25 l 714 63 l 685 63 b 615 149 633 63 615 76 l 615 981 l 578 981 l 403 932 l 403 893 b 439 896 403 893 426 896 b 500 822 493 896 500 883 l 500 640 b 365 674 457 664 411 674 b 46 304 190 674 46 533 b 283 -11 46 126 126 -11 b 499 89 375 -11 446 42 l 504 89 l 504 -7 l 536 -7 z m 500 140 b 349 89 451 107 414 89 b 167 358 231 89 167 167 b 363 618 167 533 246 618 b 500 507 449 618 489 564 z m 374 1185 b 296 1107 326 1185 296 1149 b 374 1029 296 1065 328 1029 b 453 1107 422 1029 453 1065 b 374 1185 453 1149 422 1185 z "},"ḓ":{"ha":749,"x_min":0,"x_max":0,"o":"m 714 25 l 714 63 l 685 63 b 615 149 633 63 615 76 l 615 981 l 578 981 l 403 932 l 403 893 b 439 896 403 893 426 896 b 500 822 493 896 500 883 l 500 640 b 365 674 457 664 411 674 b 46 304 190 674 46 533 b 283 -11 46 126 126 -11 b 499 89 375 -11 446 42 l 504 89 l 504 -7 l 536 -7 z m 500 140 b 349 89 451 107 414 89 b 167 358 231 89 167 167 b 363 618 167 533 246 618 b 500 507 449 618 489 564 z m 569 -282 l 419 -69 l 328 -69 l 178 -282 l 232 -282 l 374 -146 l 517 -282 z "},"ḏ":{"ha":749,"x_min":0,"x_max":0,"o":"m 714 25 l 714 63 l 685 63 b 615 149 633 63 615 76 l 615 981 l 578 981 l 403 932 l 403 893 b 439 896 403 893 426 896 b 500 822 493 896 500 883 l 500 640 b 365 674 457 664 411 674 b 46 304 190 674 46 533 b 283 -11 46 126 126 -11 b 499 89 375 -11 446 42 l 504 89 l 504 -7 l 536 -7 z m 500 140 b 349 89 451 107 414 89 b 167 358 231 89 167 167 b 363 618 167 533 246 618 b 500 507 449 618 489 564 z m 575 -196 l 575 -119 l 172 -119 l 172 -196 z "},"ḍ":{"ha":749,"x_min":0,"x_max":0,"o":"m 714 25 l 714 63 l 685 63 b 615 149 633 63 615 76 l 615 981 l 578 981 l 403 932 l 403 893 b 439 896 403 893 426 896 b 500 822 493 896 500 883 l 500 640 b 365 674 457 664 411 674 b 46 304 190 674 46 533 b 283 -11 46 126 126 -11 b 499 89 375 -11 446 42 l 504 89 l 504 -7 l 536 -7 z m 500 140 b 349 89 451 107 414 89 b 167 358 231 89 167 167 b 363 618 167 533 246 618 b 500 507 449 618 489 564 z m 374 -94 b 294 -172 325 -94 294 -131 b 374 -251 294 -215 326 -251 b 453 -172 422 -251 453 -215 b 374 -94 453 -131 422 -94 z "},"ḑ":{"ha":749,"x_min":0,"x_max":0,"o":"m 714 25 l 714 63 l 685 63 b 615 149 633 63 615 76 l 615 981 l 578 981 l 403 932 l 403 893 b 439 896 403 893 426 896 b 500 822 493 896 500 883 l 500 640 b 365 674 457 664 411 674 b 46 304 190 674 46 533 b 283 -11 46 126 126 -11 b 499 89 375 -11 446 42 l 504 89 l 504 -7 l 536 -7 z m 500 140 b 349 89 451 107 414 89 b 167 358 231 89 167 167 b 363 618 167 533 246 618 b 500 507 449 618 489 564 z m 304 -385 b 468 -192 361 -365 468 -326 b 371 -74 468 -119 438 -74 b 286 -153 313 -74 286 -108 b 356 -225 286 -199 315 -225 b 399 -217 369 -225 383 -222 b 290 -350 399 -297 340 -332 z "},"đ":{"ha":750,"x_min":0,"x_max":0,"o":"m 713 751 l 713 807 l 617 807 l 617 981 l 578 981 l 401 932 l 401 893 b 438 896 401 893 425 896 b 499 807 496 896 499 881 l 290 807 l 290 751 l 499 751 l 499 626 b 364 661 456 650 410 661 b 46 300 189 661 46 522 b 283 -11 46 124 126 -11 b 497 89 375 -11 444 42 l 503 89 l 503 -7 l 536 -7 l 715 25 l 715 63 l 686 63 b 617 149 635 63 617 76 l 617 751 z m 499 139 b 349 89 451 107 415 89 b 167 351 231 89 167 165 b 361 606 167 522 244 606 b 499 461 469 606 499 536 z "},"ɗ":{"ha":753,"x_min":0,"x_max":0,"o":"m 614 796 b 704 939 615 896 642 939 b 844 833 778 939 772 833 b 900 893 875 833 900 853 b 739 990 900 956 833 990 b 499 672 550 990 499 836 l 499 640 b 364 674 456 664 410 674 b 46 304 189 674 46 533 b 283 -11 46 126 126 -11 b 497 89 375 -11 453 47 l 503 89 l 503 -7 l 536 -7 l 721 25 l 721 63 l 683 63 b 614 149 632 63 614 76 z m 499 140 b 349 89 450 107 414 89 b 167 358 231 89 167 167 b 361 618 167 533 244 618 b 499 507 447 618 488 564 z "},"ɖ":{"ha":733,"x_min":0,"x_max":0,"o":"m 615 981 l 578 981 l 401 932 l 401 893 b 438 896 401 893 425 896 b 499 822 492 896 499 883 l 499 640 b 364 674 456 664 410 674 b 46 304 189 674 46 533 b 283 -11 46 126 126 -11 b 497 89 375 -11 444 42 l 503 89 l 503 -18 b 719 -326 503 -183 535 -326 b 881 -229 814 -326 881 -290 b 826 -169 881 -187 857 -169 b 689 -274 760 -169 763 -274 b 615 -117 626 -274 615 -231 z m 499 140 b 349 89 450 107 414 89 b 167 358 231 89 167 167 b 361 618 167 533 244 618 b 499 507 447 618 488 564 z "},"è":{"ha":644,"x_min":0,"x_max":0,"o":"m 576 199 b 376 90 532 140 489 90 b 160 369 265 90 160 178 l 599 369 b 340 674 592 564 492 674 b 47 331 178 674 47 563 b 343 -14 47 107 176 -14 b 603 179 486 -14 553 74 z m 158 421 b 319 618 169 550 225 618 b 468 421 418 618 464 524 z m 314 936 l 186 936 l 186 911 l 357 724 l 411 724 z "},"é":{"ha":644,"x_min":0,"x_max":0,"o":"m 576 199 b 376 90 532 140 489 90 b 160 369 265 90 160 178 l 599 369 b 340 674 592 564 492 674 b 47 331 178 674 47 563 b 343 -14 47 107 176 -14 b 603 179 486 -14 553 74 z m 158 421 b 319 618 169 550 225 618 b 468 421 418 618 464 524 z m 261 724 l 315 724 l 488 911 l 488 936 l 358 936 z "},"ê":{"ha":644,"x_min":0,"x_max":0,"o":"m 576 199 b 376 90 532 140 489 90 b 160 369 265 90 160 178 l 599 369 b 340 674 592 564 492 674 b 47 331 178 674 47 563 b 343 -14 47 107 176 -14 b 603 179 486 -14 553 74 z m 158 421 b 319 618 169 550 225 618 b 468 421 418 618 464 524 z m 532 724 l 382 936 l 290 936 l 140 724 l 194 724 l 336 860 l 479 724 z "},"ề":{"ha":644,"x_min":0,"x_max":0,"o":"m 576 199 b 376 90 532 140 489 90 b 160 369 265 90 160 178 l 599 369 b 340 674 592 564 492 674 b 47 331 178 674 47 563 b 343 -14 47 107 176 -14 b 603 179 486 -14 553 74 z m 158 421 b 319 618 169 550 225 618 b 468 421 418 618 464 524 z m 532 724 l 382 922 l 290 922 l 140 724 l 194 724 l 336 846 l 479 724 z m 490 1047 l 375 1047 l 375 1022 l 533 849 l 581 849 z "},"ế":{"ha":644,"x_min":0,"x_max":0,"o":"m 576 199 b 376 90 532 140 489 90 b 160 369 265 90 160 178 l 599 369 b 340 674 592 564 492 674 b 47 331 178 674 47 563 b 343 -14 47 107 176 -14 b 603 179 486 -14 553 74 z m 158 421 b 319 618 169 550 225 618 b 468 421 418 618 464 524 z m 532 724 l 382 922 l 290 922 l 140 724 l 194 724 l 336 846 l 479 724 z m 465 849 l 513 849 l 671 1022 l 671 1047 l 556 1047 z "},"ễ":{"ha":644,"x_min":0,"x_max":0,"o":"m 576 199 b 376 90 532 140 489 90 b 160 369 265 90 160 178 l 599 369 b 340 674 592 564 492 674 b 47 331 178 674 47 563 b 343 -14 47 107 176 -14 b 603 179 486 -14 553 74 z m 158 421 b 319 618 169 550 225 618 b 468 421 418 618 464 524 z m 532 724 l 382 922 l 290 922 l 140 724 l 194 724 l 336 846 l 479 724 z m 526 1111 b 447 1047 510 1060 478 1047 b 263 1106 382 1047 342 1106 b 125 964 194 1106 140 1054 l 161 964 b 236 1026 174 1013 204 1026 b 417 968 301 1026 343 968 b 561 1111 493 968 540 1008 z "},"ể":{"ha":644,"x_min":0,"x_max":0,"o":"m 576 199 b 376 90 532 140 489 90 b 160 369 265 90 160 178 l 599 369 b 340 674 592 564 492 674 b 47 331 178 674 47 563 b 343 -14 47 107 176 -14 b 603 179 486 -14 553 74 z m 158 421 b 319 618 169 550 225 618 b 468 421 418 618 464 524 z m 532 724 l 382 922 l 290 922 l 140 724 l 194 724 l 336 846 l 479 724 z m 529 849 l 529 900 b 649 1015 572 908 649 932 b 519 1124 649 1075 608 1124 b 396 1054 458 1124 396 1100 b 433 1014 396 1032 410 1014 b 521 1082 479 1014 457 1082 b 563 1018 542 1082 563 1075 b 472 925 563 960 543 928 l 472 849 z "},"ệ":{"ha":644,"x_min":0,"x_max":0,"o":"m 576 199 b 376 90 532 140 489 90 b 160 369 265 90 160 178 l 599 369 b 340 674 592 564 492 674 b 47 331 178 674 47 563 b 343 -14 47 107 176 -14 b 603 179 486 -14 553 74 z m 158 421 b 319 618 169 550 225 618 b 468 421 418 618 464 524 z m 532 724 l 382 936 l 290 936 l 140 724 l 194 724 l 336 860 l 479 724 z m 336 -94 b 257 -172 288 -94 257 -131 b 336 -251 257 -215 289 -251 b 415 -172 385 -251 415 -215 b 336 -94 415 -131 385 -94 z "},"ě":{"ha":644,"x_min":0,"x_max":0,"o":"m 576 199 b 376 90 532 140 489 90 b 160 369 265 90 160 178 l 599 369 b 340 674 592 564 492 674 b 47 331 178 674 47 563 b 343 -14 47 107 176 -14 b 603 179 486 -14 553 74 z m 158 421 b 319 618 169 550 225 618 b 468 421 418 618 464 524 z m 140 942 l 290 729 l 382 729 l 532 942 l 479 942 l 336 806 l 194 942 z "},"ẽ":{"ha":644,"x_min":0,"x_max":0,"o":"m 576 199 b 376 90 532 140 489 90 b 160 369 265 90 160 178 l 599 369 b 340 674 592 564 492 674 b 47 331 178 674 47 563 b 343 -14 47 107 176 -14 b 603 179 486 -14 553 74 z m 158 421 b 319 618 169 550 225 618 b 468 421 418 618 464 524 z m 529 892 b 449 826 513 839 481 826 b 260 886 382 826 340 886 b 119 740 190 886 135 833 l 157 740 b 233 804 169 790 200 804 b 418 744 300 804 342 744 b 565 892 496 744 544 785 z "},"ë":{"ha":644,"x_min":0,"x_max":0,"o":"m 576 199 b 376 90 532 140 489 90 b 160 369 265 90 160 178 l 599 369 b 340 674 592 564 492 674 b 47 331 178 674 47 563 b 343 -14 47 107 176 -14 b 603 179 486 -14 553 74 z m 158 421 b 319 618 169 550 225 618 b 468 421 418 618 464 524 z m 183 933 b 106 856 136 933 106 897 b 183 778 106 814 138 778 b 263 856 232 778 263 814 b 183 933 263 897 232 933 z m 488 933 b 410 856 440 933 410 897 b 488 778 410 814 442 778 b 567 856 536 778 567 814 b 488 933 567 897 536 933 z "},"ē":{"ha":644,"x_min":0,"x_max":0,"o":"m 576 199 b 376 90 532 140 489 90 b 160 369 265 90 160 178 l 599 369 b 340 674 592 564 492 674 b 47 331 178 674 47 563 b 343 -14 47 107 176 -14 b 603 179 486 -14 553 74 z m 158 421 b 319 618 169 550 225 618 b 468 421 418 618 464 524 z m 538 771 l 538 847 l 135 847 l 135 771 z "},"ḕ":{"ha":644,"x_min":0,"x_max":0,"o":"m 576 199 b 376 90 532 140 489 90 b 160 369 265 90 160 178 l 599 369 b 340 674 592 564 492 674 b 47 331 178 674 47 563 b 343 -14 47 107 176 -14 b 603 179 486 -14 553 74 z m 158 421 b 319 618 169 550 225 618 b 468 421 418 618 464 524 z m 538 771 l 538 847 l 135 847 l 135 771 z m 314 1131 l 186 1131 l 186 1106 l 357 918 l 411 918 z "},"ḗ":{"ha":644,"x_min":0,"x_max":0,"o":"m 576 199 b 376 90 532 140 489 90 b 160 369 265 90 160 178 l 599 369 b 340 674 592 564 492 674 b 47 331 178 674 47 563 b 343 -14 47 107 176 -14 b 603 179 486 -14 553 74 z m 158 421 b 319 618 169 550 225 618 b 468 421 418 618 464 524 z m 538 771 l 538 847 l 135 847 l 135 771 z m 261 918 l 315 918 l 488 1106 l 488 1131 l 358 1131 z "},"ĕ":{"ha":644,"x_min":0,"x_max":0,"o":"m 576 199 b 376 90 532 140 489 90 b 160 369 265 90 160 178 l 599 369 b 340 674 592 564 492 674 b 47 331 178 674 47 563 b 343 -14 47 107 176 -14 b 603 179 486 -14 553 74 z m 158 421 b 319 618 169 550 225 618 b 468 421 418 618 464 524 z m 497 949 b 336 822 463 842 429 822 b 174 949 244 822 200 842 l 132 949 b 336 735 138 801 207 735 b 539 949 464 735 524 801 z "},"ė":{"ha":644,"x_min":0,"x_max":0,"o":"m 576 199 b 376 90 532 140 489 90 b 160 369 265 90 160 178 l 599 369 b 340 674 592 564 492 674 b 47 331 178 674 47 563 b 343 -14 47 107 176 -14 b 603 179 486 -14 553 74 z m 158 421 b 319 618 169 550 225 618 b 468 421 418 618 464 524 z m 336 935 b 257 857 288 935 257 899 b 336 778 257 814 289 778 b 415 857 385 778 415 814 b 336 935 415 899 385 935 z "},"ẻ":{"ha":644,"x_min":0,"x_max":0,"o":"m 576 199 b 376 90 532 140 489 90 b 160 369 265 90 160 178 l 599 369 b 340 674 592 564 492 674 b 47 331 178 674 47 563 b 343 -14 47 107 176 -14 b 603 179 486 -14 553 74 z m 158 421 b 319 618 169 550 225 618 b 468 421 418 618 464 524 z m 363 724 l 363 779 b 482 900 406 788 482 813 b 353 1013 482 961 442 1013 b 229 943 292 1013 229 989 b 267 903 229 921 243 903 b 354 971 313 903 290 971 b 396 903 375 971 396 964 b 306 804 396 842 376 807 l 306 724 z "},"ḙ":{"ha":644,"x_min":0,"x_max":0,"o":"m 576 199 b 376 90 532 140 489 90 b 160 369 265 90 160 178 l 599 369 b 340 674 592 564 492 674 b 47 331 178 674 47 563 b 343 -14 47 107 176 -14 b 603 179 486 -14 553 74 z m 158 421 b 319 618 169 550 225 618 b 468 421 418 618 464 524 z m 532 -282 l 382 -69 l 290 -69 l 140 -282 l 194 -282 l 336 -146 l 479 -282 z "},"ḛ":{"ha":644,"x_min":0,"x_max":0,"o":"m 576 199 b 376 90 532 140 489 90 b 160 369 265 90 160 178 l 599 369 b 340 674 592 564 492 674 b 47 331 178 674 47 563 b 343 -14 47 107 176 -14 b 603 179 486 -14 553 74 z m 158 421 b 319 618 169 550 225 618 b 468 421 418 618 464 524 z m 515 -69 b 435 -135 499 -122 467 -135 b 246 -75 368 -135 326 -75 b 106 -221 176 -75 121 -128 l 143 -221 b 219 -157 156 -171 186 -157 b 404 -217 286 -157 328 -217 b 551 -69 482 -217 531 -176 z "},"ẹ":{"ha":644,"x_min":0,"x_max":0,"o":"m 576 199 b 376 90 532 140 489 90 b 160 369 265 90 160 178 l 599 369 b 340 674 592 564 492 674 b 47 331 178 674 47 563 b 343 -14 47 107 176 -14 b 603 179 486 -14 553 74 z m 158 421 b 319 618 169 550 225 618 b 468 421 418 618 464 524 z m 336 -94 b 257 -172 288 -94 257 -131 b 336 -251 257 -215 289 -251 b 415 -172 385 -251 415 -215 b 336 -94 415 -131 385 -94 z "},"ȩ":{"ha":644,"x_min":0,"x_max":0,"o":"m 576 199 b 376 90 532 140 489 90 b 160 369 265 90 160 178 l 599 369 b 340 674 592 564 492 674 b 47 331 178 674 47 563 b 290 -10 47 131 150 13 l 265 -114 l 285 -129 b 328 -125 285 -129 306 -125 b 388 -183 374 -125 388 -151 b 311 -244 388 -228 358 -244 b 222 -218 276 -244 247 -233 l 208 -250 b 324 -299 239 -274 272 -299 b 468 -178 410 -299 468 -253 b 354 -76 468 -112 425 -76 b 315 -79 332 -76 315 -79 l 331 -14 l 343 -14 b 603 179 486 -14 553 74 z m 158 421 b 319 618 169 550 225 618 b 468 421 418 618 464 524 z "},"ḝ":{"ha":644,"x_min":0,"x_max":0,"o":"m 576 199 b 376 90 532 140 489 90 b 160 369 265 90 160 178 l 599 369 b 340 674 592 564 492 674 b 47 331 178 674 47 563 b 290 -10 47 131 150 13 l 265 -114 l 285 -129 b 328 -125 285 -129 306 -125 b 388 -183 374 -125 388 -151 b 311 -244 388 -228 358 -244 b 222 -218 276 -244 247 -233 l 208 -250 b 324 -299 239 -274 272 -299 b 468 -178 410 -299 468 -253 b 354 -76 468 -112 425 -76 b 315 -79 332 -76 315 -79 l 331 -14 l 343 -14 b 603 179 486 -14 553 74 z m 158 421 b 319 618 169 550 225 618 b 468 421 418 618 464 524 z m 497 949 b 336 822 463 842 429 822 b 174 949 244 822 200 842 l 132 949 b 336 735 138 801 207 735 b 539 949 464 735 524 801 z "},"ę":{"ha":644,"x_min":0,"x_max":0,"o":"m 521 -186 b 404 -229 481 -217 456 -229 b 333 -153 361 -229 333 -204 b 446 4 333 -78 396 -25 b 603 179 522 39 567 101 l 576 199 b 376 90 532 140 489 90 b 160 369 265 90 160 178 l 599 369 b 340 674 592 564 492 674 b 47 331 178 674 47 563 b 342 -14 47 107 176 -14 b 358 -12 349 -14 356 -12 l 358 -18 b 240 -186 308 -58 240 -115 b 365 -300 240 -256 290 -300 b 540 -210 446 -300 488 -264 z m 158 421 b 319 618 169 550 225 618 b 468 421 418 618 464 524 z "},"ḟ":{"ha":426,"x_min":0,"x_max":0,"o":"m 36 650 l 36 592 l 142 592 l 142 165 b 25 40 142 57 126 40 l 25 0 l 399 0 l 399 40 b 257 165 283 40 257 57 l 257 592 l 426 592 l 426 650 l 257 650 l 257 781 b 324 939 257 897 272 939 b 469 833 393 939 400 833 b 526 893 501 833 526 853 b 371 990 526 956 461 990 b 186 889 274 990 224 953 b 142 650 150 825 142 763 z m 207 1185 b 129 1107 160 1185 129 1149 b 207 1029 129 1065 161 1029 b 286 1107 256 1029 286 1065 b 207 1185 286 1149 256 1185 z "},"ƒ":{"ha":418,"x_min":0,"x_max":0,"o":"m 32 650 l 32 592 l 138 592 l 138 -117 b 67 -274 138 -231 129 -274 b -71 -169 -7 -274 -4 -169 b -125 -229 -101 -169 -125 -187 b 36 -326 -125 -290 -58 -326 b 253 -18 221 -326 253 -183 l 253 592 l 422 592 l 422 650 l 253 650 l 253 781 b 319 939 253 897 268 939 b 465 833 389 939 396 833 b 522 893 497 833 522 853 b 367 990 522 956 457 990 b 182 889 269 990 219 953 b 138 650 146 825 138 763 z "},"ĝ":{"ha":672,"x_min":0,"x_max":0,"o":"m 178 256 b 64 97 113 206 64 147 b 142 -3 64 58 94 21 l 142 -8 b 29 -174 67 -81 29 -128 b 265 -326 29 -250 83 -326 b 646 -76 440 -326 646 -262 b 338 89 646 83 513 89 b 174 144 210 89 174 103 b 210 238 174 168 196 218 b 329 217 246 225 285 217 b 575 428 475 217 575 299 b 525 571 575 497 544 543 l 525 578 l 656 574 l 656 649 l 476 639 b 322 674 476 639 414 674 b 71 447 175 674 71 586 b 178 258 71 357 111 297 z m 313 624 b 451 436 401 624 451 549 b 331 265 451 304 400 265 b 193 453 240 265 193 333 b 313 624 193 569 240 624 z m 176 -14 b 333 -17 196 -14 222 -15 b 575 -115 426 -18 575 -15 b 346 -247 575 -175 510 -247 b 138 -126 204 -247 138 -207 b 176 -14 138 -97 147 -65 z m 532 724 l 382 936 l 290 936 l 140 724 l 194 724 l 336 860 l 479 724 z "},"ḡ":{"ha":672,"x_min":0,"x_max":0,"o":"m 178 256 b 64 97 113 206 64 147 b 142 -3 64 58 94 21 l 142 -8 b 29 -174 67 -81 29 -128 b 265 -326 29 -250 83 -326 b 646 -76 440 -326 646 -262 b 338 89 646 83 513 89 b 174 144 210 89 174 103 b 210 238 174 168 196 218 b 329 217 246 225 285 217 b 575 428 475 217 575 299 b 525 571 575 497 544 543 l 525 578 l 656 574 l 656 649 l 476 639 b 322 674 476 639 414 674 b 71 447 175 674 71 586 b 178 258 71 357 111 297 z m 313 624 b 451 436 401 624 451 549 b 331 265 451 304 400 265 b 193 453 240 265 193 333 b 313 624 193 569 240 624 z m 176 -14 b 333 -17 196 -14 222 -15 b 575 -115 426 -18 575 -15 b 346 -247 575 -175 510 -247 b 138 -126 204 -247 138 -207 b 176 -14 138 -97 147 -65 z m 538 771 l 538 847 l 135 847 l 135 771 z "},"ğ":{"ha":672,"x_min":0,"x_max":0,"o":"m 178 256 b 64 97 113 206 64 147 b 142 -3 64 58 94 21 l 142 -8 b 29 -174 67 -81 29 -128 b 265 -326 29 -250 83 -326 b 646 -76 440 -326 646 -262 b 338 89 646 83 513 89 b 174 144 210 89 174 103 b 210 238 174 168 196 218 b 329 217 246 225 285 217 b 575 428 475 217 575 299 b 525 571 575 497 544 543 l 525 578 l 656 574 l 656 649 l 476 639 b 322 674 476 639 414 674 b 71 447 175 674 71 586 b 178 258 71 357 111 297 z m 313 624 b 451 436 401 624 451 549 b 331 265 451 304 400 265 b 193 453 240 265 193 333 b 313 624 193 569 240 624 z m 176 -14 b 333 -17 196 -14 222 -15 b 575 -115 426 -18 575 -15 b 346 -247 575 -175 510 -247 b 138 -126 204 -247 138 -207 b 176 -14 138 -97 147 -65 z m 497 949 b 336 822 463 842 429 822 b 174 949 244 822 200 842 l 132 949 b 336 735 138 801 207 735 b 539 949 464 735 524 801 z "},"ġ":{"ha":672,"x_min":0,"x_max":0,"o":"m 178 256 b 64 97 113 206 64 147 b 142 -3 64 58 94 21 l 142 -8 b 29 -174 67 -81 29 -128 b 265 -326 29 -250 83 -326 b 646 -76 440 -326 646 -262 b 338 89 646 83 513 89 b 174 144 210 89 174 103 b 210 238 174 168 196 218 b 329 217 246 225 285 217 b 575 428 475 217 575 299 b 525 571 575 497 544 543 l 525 578 l 656 574 l 656 649 l 476 639 b 322 674 476 639 414 674 b 71 447 175 674 71 586 b 178 258 71 357 111 297 z m 313 624 b 451 436 401 624 451 549 b 331 265 451 304 400 265 b 193 453 240 265 193 333 b 313 624 193 569 240 624 z m 176 -14 b 333 -17 196 -14 222 -15 b 575 -115 426 -18 575 -15 b 346 -247 575 -175 510 -247 b 138 -126 204 -247 138 -207 b 176 -14 138 -97 147 -65 z m 336 935 b 257 857 288 935 257 899 b 336 778 257 814 289 778 b 415 857 385 778 415 814 b 336 935 415 899 385 935 z "},"ģ":{"ha":672,"x_min":0,"x_max":0,"o":"m 178 256 b 64 97 113 206 64 147 b 142 -3 64 58 94 21 l 142 -8 b 29 -174 67 -81 29 -128 b 265 -326 29 -250 83 -326 b 646 -76 440 -326 646 -262 b 338 89 646 83 513 89 b 174 144 210 89 174 103 b 210 238 174 168 196 218 b 329 217 246 225 285 217 b 575 428 475 217 575 299 b 525 571 575 497 544 543 l 525 578 l 656 574 l 656 649 l 476 639 b 322 674 476 639 414 674 b 71 447 175 674 71 586 b 178 258 71 357 111 297 z m 313 624 b 451 436 401 624 451 549 b 331 265 451 304 400 265 b 193 453 240 265 193 333 b 313 624 193 569 240 624 z m 176 -14 b 333 -17 196 -14 222 -15 b 575 -115 426 -18 575 -15 b 346 -247 575 -175 510 -247 b 138 -126 204 -247 138 -207 b 176 -14 138 -97 147 -65 z m 403 1039 b 239 846 346 1019 239 981 b 336 728 239 774 269 728 b 421 807 394 728 421 763 b 351 879 421 853 392 879 b 308 871 338 879 324 876 b 417 1004 308 951 367 986 z "},"ɠ":{"ha":751,"x_min":0,"x_max":0,"o":"m 613 813 b 700 939 614 904 644 939 b 871 833 788 939 799 833 b 931 893 904 833 931 853 b 757 990 931 956 858 990 b 547 888 650 990 588 951 b 497 679 508 826 497 771 l 497 633 l 492 633 b 360 674 447 661 407 674 b 46 306 183 674 46 528 b 282 -11 46 113 138 -11 b 493 88 372 -11 432 33 l 497 88 l 497 -36 b 319 -281 497 -218 431 -281 b 133 -151 228 -281 203 -151 b 74 -214 100 -151 74 -171 b 293 -326 74 -275 161 -326 b 613 -1 454 -326 613 -272 z m 497 143 b 349 90 458 111 417 90 b 165 358 210 90 165 207 b 358 618 165 532 242 618 b 497 508 432 618 479 578 z "},"ĥ":{"ha":801,"x_min":0,"x_max":0,"o":"m 254 499 b 426 585 322 561 372 585 b 554 375 539 585 554 489 l 554 135 b 453 40 554 68 549 40 l 453 0 l 772 0 l 772 40 b 669 140 685 40 669 67 l 669 417 b 483 674 669 531 643 674 b 258 560 410 674 346 642 l 254 560 l 254 981 l 217 981 l 31 932 l 31 893 b 71 896 31 893 49 896 b 139 840 108 896 139 889 l 139 129 b 42 40 139 51 114 40 l 42 0 l 357 0 l 357 40 b 254 135 261 40 254 63 z m 581 1014 l 428 1206 l 328 1206 l 172 1014 l 231 1014 l 376 1126 l 525 1014 z "},"ḧ":{"ha":801,"x_min":0,"x_max":0,"o":"m 254 499 b 426 585 322 561 372 585 b 554 375 539 585 554 489 l 554 135 b 453 40 554 68 549 40 l 453 0 l 772 0 l 772 40 b 669 140 685 40 669 67 l 669 417 b 483 674 669 531 643 674 b 258 560 410 674 346 642 l 254 560 l 254 981 l 217 981 l 31 932 l 31 893 b 71 896 31 893 49 896 b 139 840 108 896 139 889 l 139 129 b 42 40 139 51 114 40 l 42 0 l 357 0 l 357 40 b 254 135 261 40 254 63 z m 253 1183 b 175 1107 206 1183 175 1147 b 253 1031 175 1067 207 1031 b 332 1107 301 1031 332 1067 b 253 1183 332 1147 301 1183 z m 560 1183 b 482 1107 513 1183 482 1147 b 560 1031 482 1067 514 1031 b 639 1107 608 1031 639 1067 b 560 1183 639 1147 608 1183 z "},"ḣ":{"ha":801,"x_min":0,"x_max":0,"o":"m 254 499 b 426 585 322 561 372 585 b 554 375 539 585 554 489 l 554 135 b 453 40 554 68 549 40 l 453 0 l 772 0 l 772 40 b 669 140 685 40 669 67 l 669 417 b 483 674 669 531 643 674 b 258 560 410 674 346 642 l 254 560 l 254 981 l 217 981 l 31 932 l 31 893 b 71 896 31 893 49 896 b 139 840 108 896 139 889 l 139 129 b 42 40 139 51 114 40 l 42 0 l 357 0 l 357 40 b 254 135 261 40 254 63 z m 407 1185 b 329 1107 360 1185 329 1149 b 407 1029 329 1065 361 1029 b 486 1107 456 1029 486 1065 b 407 1185 486 1149 456 1185 z "},"ẖ":{"ha":801,"x_min":0,"x_max":0,"o":"m 254 499 b 426 585 322 561 372 585 b 554 375 539 585 554 489 l 554 135 b 453 40 554 68 549 40 l 453 0 l 772 0 l 772 40 b 669 140 685 40 669 67 l 669 417 b 483 674 669 531 643 674 b 258 560 410 674 346 642 l 254 560 l 254 981 l 217 981 l 31 932 l 31 893 b 71 896 31 893 49 896 b 139 840 108 896 139 889 l 139 129 b 42 40 139 51 114 40 l 42 0 l 357 0 l 357 40 b 254 135 261 40 254 63 z m 608 -196 l 608 -119 l 206 -119 l 206 -196 z "},"ḫ":{"ha":801,"x_min":0,"x_max":0,"o":"m 254 499 b 426 585 322 561 372 585 b 554 375 539 585 554 489 l 554 135 b 453 40 554 68 549 40 l 453 0 l 772 0 l 772 40 b 669 140 685 40 669 67 l 669 417 b 483 674 669 531 643 674 b 258 560 410 674 346 642 l 254 560 l 254 981 l 217 981 l 31 932 l 31 893 b 71 896 31 893 49 896 b 139 840 108 896 139 889 l 139 129 b 42 40 139 51 114 40 l 42 0 l 357 0 l 357 40 b 254 135 261 40 254 63 z m 568 -69 b 407 -196 533 -176 500 -196 b 244 -69 315 -196 271 -176 l 203 -69 b 407 -283 208 -217 278 -283 b 610 -69 535 -283 594 -217 z "},"ḥ":{"ha":801,"x_min":0,"x_max":0,"o":"m 254 499 b 426 585 322 561 372 585 b 554 375 539 585 554 489 l 554 135 b 453 40 554 68 549 40 l 453 0 l 772 0 l 772 40 b 669 140 685 40 669 67 l 669 417 b 483 674 669 531 643 674 b 258 560 410 674 346 642 l 254 560 l 254 981 l 217 981 l 31 932 l 31 893 b 71 896 31 893 49 896 b 139 840 108 896 139 889 l 139 129 b 42 40 139 51 114 40 l 42 0 l 357 0 l 357 40 b 254 135 261 40 254 63 z m 407 -94 b 328 -172 358 -94 328 -131 b 407 -251 328 -215 360 -251 b 486 -172 456 -251 486 -215 b 407 -94 486 -131 456 -94 z "},"ḩ":{"ha":801,"x_min":0,"x_max":0,"o":"m 254 499 b 426 585 322 561 372 585 b 554 375 539 585 554 489 l 554 135 b 453 40 554 68 549 40 l 453 0 l 772 0 l 772 40 b 669 140 685 40 669 67 l 669 417 b 483 674 669 531 643 674 b 258 560 410 674 346 642 l 254 560 l 254 981 l 217 981 l 31 932 l 31 893 b 71 896 31 893 49 896 b 139 840 108 896 139 889 l 139 129 b 42 40 139 51 114 40 l 42 0 l 151 0 l 124 -114 l 143 -129 b 186 -125 143 -129 164 -125 b 246 -183 232 -125 246 -151 b 169 -244 246 -228 217 -244 b 81 -218 135 -244 106 -233 l 67 -250 b 182 -299 97 -274 131 -299 b 326 -178 268 -299 326 -253 b 213 -76 326 -112 283 -76 b 174 -79 190 -76 174 -79 l 192 0 l 357 0 l 357 40 b 254 135 261 40 254 63 z "},"ħ":{"ha":804,"x_min":0,"x_max":0,"o":"m 257 488 b 429 572 325 550 375 572 b 557 363 542 572 557 478 l 557 135 b 456 40 557 68 551 40 l 456 0 l 775 0 l 775 40 b 672 140 688 40 672 67 l 672 378 b 486 663 672 493 665 663 b 261 549 404 663 333 617 l 257 549 l 257 740 l 482 740 l 482 797 l 257 797 l 257 981 l 219 981 l 33 933 l 33 894 b 74 897 33 894 51 897 b 142 842 111 897 142 890 l 142 797 l 33 797 l 33 740 l 142 740 l 142 129 b 44 40 142 51 117 40 l 44 0 l 360 0 l 360 40 b 257 128 274 40 257 57 z "},"ì":{"ha":396,"x_min":0,"x_max":0,"o":"m 357 39 b 257 140 264 39 257 60 l 257 669 l 221 669 l 46 631 l 46 590 b 81 593 46 590 61 593 b 142 528 121 593 142 588 l 142 140 b 44 39 142 61 138 39 l 44 0 l 357 0 z m 151 936 l 24 936 l 24 911 l 194 724 l 249 724 z "},"í":{"ha":396,"x_min":0,"x_max":0,"o":"m 357 39 b 257 140 264 39 257 60 l 257 669 l 221 669 l 46 631 l 46 590 b 81 593 46 590 61 593 b 142 528 121 593 142 588 l 142 140 b 44 39 142 61 138 39 l 44 0 l 357 0 z m 99 724 l 153 724 l 325 911 l 325 936 l 196 936 z "},"î":{"ha":396,"x_min":0,"x_max":0,"o":"m 357 724 l 219 936 l 128 936 l -8 724 l 44 724 l 174 860 l 303 724 z m 357 39 b 257 140 264 39 257 60 l 257 669 l 221 669 l 46 631 l 46 590 b 81 593 46 590 61 593 b 142 528 121 593 142 588 l 142 140 b 44 39 142 61 138 39 l 44 0 l 357 0 z "},"ĩ":{"ha":396,"x_min":0,"x_max":0,"o":"m 347 892 b 275 826 332 839 304 826 b 106 886 215 826 178 886 b -21 740 44 886 -6 833 l 17 740 b 86 804 29 790 56 804 b 253 744 147 804 183 744 b 385 892 322 744 365 785 z m 357 39 b 257 140 264 39 257 60 l 257 669 l 221 669 l 46 631 l 46 590 b 81 593 46 590 61 593 b 142 528 121 593 142 588 l 142 140 b 44 39 142 61 138 39 l 44 0 l 357 0 z "},"ï":{"ha":396,"x_min":0,"x_max":0,"o":"m 357 39 b 257 140 264 39 257 60 l 257 669 l 221 669 l 46 631 l 46 590 b 81 593 46 590 61 593 b 142 528 121 593 142 588 l 142 140 b 44 39 142 61 138 39 l 44 0 l 357 0 z m 38 933 b -40 856 -10 933 -40 897 b 38 778 -40 814 -8 778 b 117 856 86 778 117 814 b 38 933 117 897 86 933 z m 310 933 b 232 856 263 933 232 897 b 310 778 232 814 264 778 b 389 856 358 778 389 814 b 310 933 389 897 358 933 z "},"ḯ":{"ha":396,"x_min":0,"x_max":0,"o":"m 357 39 b 257 140 264 39 257 60 l 257 669 l 221 669 l 46 631 l 46 590 b 81 593 46 590 61 593 b 142 528 121 593 142 588 l 142 140 b 44 39 142 61 138 39 l 44 0 l 357 0 z m 38 933 b -40 856 -10 933 -40 897 b 38 778 -40 814 -8 778 b 117 856 86 778 117 814 b 38 933 117 897 86 933 z m 310 933 b 232 856 263 933 232 897 b 310 778 232 814 264 778 b 389 856 358 778 389 814 b 310 933 389 897 358 933 z m 99 946 l 153 946 l 325 1133 l 325 1158 l 196 1158 z "},"ī":{"ha":396,"x_min":0,"x_max":0,"o":"m 357 39 b 257 140 264 39 257 60 l 257 669 l 221 669 l 46 631 l 46 590 b 81 593 46 590 61 593 b 142 528 121 593 142 588 l 142 140 b 44 39 142 61 138 39 l 44 0 l 357 0 z m 354 771 l 354 847 l -6 847 l -6 771 z "},"ĭ":{"ha":396,"x_min":0,"x_max":0,"o":"m 314 949 b 172 817 285 842 249 817 b 32 949 97 817 53 842 l -10 949 b 172 735 -4 801 63 735 b 356 949 282 735 342 801 z m 357 39 b 257 140 264 39 257 60 l 257 669 l 221 669 l 46 631 l 46 590 b 81 593 46 590 61 593 b 142 528 121 593 142 588 l 142 140 b 44 39 142 61 138 39 l 44 0 l 357 0 z "},"ỉ":{"ha":396,"x_min":0,"x_max":0,"o":"m 357 39 b 257 140 264 39 257 60 l 257 669 l 221 669 l 46 631 l 46 590 b 81 593 46 590 61 593 b 142 528 121 593 142 588 l 142 140 b 44 39 142 61 138 39 l 44 0 l 357 0 z m 200 724 l 200 779 b 319 900 243 788 319 813 b 190 1013 319 961 279 1013 b 67 943 129 1013 67 989 b 104 903 67 921 81 903 b 192 971 150 903 128 971 b 233 903 213 971 233 964 b 143 804 233 842 214 807 l 143 724 z "},"ḭ":{"ha":396,"x_min":0,"x_max":0,"o":"m 201 935 b 122 857 153 935 122 899 b 201 778 122 814 154 778 b 281 857 250 778 281 814 b 201 935 281 899 250 935 z m 357 39 b 257 140 264 39 257 60 l 257 669 l 221 669 l 46 631 l 46 590 b 81 593 46 590 61 593 b 142 528 121 593 142 588 l 142 140 b 44 39 142 61 138 39 l 44 0 l 357 0 z m 381 -69 b 300 -135 364 -122 332 -135 b 111 -75 233 -135 192 -75 b -29 -221 42 -75 -14 -128 l 8 -221 b 85 -157 21 -171 51 -157 b 269 -217 151 -157 193 -217 b 417 -69 347 -217 396 -176 z "},"ị":{"ha":396,"x_min":0,"x_max":0,"o":"m 201 935 b 122 857 153 935 122 899 b 201 778 122 814 154 778 b 281 857 250 778 281 814 b 201 935 281 899 250 935 z m 357 39 b 257 140 264 39 257 60 l 257 669 l 221 669 l 46 631 l 46 590 b 81 593 46 590 61 593 b 142 528 121 593 142 588 l 142 140 b 44 39 142 61 138 39 l 44 0 l 357 0 z m 201 -94 b 122 -172 153 -94 122 -131 b 201 -251 122 -215 154 -251 b 281 -172 250 -251 281 -215 b 201 -94 281 -131 250 -94 z "},"į":{"ha":396,"x_min":0,"x_max":0,"o":"m 340 -186 b 224 -229 300 -217 276 -229 b 154 -153 181 -229 154 -204 b 260 0 154 -81 210 -36 l 357 0 l 357 39 b 257 140 264 39 257 60 l 257 669 l 221 669 l 46 631 l 46 590 b 81 593 46 590 61 593 b 142 528 121 593 142 588 l 142 140 b 44 39 142 61 138 39 l 44 0 l 194 0 l 194 -4 b 60 -186 143 -43 60 -107 b 185 -300 60 -256 110 -300 b 360 -210 267 -300 307 -264 z m 201 963 b 122 885 153 963 122 926 b 201 806 122 842 154 806 b 281 885 250 806 281 842 b 201 963 281 926 250 963 z "},"ɨ":{"ha":410,"x_min":0,"x_max":0,"o":"m 364 39 b 264 140 271 39 264 60 l 264 343 l 367 343 l 367 390 l 264 390 l 264 669 l 228 669 l 53 631 l 53 590 b 88 593 53 590 68 593 b 149 528 128 593 149 588 l 149 390 l 46 390 l 46 343 l 149 343 l 149 140 b 51 39 149 61 144 39 l 51 0 l 364 0 z m 208 963 b 129 885 160 963 129 926 b 208 806 129 842 161 806 b 288 885 257 806 288 842 b 208 963 288 926 257 963 z "},"ı":{"ha":396,"x_min":0,"x_max":0,"o":"m 357 39 b 257 140 264 39 257 60 l 257 669 l 221 669 l 46 631 l 46 590 b 81 593 46 590 61 593 b 142 528 121 593 142 588 l 142 140 b 44 39 142 61 138 39 l 44 0 l 357 0 z "},"ĵ":{"ha":365,"x_min":0,"x_max":0,"o":"m 254 669 l 217 669 l 36 631 l 36 589 b 78 593 36 589 56 593 b 139 518 128 593 139 579 l 139 -44 b 65 -265 139 -193 133 -265 b -71 -168 1 -265 -4 -168 b -132 -226 -108 -168 -132 -192 b 15 -326 -132 -287 -76 -326 b 254 -3 179 -326 254 -222 z m 375 724 l 225 936 l 133 936 l -17 724 l 38 724 l 179 860 l 322 724 z "},"ǰ":{"ha":365,"x_min":0,"x_max":0,"o":"m 254 669 l 217 669 l 36 631 l 36 589 b 78 593 36 589 56 593 b 139 518 128 593 139 579 l 139 -44 b 65 -265 139 -193 133 -265 b -71 -168 1 -265 -4 -168 b -132 -226 -108 -168 -132 -192 b 15 -326 -132 -287 -76 -326 b 254 -3 179 -326 254 -222 z m -17 942 l 133 729 l 225 729 l 375 942 l 322 942 l 179 806 l 38 942 z "},"ȷ":{"ha":365,"x_min":0,"x_max":0,"o":"m 254 669 l 217 669 l 36 631 l 36 589 b 78 593 36 589 56 593 b 139 518 128 593 139 579 l 139 -44 b 65 -265 139 -193 133 -265 b -71 -168 1 -265 -4 -168 b -132 -226 -108 -168 -132 -192 b 15 -326 -132 -287 -76 -326 b 254 -3 179 -326 254 -222 z "},"ḱ":{"ha":753,"x_min":0,"x_max":0,"o":"m 749 0 l 749 40 b 601 121 690 40 668 44 l 357 396 l 426 453 b 699 615 583 590 608 615 l 699 657 l 399 657 l 399 615 b 467 590 451 615 467 608 b 442 546 467 568 447 551 l 263 368 l 254 368 l 254 981 l 217 981 l 36 932 l 36 894 b 83 897 36 894 64 897 b 139 826 129 897 139 885 l 139 132 b 42 40 139 56 125 40 l 42 0 l 357 0 l 357 40 b 254 126 269 40 254 56 l 254 338 l 263 338 l 481 90 b 496 57 488 83 496 69 b 442 40 496 44 482 40 l 442 0 z m 246 1019 l 310 1019 l 531 1168 l 531 1197 l 392 1197 z "},"ḵ":{"ha":753,"x_min":0,"x_max":0,"o":"m 749 0 l 749 40 b 601 121 690 40 668 44 l 357 396 l 426 453 b 699 615 583 590 608 615 l 699 657 l 399 657 l 399 615 b 467 590 451 615 467 608 b 442 546 467 568 447 551 l 263 368 l 254 368 l 254 981 l 217 981 l 36 932 l 36 894 b 83 897 36 894 64 897 b 139 826 129 897 139 885 l 139 132 b 42 40 139 56 125 40 l 42 0 l 357 0 l 357 40 b 254 126 269 40 254 56 l 254 338 l 263 338 l 481 90 b 496 57 488 83 496 69 b 442 40 496 44 482 40 l 442 0 z m 581 -196 l 581 -119 l 178 -119 l 178 -196 z "},"ḳ":{"ha":753,"x_min":0,"x_max":0,"o":"m 749 0 l 749 40 b 601 121 690 40 668 44 l 357 396 l 426 453 b 699 615 583 590 608 615 l 699 657 l 399 657 l 399 615 b 467 590 451 615 467 608 b 442 546 467 568 447 551 l 263 368 l 254 368 l 254 981 l 217 981 l 36 932 l 36 894 b 83 897 36 894 64 897 b 139 826 129 897 139 885 l 139 132 b 42 40 139 56 125 40 l 42 0 l 357 0 l 357 40 b 254 126 269 40 254 56 l 254 338 l 263 338 l 481 90 b 496 57 488 83 496 69 b 442 40 496 44 482 40 l 442 0 z m 379 -94 b 300 -172 331 -94 300 -131 b 379 -251 300 -215 332 -251 b 458 -172 428 -251 458 -215 b 379 -94 458 -131 428 -94 z "},"ķ":{"ha":753,"x_min":0,"x_max":0,"o":"m 749 0 l 749 40 b 601 121 690 40 668 44 l 357 396 l 426 453 b 699 615 583 590 608 615 l 699 657 l 399 657 l 399 615 b 467 590 451 615 467 608 b 442 546 467 568 447 551 l 263 368 l 254 368 l 254 981 l 217 981 l 36 932 l 36 894 b 83 897 36 894 64 897 b 139 826 129 897 139 885 l 139 132 b 42 40 139 56 125 40 l 42 0 l 357 0 l 357 40 b 254 126 269 40 254 56 l 254 338 l 263 338 l 481 90 b 496 57 488 83 496 69 b 442 40 496 44 482 40 l 442 0 z m 310 -385 b 474 -192 367 -365 474 -326 b 376 -74 474 -119 443 -74 b 292 -153 318 -74 292 -108 b 361 -225 292 -199 321 -225 b 404 -217 375 -225 389 -222 b 296 -350 404 -297 346 -332 z "},"ƙ":{"ha":747,"x_min":0,"x_max":0,"o":"m 743 0 l 743 40 b 596 121 686 40 664 44 l 351 396 l 432 464 b 693 615 590 599 610 615 l 693 657 l 393 657 l 393 615 b 461 590 446 614 461 607 b 438 546 461 567 446 554 l 257 368 l 249 368 l 249 810 b 336 939 249 903 279 939 b 507 833 424 939 435 833 b 567 893 540 833 567 853 b 393 990 567 956 494 990 b 183 888 286 990 225 951 b 133 671 144 825 133 768 l 133 132 b 36 40 133 56 119 40 l 36 0 l 351 0 l 351 40 b 249 126 263 40 249 56 l 249 338 l 257 338 l 475 90 b 490 57 482 83 490 69 b 438 40 490 44 476 40 l 438 0 z "},"ĸ":{"ha":753,"x_min":0,"x_max":0,"o":"m 751 0 l 751 40 b 604 121 693 40 674 46 l 363 378 l 429 436 b 701 615 582 575 614 615 l 701 657 l 415 657 l 415 615 b 483 590 468 615 483 608 b 458 546 483 568 464 551 l 265 351 l 257 351 l 257 665 l 219 665 l 39 625 l 39 586 b 86 589 39 586 67 589 b 142 519 132 589 142 576 l 142 132 b 44 40 142 56 128 40 l 44 0 l 360 0 l 360 40 b 257 126 272 40 257 56 l 257 321 l 265 321 l 483 90 b 499 57 490 83 499 69 b 444 40 499 44 485 40 l 444 0 z "},"ĺ":{"ha":393,"x_min":0,"x_max":0,"o":"m 361 40 b 254 140 261 40 254 60 l 254 981 l 219 981 l 36 932 l 36 894 b 81 897 36 894 57 897 b 139 838 115 897 139 894 l 139 140 b 42 40 139 63 133 40 l 42 0 l 361 0 z m 79 1019 l 143 1019 l 364 1168 l 364 1197 l 225 1197 z "},"ľ":{"ha":508,"x_min":0,"x_max":0,"o":"m 361 40 b 254 140 261 40 254 60 l 254 981 l 219 981 l 36 932 l 36 894 b 81 897 36 894 57 897 b 139 838 115 897 139 894 l 139 140 b 42 40 139 63 133 40 l 42 0 l 361 0 z m 350 699 l 392 693 b 481 943 436 764 475 865 l 481 968 l 367 968 z "},"ḹ":{"ha":393,"x_min":0,"x_max":0,"o":"m 361 40 b 254 140 261 40 254 60 l 254 981 l 219 981 l 36 932 l 36 894 b 81 897 36 894 57 897 b 139 838 115 897 139 894 l 139 140 b 42 40 139 63 133 40 l 42 0 l 361 0 z m 194 -94 b 115 -172 146 -94 115 -131 b 194 -251 115 -215 147 -251 b 274 -172 243 -251 274 -215 b 194 -94 274 -131 243 -94 z m 399 1058 l 399 1132 l -10 1132 l -10 1058 z "},"ḽ":{"ha":393,"x_min":0,"x_max":0,"o":"m 361 40 b 254 140 261 40 254 60 l 254 981 l 219 981 l 36 932 l 36 894 b 81 897 36 894 57 897 b 139 838 115 897 139 894 l 139 140 b 42 40 139 63 133 40 l 42 0 l 361 0 z m 390 -282 l 240 -69 l 149 -69 l -1 -282 l 53 -282 l 194 -146 l 338 -282 z "},"ḻ":{"ha":393,"x_min":0,"x_max":0,"o":"m 361 40 b 254 140 261 40 254 60 l 254 981 l 219 981 l 36 932 l 36 894 b 81 897 36 894 57 897 b 139 838 115 897 139 894 l 139 140 b 42 40 139 63 133 40 l 42 0 l 361 0 z m 396 -196 l 396 -119 l -7 -119 l -7 -196 z "},"ḷ":{"ha":393,"x_min":0,"x_max":0,"o":"m 361 40 b 254 140 261 40 254 60 l 254 981 l 219 981 l 36 932 l 36 894 b 81 897 36 894 57 897 b 139 838 115 897 139 894 l 139 140 b 42 40 139 63 133 40 l 42 0 l 361 0 z m 194 -94 b 115 -172 146 -94 115 -131 b 194 -251 115 -215 147 -251 b 274 -172 243 -251 274 -215 b 194 -94 274 -131 243 -94 z "},"ļ":{"ha":393,"x_min":0,"x_max":0,"o":"m 361 40 b 254 140 261 40 254 60 l 254 981 l 219 981 l 36 932 l 36 894 b 81 897 36 894 57 897 b 139 838 115 897 139 894 l 139 140 b 42 40 139 63 133 40 l 42 0 l 361 0 z m 125 -385 b 289 -192 182 -365 289 -326 b 192 -74 289 -119 258 -74 b 107 -153 133 -74 107 -108 b 176 -225 107 -199 136 -225 b 219 -217 190 -225 204 -222 b 111 -350 219 -297 161 -332 z "},"ŀ":{"ha":496,"x_min":0,"x_max":0,"o":"m 361 40 b 254 140 261 40 254 60 l 254 981 l 219 981 l 36 932 l 36 894 b 81 897 36 894 57 897 b 139 838 115 897 139 894 l 139 140 b 42 40 139 63 133 40 l 42 0 l 361 0 z m 444 574 b 365 496 396 574 365 538 b 444 417 365 453 397 417 b 524 496 493 417 524 453 b 444 574 524 538 493 574 z "},"ł":{"ha":403,"x_min":0,"x_max":0,"o":"m 42 371 l 146 444 l 146 140 b 49 40 146 63 140 40 l 49 0 l 368 0 l 368 40 b 261 140 268 40 261 60 l 261 529 l 390 622 l 358 665 l 261 597 l 261 981 l 226 981 l 43 932 l 43 894 b 88 897 43 894 64 897 b 146 838 122 897 146 894 l 146 513 l 11 415 z "},"ƚ":{"ha":399,"x_min":0,"x_max":0,"o":"m 364 40 b 257 140 264 40 257 60 l 257 494 l 363 494 l 363 542 l 257 542 l 257 981 l 222 981 l 39 932 l 39 894 b 83 897 39 894 60 897 b 142 838 118 897 142 894 l 142 542 l 42 542 l 42 494 l 142 494 l 142 140 b 44 40 142 63 136 40 l 44 0 l 364 0 z "},"ɫ":{"ha":403,"x_min":0,"x_max":0,"o":"m 378 600 b 300 529 360 543 329 529 b 257 539 279 529 265 535 l 257 981 l 222 981 l 39 932 l 39 894 b 83 897 39 894 60 897 b 142 838 118 897 142 894 l 142 576 b 119 579 135 578 129 579 b -10 439 61 579 6 532 l 21 433 b 104 503 33 483 71 503 b 142 493 122 503 132 499 l 142 140 b 44 40 142 63 136 40 l 44 0 l 364 0 l 364 40 b 257 140 264 40 257 60 l 257 454 b 275 453 265 453 271 453 b 408 594 353 453 388 488 z "},"ḿ":{"ha":1183,"x_min":0,"x_max":0,"o":"m 257 496 b 431 585 297 533 358 585 b 542 436 494 585 542 554 l 542 161 b 435 40 542 64 533 40 l 435 0 l 764 0 l 764 40 b 657 161 664 40 657 65 l 657 499 b 817 585 703 538 760 585 b 936 428 882 585 936 554 l 936 161 b 838 40 936 76 932 40 l 838 0 l 1151 0 l 1151 40 b 1051 161 1056 40 1051 74 l 1051 444 b 872 674 1051 613 981 674 b 651 558 799 674 728 633 l 646 558 b 492 674 618 625 571 674 b 258 557 397 674 333 622 l 253 557 l 253 669 l 219 669 l 46 629 l 46 589 b 83 592 46 589 63 592 b 142 529 122 592 142 579 l 142 140 b 44 40 142 57 132 40 l 44 0 l 361 0 l 361 40 b 257 135 275 40 257 57 z m 524 724 l 578 724 l 750 911 l 750 936 l 621 936 z "},"ṁ":{"ha":1183,"x_min":0,"x_max":0,"o":"m 257 496 b 431 585 297 533 358 585 b 542 436 494 585 542 554 l 542 161 b 435 40 542 64 533 40 l 435 0 l 764 0 l 764 40 b 657 161 664 40 657 65 l 657 499 b 817 585 703 538 760 585 b 936 428 882 585 936 554 l 936 161 b 838 40 936 76 932 40 l 838 0 l 1151 0 l 1151 40 b 1051 161 1056 40 1051 74 l 1051 444 b 872 674 1051 613 981 674 b 651 558 799 674 728 633 l 646 558 b 492 674 618 625 571 674 b 258 557 397 674 333 622 l 253 557 l 253 669 l 219 669 l 46 629 l 46 589 b 83 592 46 589 63 592 b 142 529 122 592 142 579 l 142 140 b 44 40 142 57 132 40 l 44 0 l 361 0 l 361 40 b 257 135 275 40 257 57 z m 599 935 b 519 857 550 935 519 899 b 599 778 519 814 551 778 b 678 857 647 778 678 814 b 599 935 678 899 647 935 z "},"ṃ":{"ha":1183,"x_min":0,"x_max":0,"o":"m 257 496 b 431 585 297 533 358 585 b 542 436 494 585 542 554 l 542 161 b 435 40 542 64 533 40 l 435 0 l 764 0 l 764 40 b 657 161 664 40 657 65 l 657 499 b 817 585 703 538 760 585 b 936 428 882 585 936 554 l 936 161 b 838 40 936 76 932 40 l 838 0 l 1151 0 l 1151 40 b 1051 161 1056 40 1051 74 l 1051 444 b 872 674 1051 613 981 674 b 651 558 799 674 728 633 l 646 558 b 492 674 618 625 571 674 b 258 557 397 674 333 622 l 253 557 l 253 669 l 219 669 l 46 629 l 46 589 b 83 592 46 589 63 592 b 142 529 122 592 142 579 l 142 140 b 44 40 142 57 132 40 l 44 0 l 361 0 l 361 40 b 257 135 275 40 257 57 z m 599 -94 b 519 -172 550 -94 519 -131 b 599 -251 519 -215 551 -251 b 678 -172 647 -251 678 -215 b 599 -94 678 -131 647 -94 z "}}}
